<svg xmlns="http://www.w3.org/2000/svg" xmlns:xlink="http://www.w3.org/1999/xlink" width="500" zoomAndPan="magnify" viewBox="0 0 375 374.999991" height="500" preserveAspectRatio="xMidYMid meet" version="1.0"><defs><filter x="0%" y="0%" width="100%" height="100%" id="0029b79cf1"><feColorMatrix values="0 0 0 0 1 0 0 0 0 1 0 0 0 0 1 0 0 0 1 0" color-interpolation-filters="sRGB"/></filter><g/><clipPath id="6f3951fc86"><path d="M 46.351562 130.230469 L 161.101562 130.230469 L 161.101562 244.980469 L 46.351562 244.980469 Z M 46.351562 130.230469 " clip-rule="nonzero"/></clipPath><clipPath id="24d4934d14"><path d="M 103.726562 130.230469 C 72.039062 130.230469 46.351562 155.917969 46.351562 187.605469 C 46.351562 219.292969 72.039062 244.980469 103.726562 244.980469 C 135.414062 244.980469 161.101562 219.292969 161.101562 187.605469 C 161.101562 155.917969 135.414062 130.230469 103.726562 130.230469 " clip-rule="nonzero"/></clipPath><clipPath id="4534941ac4"><path d="M 66 160 L 141 160 L 141 198 L 66 198 Z M 66 160 " clip-rule="nonzero"/></clipPath><clipPath id="693124d68d"><path d="M 140.964844 141.589844 L 141.238281 233.089844 L 66.238281 233.316406 L 65.964844 141.816406 Z M 140.964844 141.589844 " clip-rule="nonzero"/></clipPath><clipPath id="6d7cf04539"><path d="M 140.964844 141.589844 L 141.238281 233.089844 L 66.238281 233.316406 L 65.964844 141.816406 Z M 140.964844 141.589844 " clip-rule="nonzero"/></clipPath><clipPath id="4b2c3dcc05"><path d="M 84 141 L 133 141 L 133 234 L 84 234 Z M 84 141 " clip-rule="nonzero"/></clipPath><clipPath id="1fecdfedfd"><path d="M 140.964844 141.589844 L 141.238281 233.089844 L 66.238281 233.316406 L 65.964844 141.816406 Z M 140.964844 141.589844 " clip-rule="nonzero"/></clipPath><clipPath id="a7b4006341"><path d="M 140.964844 141.589844 L 141.238281 233.089844 L 66.238281 233.316406 L 65.964844 141.816406 Z M 140.964844 141.589844 " clip-rule="nonzero"/></clipPath><clipPath id="d50b682ad6"><path d="M 85 161 L 120 161 L 120 197 L 85 197 Z M 85 161 " clip-rule="nonzero"/></clipPath><clipPath id="74f396a9ea"><path d="M 140.964844 141.589844 L 141.238281 233.089844 L 66.238281 233.316406 L 65.964844 141.816406 Z M 140.964844 141.589844 " clip-rule="nonzero"/></clipPath><clipPath id="03892d298f"><path d="M 140.964844 141.589844 L 141.238281 233.089844 L 66.238281 233.316406 L 65.964844 141.816406 Z M 140.964844 141.589844 " clip-rule="nonzero"/></clipPath><clipPath id="d439ba7e17"><path d="M 84 161 L 126 161 L 126 198 L 84 198 Z M 84 161 " clip-rule="nonzero"/></clipPath><clipPath id="0b65a61d26"><path d="M 140.964844 141.589844 L 141.238281 233.089844 L 66.238281 233.316406 L 65.964844 141.816406 Z M 140.964844 141.589844 " clip-rule="nonzero"/></clipPath><clipPath id="b49bfb6bed"><path d="M 140.964844 141.589844 L 141.238281 233.089844 L 66.238281 233.316406 L 65.964844 141.816406 Z M 140.964844 141.589844 " clip-rule="nonzero"/></clipPath><clipPath id="c51663ce45"><path d="M 85 160 L 124 160 L 124 199 L 85 199 Z M 85 160 " clip-rule="nonzero"/></clipPath><clipPath id="7236e8e4d0"><path d="M 140.964844 141.589844 L 141.238281 233.089844 L 66.238281 233.316406 L 65.964844 141.816406 Z M 140.964844 141.589844 " clip-rule="nonzero"/></clipPath><clipPath id="3f0773251c"><path d="M 140.964844 141.589844 L 141.238281 233.089844 L 66.238281 233.316406 L 65.964844 141.816406 Z M 140.964844 141.589844 " clip-rule="nonzero"/></clipPath><clipPath id="2234908fc9"><path d="M 90.515625 170.832031 L 116.726562 170.832031 L 116.726562 193.839844 L 90.515625 193.839844 Z M 90.515625 170.832031 " clip-rule="nonzero"/></clipPath><clipPath id="4c47159238"><path d="M 90.515625 177.613281 C 90.515625 184.914062 103.621094 193.820312 103.621094 193.820312 C 103.621094 193.820312 116.667969 184.851562 116.726562 177.613281 C 116.726562 173.875 113.679688 170.832031 109.941406 170.832031 C 107.070312 170.832031 104.597656 172.671875 103.621094 175.199219 C 102.644531 172.671875 100.171875 170.832031 97.300781 170.832031 C 93.5625 170.832031 90.515625 173.875 90.515625 177.613281 " clip-rule="nonzero"/></clipPath><mask id="f862d687d6"><g filter="url(#0029b79cf1)"><rect x="-37.5" width="450" fill="#000000" y="-37.499999" height="449.999989" fill-opacity="0.8196"/></g></mask><clipPath id="8394bd121f"><path d="M 0.738281 0.972656 L 24.503906 0.972656 L 24.503906 21.839844 L 0.738281 21.839844 Z M 0.738281 0.972656 " clip-rule="nonzero"/></clipPath><clipPath id="3ef4eb19f0"><path d="M 0.738281 7.125 C 0.738281 13.746094 12.621094 21.820312 12.621094 21.820312 C 12.621094 21.820312 24.453125 13.6875 24.503906 7.125 C 24.503906 3.734375 21.742188 0.972656 18.355469 0.972656 C 15.75 0.972656 13.503906 2.640625 12.621094 4.933594 C 11.738281 2.640625 9.492188 0.972656 6.886719 0.972656 C 3.5 0.972656 0.738281 3.734375 0.738281 7.125 " clip-rule="nonzero"/></clipPath><clipPath id="80af1a94e9"><rect x="0" width="25" y="0" height="22"/></clipPath></defs><g clip-path="url(#6f3951fc86)"><g clip-path="url(#24d4934d14)"><path stroke-linecap="butt" transform="matrix(0.751381, 0, 0, 0.751381, 46.350469, 130.229478)" fill="none" stroke-linejoin="miter" d="M 76.360831 0.00131877 C 34.188496 0.00131877 0.00145471 34.18836 0.00145471 76.360695 C 0.00145471 118.533031 34.188496 152.720072 76.360831 152.720072 C 118.533167 152.720072 152.720208 118.533031 152.720208 76.360695 C 152.720208 34.18836 118.533167 0.00131877 76.360831 0.00131877 " stroke="#11999e" stroke-width="6" stroke-opacity="1" stroke-miterlimit="4"/></g></g><g clip-path="url(#4534941ac4)"><g clip-path="url(#693124d68d)"><g clip-path="url(#6d7cf04539)"><path fill="#0cc0df" d="M 123.824219 192.59375 L 127.382812 192.582031 C 131.089844 192.570312 134.683594 191.023438 137.238281 188.335938 C 139.78125 185.660156 141.082031 182.171875 140.898438 178.519531 C 140.542969 171.367188 134.640625 165.78125 127.46875 165.804688 L 122.078125 165.820312 C 122.078125 165.820312 113.820312 166.59375 113.609375 161.65625 C 113.71875 165.765625 117.109375 169.070312 121.246094 169.058594 L 127.476562 169.039062 C 132.917969 169.023438 137.390625 173.257812 137.660156 178.679688 C 137.796875 181.441406 136.8125 184.078125 134.886719 186.109375 C 132.941406 188.15625 130.199219 189.335938 127.371094 189.34375 L 123.8125 189.355469 C 123.753906 189.355469 123.691406 189.355469 123.632812 189.359375 C 118.6875 189.574219 119.460938 197.816406 119.460938 197.816406 L 119.457031 196.980469 C 119.453125 194.566406 121.410156 192.601562 123.824219 192.59375 M 90.03125 160.726562 C 90.03125 160.726562 90.75 168.398438 86.367188 169.132812 C 86.140625 169.15625 85.910156 169.164062 85.675781 169.167969 L 79.617188 169.183594 C 76.785156 169.195312 74.046875 170.375 72.101562 172.425781 C 70.171875 174.449219 69.1875 177.09375 69.324219 179.851562 C 69.59375 185.273438 74.066406 189.503906 79.507812 189.488281 L 85.738281 189.46875 C 89.878906 189.457031 93.269531 192.761719 93.375 196.875 C 93.164062 191.9375 84.90625 192.710938 84.90625 192.710938 L 79.519531 192.726562 C 72.34375 192.746094 66.445312 187.164062 66.089844 180.011719 C 66.078125 179.800781 66.070312 179.589844 66.070312 179.378906 C 66.0625 175.957031 67.351562 172.71875 69.75 170.195312 C 72.300781 167.507812 75.894531 165.957031 79.605469 165.949219 L 85.667969 165.929688 C 88.082031 165.921875 90.039062 163.957031 90.03125 161.542969 L 90.03125 160.726562 " fill-opacity="1" fill-rule="nonzero"/></g></g></g><g clip-path="url(#4b2c3dcc05)"><g clip-path="url(#1fecdfedfd)"><g clip-path="url(#a7b4006341)"><path fill="#11999e" d="M 91.523438 216.027344 C 89.605469 216.03125 88.046875 214.484375 88.039062 212.566406 C 88.035156 210.652344 89.585938 209.097656 91.503906 209.089844 C 93.421875 209.085938 94.980469 210.632812 94.988281 212.546875 C 94.992188 214.464844 93.441406 216.019531 91.523438 216.027344 M 93.273438 161.535156 C 93.285156 165.496094 90.246094 168.773438 86.367188 169.132812 C 90.75 168.398438 90.03125 160.726562 90.03125 160.726562 L 90.015625 155.492188 C 90.003906 151.785156 91.53125 148.1875 94.207031 145.621094 C 96.871094 143.066406 100.355469 141.746094 104.015625 141.90625 C 111.179688 142.21875 116.804688 148.078125 116.828125 155.242188 L 116.847656 161.464844 C 116.855469 163.875 118.824219 165.828125 121.238281 165.824219 L 122.078125 165.820312 C 122.078125 165.820312 113.820312 166.59375 113.609375 161.65625 C 113.605469 161.597656 113.605469 161.535156 113.605469 161.472656 L 113.585938 155.25 C 113.570312 149.820312 109.304688 145.378906 103.875 145.140625 C 101.105469 145.019531 98.472656 146.019531 96.453125 147.957031 C 94.414062 149.914062 93.246094 152.65625 93.253906 155.480469 L 93.273438 161.535156 M 112.785156 233.136719 L 111.96875 233.140625 C 111.125 233.140625 110.433594 232.503906 110.347656 231.6875 C 108.34375 231.058594 106.566406 229.804688 105.3125 228.089844 C 104.066406 226.390625 103.40625 224.339844 103.398438 222.265625 C 103.394531 221.621094 103.457031 220.972656 103.582031 220.328125 C 104.042969 218.023438 104.605469 215.929688 105.273438 214.054688 C 104.96875 213.75 104.789062 213.335938 104.789062 212.902344 C 104.789062 212.695312 104.828125 212.484375 104.914062 212.28125 C 105.804688 210.121094 106.859375 208.269531 108.042969 206.765625 C 108.058594 206.75 108.074219 206.730469 108.089844 206.710938 C 110.273438 204.183594 113.117188 202.605469 116.234375 202.167969 L 116.21875 196.988281 C 116.203125 192.855469 119.511719 189.46875 123.632812 189.359375 C 118.6875 189.574219 119.460938 197.816406 119.460938 197.816406 L 119.472656 202.125 C 122.703125 202.484375 125.660156 204.058594 127.925781 206.652344 C 127.945312 206.671875 127.957031 206.6875 127.972656 206.707031 C 129.167969 208.203125 130.230469 210.050781 131.136719 212.203125 C 131.398438 212.828125 131.238281 213.527344 130.785156 213.976562 C 131.464844 215.851562 132.042969 217.9375 132.515625 220.242188 C 133.066406 222.945312 132.453125 225.777344 130.832031 228.011719 C 129.539062 229.800781 127.6875 231.09375 125.597656 231.710938 C 125.488281 232.496094 124.8125 233.101562 123.996094 233.101562 L 123.179688 233.105469 C 122.28125 233.109375 121.554688 232.382812 121.550781 231.488281 C 121.546875 230.59375 122.273438 229.867188 123.167969 229.863281 L 123.988281 229.859375 C 124.542969 229.859375 125.035156 230.136719 125.328125 230.5625 C 127.144531 230.011719 128.75 228.878906 129.878906 227.324219 C 131.304688 225.351562 131.847656 222.855469 131.359375 220.480469 C 130.902344 218.253906 130.347656 216.246094 129.703125 214.445312 C 129.046875 214.46875 128.417969 214.09375 128.148438 213.457031 C 127.367188 211.59375 126.460938 210.011719 125.464844 208.753906 C 123.484375 206.507812 120.835938 205.273438 118.003906 205.28125 C 115.171875 205.289062 112.53125 206.539062 110.566406 208.800781 C 109.574219 210.0625 108.679688 211.648438 107.910156 213.515625 C 107.644531 214.15625 107.015625 214.535156 106.359375 214.515625 C 105.722656 216.320312 105.179688 218.332031 104.742188 220.558594 C 104.269531 222.941406 104.824219 225.433594 106.261719 227.394531 C 107.363281 228.894531 108.910156 229.992188 110.660156 230.554688 C 110.953125 230.15625 111.425781 229.898438 111.957031 229.898438 L 112.773438 229.894531 C 113.671875 229.890625 114.402344 230.613281 114.402344 231.511719 C 114.40625 232.40625 113.679688 233.132812 112.785156 233.136719 M 86.816406 212.574219 C 86.808594 209.945312 88.945312 207.796875 91.578125 207.789062 C 94.214844 207.78125 96.363281 209.917969 96.371094 212.546875 C 96.378906 215.179688 94.242188 217.324219 91.605469 217.332031 C 88.972656 217.339844 86.824219 215.207031 86.816406 212.574219 M 98.617188 212.539062 C 98.605469 209.304688 96.394531 206.585938 93.40625 205.785156 L 93.382812 197.054688 C 93.378906 196.996094 93.378906 196.933594 93.378906 196.875 C 93.164062 191.9375 84.90625 192.710938 84.90625 192.710938 L 85.746094 192.707031 C 88.160156 192.699219 90.132812 194.65625 90.140625 197.066406 L 90.164062 205.691406 C 86.964844 206.355469 84.558594 209.195312 84.570312 212.582031 C 84.582031 216.449219 87.742188 219.585938 91.613281 219.574219 C 95.488281 219.5625 98.628906 216.40625 98.617188 212.539062 " fill-opacity="1" fill-rule="nonzero"/></g></g></g><g clip-path="url(#d50b682ad6)"><g clip-path="url(#74f396a9ea)"><g clip-path="url(#03892d298f)"><path fill="#11999e" d="M 85.878906 192.707031 C 86.296875 192.71875 86.699219 192.789062 87.082031 192.910156 C 87.070312 192.90625 87.058594 192.902344 87.046875 192.902344 L 87.042969 192.898438 C 86.683594 192.792969 86.308594 192.726562 85.917969 192.710938 C 85.902344 192.710938 85.890625 192.707031 85.878906 192.707031 M 89.808594 162.941406 C 89.816406 162.898438 89.828125 162.855469 89.839844 162.8125 L 89.839844 162.808594 C 89.949219 162.453125 90.015625 162.074219 90.027344 161.683594 C 90.027344 161.675781 90.03125 161.664062 90.03125 161.65625 C 90.019531 162.105469 89.945312 162.535156 89.808594 162.941406 M 90.0625 161.238281 C 90.066406 161.367188 90.070312 161.515625 90.074219 161.683594 C 90.070312 161.515625 90.066406 161.367188 90.0625 161.238281 M 119.457031 196.875 C 119.46875 196.4375 119.542969 196.015625 119.671875 195.617188 C 119.664062 195.640625 119.660156 195.660156 119.65625 195.683594 L 119.652344 195.6875 C 119.542969 196.042969 119.480469 196.421875 119.464844 196.808594 C 119.464844 196.832031 119.460938 196.855469 119.457031 196.875 " fill-opacity="1" fill-rule="nonzero"/></g></g></g><g clip-path="url(#d439ba7e17)"><g clip-path="url(#0b65a61d26)"><g clip-path="url(#b49bfb6bed)"><path fill="#0cc0df" d="M 84.265625 169.140625 C 86.996094 168.117188 89.09375 165.800781 89.808594 162.941406 C 89.945312 162.535156 90.019531 162.105469 90.03125 161.65625 C 90.042969 161.519531 90.054688 161.378906 90.0625 161.238281 C 90.066406 161.367188 90.070312 161.515625 90.074219 161.683594 C 90.074219 161.730469 90.074219 161.773438 90.074219 161.820312 C 90.082031 163.980469 89.695312 168.542969 86.367188 169.101562 C 86.140625 169.125 85.910156 169.136719 85.675781 169.136719 L 84.265625 169.140625 M 86.75 192.675781 C 89.070312 192.761719 92.839844 193.367188 93.34375 196.371094 C 93.355469 196.492188 93.363281 196.613281 93.371094 196.738281 C 93.121094 193.425781 89.164062 192.769531 86.75 192.675781 M 113.613281 161.742188 C 113.847656 165.453125 118.691406 165.871094 120.945312 165.863281 C 121.117188 165.863281 121.277344 165.859375 121.414062 165.855469 C 121.453125 165.859375 121.488281 165.859375 121.527344 165.863281 C 119.777344 165.929688 114.257812 165.84375 113.640625 162.171875 C 113.628906 162.027344 113.617188 161.886719 113.613281 161.742188 M 119.417969 196.671875 C 119.417969 196.078125 119.445312 195.296875 119.558594 194.46875 C 119.867188 192.199219 120.808594 189.570312 123.492188 189.367188 C 123.597656 189.363281 123.707031 189.359375 123.816406 189.359375 L 125.226562 189.355469 C 122.476562 190.386719 120.367188 192.730469 119.671875 195.617188 C 119.542969 196.015625 119.46875 196.4375 119.457031 196.875 C 119.445312 197.007812 119.4375 197.136719 119.433594 197.269531 C 119.425781 197.101562 119.417969 196.902344 119.417969 196.671875 " fill-opacity="1" fill-rule="nonzero"/></g></g></g><g clip-path="url(#c51663ce45)"><g clip-path="url(#7236e8e4d0)"><g clip-path="url(#3f0773251c)"><path fill="#0cc0df" d="M 85.460938 192.679688 C 85.78125 192.667969 86.226562 192.660156 86.75 192.675781 C 89.164062 192.769531 93.121094 193.425781 93.371094 196.738281 C 93.375 196.84375 93.378906 196.949219 93.378906 197.058594 L 93.382812 198.464844 C 92.347656 195.710938 89.988281 193.597656 87.082031 192.910156 C 86.699219 192.789062 86.296875 192.71875 85.878906 192.707031 C 85.738281 192.695312 85.597656 192.683594 85.460938 192.679688 M 90.0625 161.238281 C 90.0625 161.234375 90.0625 161.230469 90.0625 161.226562 C 90.066406 161.359375 90.070312 161.511719 90.074219 161.683594 C 90.070312 161.515625 90.066406 161.367188 90.0625 161.238281 M 113.609375 161.480469 L 113.601562 160.074219 C 114.640625 162.839844 117.015625 164.957031 119.941406 165.636719 L 119.941406 165.640625 C 120.300781 165.75 120.679688 165.8125 121.070312 165.828125 C 121.183594 165.839844 121.296875 165.847656 121.414062 165.855469 C 121.277344 165.859375 121.117188 165.863281 120.945312 165.863281 C 118.691406 165.871094 113.847656 165.453125 113.613281 161.742188 C 113.609375 161.65625 113.609375 161.570312 113.609375 161.480469 M 119.558594 194.46875 C 119.851562 192.300781 120.71875 189.796875 123.128906 189.390625 C 123.246094 189.382812 123.367188 189.375 123.492188 189.367188 C 120.808594 189.570312 119.867188 192.199219 119.558594 194.46875 " fill-opacity="1" fill-rule="nonzero"/></g></g></g><g fill="#11999e" fill-opacity="1"><g transform="translate(172.729006, 198.82588)"><g><path d="M 26.75 -1.703125 C 26.144531 -1.003906 25.492188 -0.503906 24.796875 -0.203125 C 24.203125 0.0664062 23.519531 0.160156 22.75 0.078125 C 21.976562 -0.00390625 21.175781 -0.5 20.34375 -1.40625 C 20.914062 -1.5 21.414062 -1.710938 21.84375 -2.046875 C 22.21875 -2.316406 22.535156 -2.703125 22.796875 -3.203125 C 23.066406 -3.703125 23.164062 -4.367188 23.09375 -5.203125 L 22.90625 -5.5 C 22.769531 -5.726562 22.597656 -6 22.390625 -6.3125 C 22.191406 -6.632812 21.960938 -6.976562 21.703125 -7.34375 C 21.128906 -8.050781 20.4375 -8.742188 19.625 -9.421875 C 18.8125 -10.109375 17.851562 -10.601562 16.75 -10.90625 C 16.25 -11.03125 15.773438 -11.109375 15.328125 -11.140625 C 14.878906 -11.179688 14.4375 -11.203125 14 -11.203125 C 12.9375 -11.203125 12.035156 -11.09375 11.296875 -10.875 C 10.566406 -10.65625 10.019531 -10.460938 9.65625 -10.296875 C 9.414062 -9.660156 9.210938 -9.09375 9.046875 -8.59375 C 8.878906 -8.09375 8.726562 -7.660156 8.59375 -7.296875 C 8.46875 -6.867188 8.320312 -6.488281 8.15625 -6.15625 C 7.78125 -5.082031 7.664062 -4.238281 7.8125 -3.625 C 7.96875 -3.007812 8.210938 -2.535156 8.546875 -2.203125 C 8.910156 -1.835938 9.410156 -1.570312 10.046875 -1.40625 C 9.285156 -0.570312 8.601562 -0.117188 8 -0.046875 C 7.394531 0.015625 6.894531 -0.0820312 6.5 -0.34375 C 6.03125 -0.644531 5.613281 -1.097656 5.25 -1.703125 C 4.71875 -1.035156 4.164062 -0.550781 3.59375 -0.25 C 3.132812 0.0195312 2.632812 0.113281 2.09375 0.03125 C 1.5625 -0.0507812 1.082031 -0.53125 0.65625 -1.40625 C 1.28125 -1.570312 1.894531 -1.835938 2.5 -2.203125 C 3 -2.535156 3.53125 -3.007812 4.09375 -3.625 C 4.664062 -4.238281 5.132812 -5.082031 5.5 -6.15625 C 6.832031 -9.78125 8.066406 -13.144531 9.203125 -16.25 C 9.703125 -17.582031 10.191406 -18.914062 10.671875 -20.25 C 11.160156 -21.582031 11.617188 -22.847656 12.046875 -24.046875 C 12.484375 -25.242188 12.867188 -26.3125 13.203125 -27.25 C 13.535156 -28.1875 13.800781 -28.921875 14 -29.453125 C 14.4375 -30.617188 14.507812 -31.617188 14.21875 -32.453125 C 13.9375 -33.285156 13.210938 -33.882812 12.046875 -34.25 C 12.578125 -35.113281 13.203125 -35.585938 13.921875 -35.671875 C 14.640625 -35.753906 15.332031 -35.664062 16 -35.40625 C 16.769531 -35.101562 17.550781 -34.617188 18.34375 -33.953125 C 18.8125 -34.617188 19.347656 -35.101562 19.953125 -35.40625 C 20.484375 -35.664062 21.125 -35.753906 21.875 -35.671875 C 22.625 -35.585938 23.5 -35.113281 24.5 -34.25 C 23.9375 -34.050781 23.46875 -33.769531 23.09375 -33.40625 C 22.800781 -33.03125 22.570312 -32.539062 22.40625 -31.9375 C 22.238281 -31.34375 22.300781 -30.515625 22.59375 -29.453125 C 22.726562 -28.921875 22.921875 -28.1875 23.171875 -27.25 C 23.421875 -26.3125 23.710938 -25.242188 24.046875 -24.046875 C 24.378906 -22.847656 24.726562 -21.582031 25.09375 -20.25 C 25.46875 -18.914062 25.835938 -17.582031 26.203125 -16.25 C 27.066406 -13.144531 27.984375 -9.78125 28.953125 -6.15625 C 29.210938 -5.082031 29.601562 -4.238281 30.125 -3.625 C 30.644531 -3.007812 31.132812 -2.535156 31.59375 -2.203125 C 32.164062 -1.835938 32.769531 -1.570312 33.40625 -1.40625 C 32.863281 -0.53125 32.21875 -0.0507812 31.46875 0.03125 C 30.71875 0.113281 29.992188 0.0195312 29.296875 -0.25 C 28.460938 -0.550781 27.613281 -1.035156 26.75 -1.703125 Z M 17.296875 -12.90625 C 18.203125 -12.632812 19.019531 -12.28125 19.75 -11.84375 C 20.476562 -11.414062 21.128906 -10.953125 21.703125 -10.453125 L 16.59375 -29.296875 C 16.332031 -28.628906 15.972656 -27.671875 15.515625 -26.421875 C 15.066406 -25.171875 14.566406 -23.785156 14.015625 -22.265625 C 13.472656 -20.753906 12.898438 -19.171875 12.296875 -17.515625 C 11.703125 -15.867188 11.132812 -14.332031 10.59375 -12.90625 C 11.0625 -13.03125 11.578125 -13.132812 12.140625 -13.21875 C 12.710938 -13.300781 13.332031 -13.34375 14 -13.34375 C 15 -13.34375 16.097656 -13.195312 17.296875 -12.90625 Z M 23.65625 -29.75 C 23.488281 -30.25 23.40625 -30.796875 23.40625 -31.390625 C 23.40625 -31.992188 23.632812 -32.5 24.09375 -32.90625 C 24.394531 -33.195312 24.8125 -33.367188 25.34375 -33.421875 C 25.882812 -33.472656 26.367188 -33.53125 26.796875 -33.59375 C 25.929688 -34.363281 25.398438 -34.832031 25.203125 -35 C 25.003906 -35.164062 24.882812 -35.265625 24.84375 -35.296875 C 24.976562 -35.234375 25.128906 -35.160156 25.296875 -35.078125 C 25.460938 -34.992188 25.671875 -34.859375 25.921875 -34.671875 C 26.171875 -34.492188 26.46875 -34.253906 26.8125 -33.953125 C 27.164062 -33.648438 27.59375 -33.25 28.09375 -32.75 C 27.726562 -32.6875 27.253906 -32.628906 26.671875 -32.578125 C 26.085938 -32.523438 25.644531 -32.347656 25.34375 -32.046875 C 24.914062 -31.679688 24.691406 -31.195312 24.671875 -30.59375 C 24.660156 -30 24.738281 -29.4375 24.90625 -28.90625 L 28.5 -15.703125 C 28.863281 -14.335938 29.203125 -13.050781 29.515625 -11.84375 C 29.835938 -10.644531 30.132812 -9.582031 30.40625 -8.65625 C 30.695312 -7.550781 30.976562 -6.53125 31.25 -5.59375 C 31.414062 -4.863281 31.65625 -4.265625 31.96875 -3.796875 C 32.289062 -3.328125 32.617188 -2.960938 32.953125 -2.703125 C 32.816406 -2.765625 32.671875 -2.828125 32.515625 -2.890625 C 32.367188 -2.960938 32.210938 -3.082031 32.046875 -3.25 C 31.679688 -3.519531 31.304688 -3.90625 30.921875 -4.40625 C 30.535156 -4.90625 30.210938 -5.585938 29.953125 -6.453125 C 29.710938 -7.378906 29.445312 -8.394531 29.15625 -9.5 C 28.882812 -10.4375 28.585938 -11.503906 28.265625 -12.703125 C 27.953125 -13.898438 27.613281 -15.179688 27.25 -16.546875 Z M 16.453125 -25.796875 L 17.15625 -23.296875 L 13.90625 -14.40625 C 13.601562 -14.40625 13.328125 -14.394531 13.078125 -14.375 C 12.828125 -14.351562 12.566406 -14.328125 12.296875 -14.296875 Z M 14 -10.15625 C 14.769531 -10.15625 15.601562 -10.050781 16.5 -9.84375 C 17.5 -9.550781 18.382812 -9.070312 19.15625 -8.40625 C 18.78125 -8.632812 18.3125 -8.832031 17.75 -9 C 16.851562 -9.195312 16.035156 -9.296875 15.296875 -9.296875 L 15.15625 -9.296875 C 14.414062 -9.296875 13.753906 -9.21875 13.171875 -9.0625 C 12.585938 -8.914062 12.113281 -8.78125 11.75 -8.65625 C 11.550781 -8.082031 11.367188 -7.570312 11.203125 -7.125 C 11.035156 -6.675781 10.898438 -6.285156 10.796875 -5.953125 C 10.660156 -5.585938 10.546875 -5.253906 10.453125 -4.953125 C 10.210938 -4.347656 10.09375 -3.832031 10.09375 -3.40625 C 10.09375 -3.03125 10.175781 -2.710938 10.34375 -2.453125 C 9.914062 -2.453125 9.566406 -2.640625 9.296875 -3.015625 C 9.035156 -3.398438 8.882812 -3.8125 8.84375 -4.25 C 8.84375 -4.445312 8.859375 -4.671875 8.890625 -4.921875 C 8.929688 -5.171875 9.035156 -5.460938 9.203125 -5.796875 C 9.296875 -6.097656 9.410156 -6.429688 9.546875 -6.796875 C 9.648438 -7.128906 9.785156 -7.519531 9.953125 -7.96875 C 10.117188 -8.425781 10.300781 -8.9375 10.5 -9.5 C 10.863281 -9.632812 11.34375 -9.773438 11.9375 -9.921875 C 12.539062 -10.078125 13.226562 -10.15625 14 -10.15625 Z M 36.40625 -1.34375 L 35.59375 0 C 35.195312 0.664062 34.679688 1.15625 34.046875 1.46875 C 33.410156 1.789062 32.78125 1.953125 32.15625 1.953125 C 31.488281 1.953125 30.878906 1.847656 30.328125 1.640625 C 29.773438 1.441406 29.265625 1.210938 28.796875 0.953125 L 28.15625 0.546875 L 27.703125 0.90625 C 27.335938 1.164062 26.894531 1.421875 26.375 1.671875 C 25.851562 1.921875 25.257812 2.046875 24.59375 2.046875 C 24.09375 2.046875 23.578125 1.945312 23.046875 1.75 C 22.515625 1.550781 22 1.21875 21.5 0.75 C 22.101562 1.050781 22.71875 1.203125 23.34375 1.203125 C 24.007812 1.203125 24.601562 1.078125 25.125 0.828125 C 25.644531 0.578125 26.085938 0.316406 26.453125 0.046875 L 26.84375 -0.296875 L 27.546875 0.09375 C 28.015625 0.363281 28.523438 0.597656 29.078125 0.796875 C 29.628906 0.992188 30.238281 1.09375 30.90625 1.09375 C 31.53125 1.09375 32.160156 0.9375 32.796875 0.625 C 33.429688 0.3125 33.945312 -0.175781 34.34375 -0.84375 L 34.75 -1.59375 Z M 11.75 -1.546875 L 13.5 -1.25 L 12.15625 0.15625 C 11.050781 1.320312 9.945312 1.90625 8.84375 1.90625 C 8.28125 1.863281 7.796875 1.734375 7.390625 1.515625 C 6.992188 1.304688 6.664062 1.082031 6.40625 0.84375 C 6.570312 0.914062 6.753906 0.957031 6.953125 0.96875 C 7.148438 0.988281 7.347656 1.015625 7.546875 1.046875 C 8.617188 1.046875 9.738281 0.460938 10.90625 -0.703125 Z M 5.09375 -0.046875 C 5.257812 0.117188 5.441406 0.273438 5.640625 0.421875 C 5.847656 0.578125 6.082031 0.703125 6.34375 0.796875 C 6.050781 1.066406 5.695312 1.328125 5.28125 1.578125 C 4.863281 1.828125 4.351562 1.953125 3.75 1.953125 C 3.050781 1.984375 2.367188 1.664062 1.703125 1 C 1.835938 1.03125 1.960938 1.050781 2.078125 1.0625 C 2.191406 1.082031 2.332031 1.09375 2.5 1.09375 C 3.0625 1.09375 3.550781 0.96875 3.96875 0.71875 C 4.382812 0.46875 4.742188 0.226562 5.046875 0 Z M 24.5 -19.453125 C 24.5 -19.679688 24.398438 -19.796875 24.203125 -19.796875 L 20.84375 -19.796875 C 20.644531 -19.796875 20.546875 -19.679688 20.546875 -19.453125 C 20.546875 -19.253906 20.644531 -19.15625 20.84375 -19.15625 L 24.203125 -19.15625 C 24.398438 -19.15625 24.5 -19.253906 24.5 -19.453125 Z M 25.09375 -17 C 25.09375 -17.226562 24.992188 -17.34375 24.796875 -17.34375 L 21.546875 -17.34375 C 21.316406 -17.34375 21.203125 -17.226562 21.203125 -17 C 21.203125 -16.800781 21.316406 -16.703125 21.546875 -16.703125 L 24.796875 -16.703125 C 24.992188 -16.703125 25.09375 -16.800781 25.09375 -17 Z M 23.796875 -21.90625 C 23.796875 -22.070312 23.710938 -22.15625 23.546875 -22.15625 L 20.25 -22.15625 C 20.050781 -22.15625 19.953125 -22.070312 19.953125 -21.90625 C 19.953125 -21.695312 20.050781 -21.59375 20.25 -21.59375 L 23.546875 -21.59375 C 23.710938 -21.59375 23.796875 -21.695312 23.796875 -21.90625 Z M 19.59375 -24.5 C 19.425781 -24.5 19.34375 -24.414062 19.34375 -24.25 C 19.34375 -24.050781 19.425781 -23.953125 19.59375 -23.953125 L 22.90625 -23.953125 C 23.070312 -23.953125 23.15625 -24.050781 23.15625 -24.25 C 23.15625 -24.414062 23.070312 -24.5 22.90625 -24.5 Z M 26.09375 -12 C 26.257812 -12 26.34375 -12.082031 26.34375 -12.25 C 26.34375 -12.445312 26.257812 -12.546875 26.09375 -12.546875 L 22.796875 -12.546875 C 22.597656 -12.546875 22.5 -12.445312 22.5 -12.25 C 22.5 -12.082031 22.597656 -12 22.796875 -12 Z M 21.90625 -14.59375 C 21.90625 -14.425781 22.003906 -14.34375 22.203125 -14.34375 L 25.453125 -14.34375 C 25.617188 -14.34375 25.703125 -14.425781 25.703125 -14.59375 C 25.703125 -14.800781 25.617188 -14.90625 25.453125 -14.90625 L 22.203125 -14.90625 C 22.003906 -14.90625 21.90625 -14.800781 21.90625 -14.59375 Z M 15.703125 -32.40625 C 15.597656 -32.40625 15.546875 -32.335938 15.546875 -32.203125 C 15.546875 -32.097656 15.597656 -32.046875 15.703125 -32.046875 L 20.796875 -32.046875 C 20.898438 -32.046875 20.953125 -32.097656 20.953125 -32.203125 C 20.953125 -32.335938 20.898438 -32.40625 20.796875 -32.40625 Z M 27.40625 -8.046875 C 27.40625 -8.179688 27.335938 -8.25 27.203125 -8.25 L 23.953125 -8.25 C 23.785156 -8.25 23.703125 -8.179688 23.703125 -8.046875 C 23.703125 -7.878906 23.785156 -7.796875 23.953125 -7.796875 L 27.203125 -7.796875 C 27.335938 -7.796875 27.40625 -7.878906 27.40625 -8.046875 Z M 23.25 -9.84375 C 23.25 -9.71875 23.300781 -9.65625 23.40625 -9.65625 L 26.75 -9.65625 C 26.882812 -9.65625 26.953125 -9.71875 26.953125 -9.84375 C 26.953125 -9.976562 26.882812 -10.046875 26.75 -10.046875 L 23.40625 -10.046875 C 23.300781 -10.046875 23.25 -9.976562 23.25 -9.84375 Z M 22.5 -26.65625 C 22.5 -26.78125 22.414062 -26.84375 22.25 -26.84375 L 19 -26.84375 C 18.863281 -26.84375 18.796875 -26.78125 18.796875 -26.65625 C 18.796875 -26.519531 18.863281 -26.453125 19 -26.453125 L 22.25 -26.453125 C 22.414062 -26.453125 22.5 -26.519531 22.5 -26.65625 Z M 21.953125 -28.453125 C 21.953125 -28.617188 21.882812 -28.703125 21.75 -28.703125 L 18.5 -28.703125 C 18.332031 -28.703125 18.25 -28.617188 18.25 -28.453125 C 18.25 -28.316406 18.332031 -28.25 18.5 -28.25 L 21.75 -28.25 C 21.882812 -28.25 21.953125 -28.316406 21.953125 -28.453125 Z M 28.40625 -4.296875 C 28.40625 -4.398438 28.335938 -4.453125 28.203125 -4.453125 L 24.90625 -4.453125 C 24.800781 -4.453125 24.75 -4.398438 24.75 -4.296875 C 24.75 -4.160156 24.800781 -4.09375 24.90625 -4.09375 L 28.203125 -4.09375 C 28.335938 -4.09375 28.40625 -4.160156 28.40625 -4.296875 Z M 21.453125 -30.34375 C 21.453125 -30.445312 21.382812 -30.5 21.25 -30.5 L 18 -30.5 C 17.863281 -30.5 17.796875 -30.445312 17.796875 -30.34375 C 17.796875 -30.21875 17.863281 -30.15625 18 -30.15625 L 21.25 -30.15625 C 21.382812 -30.15625 21.453125 -30.21875 21.453125 -30.34375 Z M 27.90625 -6.15625 C 27.90625 -6.28125 27.835938 -6.34375 27.703125 -6.34375 L 24.453125 -6.34375 C 24.316406 -6.34375 24.25 -6.28125 24.25 -6.15625 C 24.25 -6.050781 24.316406 -6 24.453125 -6 L 27.703125 -6 C 27.835938 -6 27.90625 -6.050781 27.90625 -6.15625 Z M 10.296875 -17.34375 C 10.066406 -17.34375 9.953125 -17.226562 9.953125 -17 C 9.953125 -16.800781 10.066406 -16.703125 10.296875 -16.703125 L 11 -16.703125 C 11.226562 -16.703125 11.34375 -16.800781 11.34375 -17 C 11.34375 -17.226562 11.226562 -17.34375 11 -17.34375 Z M 11.203125 -19.796875 C 10.960938 -19.796875 10.84375 -19.679688 10.84375 -19.453125 C 10.84375 -19.253906 10.960938 -19.15625 11.203125 -19.15625 L 11.90625 -19.15625 C 12.101562 -19.15625 12.203125 -19.253906 12.203125 -19.453125 C 12.203125 -19.679688 12.101562 -19.796875 11.90625 -19.796875 Z M 12.90625 -24.5 C 12.695312 -24.5 12.59375 -24.414062 12.59375 -24.25 C 12.59375 -24.050781 12.695312 -23.953125 12.90625 -23.953125 L 13.59375 -23.953125 C 13.800781 -23.953125 13.90625 -24.050781 13.90625 -24.25 C 13.90625 -24.414062 13.800781 -24.5 13.59375 -24.5 Z M 9.296875 -12 C 9.460938 -12 9.546875 -12.082031 9.546875 -12.25 C 9.546875 -12.445312 9.460938 -12.546875 9.296875 -12.546875 L 8.59375 -12.546875 C 8.394531 -12.546875 8.296875 -12.445312 8.296875 -12.25 C 8.296875 -12.082031 8.394531 -12 8.59375 -12 Z M 12.046875 -22.15625 C 11.847656 -22.15625 11.75 -22.070312 11.75 -21.90625 C 11.75 -21.695312 11.847656 -21.59375 12.046875 -21.59375 L 12.75 -21.59375 C 12.914062 -21.59375 13 -21.695312 13 -21.90625 C 13 -22.070312 12.914062 -22.15625 12.75 -22.15625 Z M 10.15625 -14.34375 C 10.320312 -14.34375 10.40625 -14.425781 10.40625 -14.59375 C 10.40625 -14.800781 10.320312 -14.90625 10.15625 -14.90625 L 9.453125 -14.90625 C 9.253906 -14.90625 9.15625 -14.800781 9.15625 -14.59375 C 9.15625 -14.425781 9.253906 -14.34375 9.453125 -14.34375 Z M 12.84375 -32.703125 C 12.914062 -32.628906 12.96875 -32.566406 13 -32.515625 C 13.03125 -32.472656 13.082031 -32.414062 13.15625 -32.34375 L 11.65625 -32.59375 L 12 -33.15625 C 12.332031 -33.082031 12.613281 -32.929688 12.84375 -32.703125 Z M 7.796875 -7.796875 C 7.929688 -7.796875 8 -7.878906 8 -8.046875 C 8 -8.179688 7.929688 -8.25 7.796875 -8.25 L 7.046875 -8.25 C 6.910156 -8.25 6.84375 -8.179688 6.84375 -8.046875 C 6.84375 -7.878906 6.910156 -7.796875 7.046875 -7.796875 Z M 13.75 -26.84375 C 13.582031 -26.84375 13.5 -26.78125 13.5 -26.65625 C 13.5 -26.519531 13.582031 -26.453125 13.75 -26.453125 L 14.453125 -26.453125 C 14.585938 -26.453125 14.65625 -26.519531 14.65625 -26.65625 C 14.65625 -26.78125 14.585938 -26.84375 14.453125 -26.84375 Z M 8.453125 -9.65625 C 8.585938 -9.65625 8.65625 -9.71875 8.65625 -9.84375 C 8.65625 -9.976562 8.585938 -10.046875 8.453125 -10.046875 L 7.75 -10.046875 C 7.582031 -10.046875 7.5 -9.976562 7.5 -9.84375 C 7.5 -9.71875 7.582031 -9.65625 7.75 -9.65625 Z M 14.40625 -28.703125 C 14.269531 -28.703125 14.203125 -28.617188 14.203125 -28.453125 C 14.203125 -28.316406 14.269531 -28.25 14.40625 -28.25 L 15.15625 -28.25 C 15.28125 -28.25 15.34375 -28.316406 15.34375 -28.453125 C 15.34375 -28.617188 15.28125 -28.703125 15.15625 -28.703125 Z M 15.046875 -30.5 C 14.910156 -30.5 14.84375 -30.445312 14.84375 -30.34375 C 14.84375 -30.21875 14.910156 -30.15625 15.046875 -30.15625 L 15.796875 -30.15625 C 15.929688 -30.15625 16 -30.21875 16 -30.34375 C 16 -30.445312 15.929688 -30.5 15.796875 -30.5 Z M 6.453125 -4.09375 C 6.585938 -4.09375 6.65625 -4.160156 6.65625 -4.296875 C 6.65625 -4.398438 6.585938 -4.453125 6.453125 -4.453125 L 5.75 -4.453125 C 5.613281 -4.453125 5.546875 -4.398438 5.546875 -4.296875 C 5.546875 -4.160156 5.613281 -4.09375 5.75 -4.09375 Z M 7.09375 -6 C 7.195312 -6 7.25 -6.050781 7.25 -6.15625 C 7.25 -6.28125 7.195312 -6.34375 7.09375 -6.34375 L 6.34375 -6.34375 C 6.25 -6.34375 6.203125 -6.28125 6.203125 -6.15625 C 6.203125 -6.050781 6.25 -6 6.34375 -6 Z M 7.09375 -6 "/></g></g></g><g fill="#11999e" fill-opacity="1"><g transform="translate(215.023752, 198.82588)"><g><path d="M 26.75 -1.703125 C 26.144531 -1.003906 25.492188 -0.503906 24.796875 -0.203125 C 24.203125 0.0664062 23.519531 0.160156 22.75 0.078125 C 21.976562 -0.00390625 21.175781 -0.5 20.34375 -1.40625 C 20.914062 -1.5 21.414062 -1.710938 21.84375 -2.046875 C 22.21875 -2.316406 22.535156 -2.703125 22.796875 -3.203125 C 23.066406 -3.703125 23.164062 -4.367188 23.09375 -5.203125 L 22.90625 -5.5 C 22.769531 -5.726562 22.597656 -6 22.390625 -6.3125 C 22.191406 -6.632812 21.960938 -6.976562 21.703125 -7.34375 C 21.128906 -8.050781 20.4375 -8.742188 19.625 -9.421875 C 18.8125 -10.109375 17.851562 -10.601562 16.75 -10.90625 C 16.25 -11.03125 15.773438 -11.109375 15.328125 -11.140625 C 14.878906 -11.179688 14.4375 -11.203125 14 -11.203125 C 12.9375 -11.203125 12.035156 -11.09375 11.296875 -10.875 C 10.566406 -10.65625 10.019531 -10.460938 9.65625 -10.296875 C 9.414062 -9.660156 9.210938 -9.09375 9.046875 -8.59375 C 8.878906 -8.09375 8.726562 -7.660156 8.59375 -7.296875 C 8.46875 -6.867188 8.320312 -6.488281 8.15625 -6.15625 C 7.78125 -5.082031 7.664062 -4.238281 7.8125 -3.625 C 7.96875 -3.007812 8.210938 -2.535156 8.546875 -2.203125 C 8.910156 -1.835938 9.410156 -1.570312 10.046875 -1.40625 C 9.285156 -0.570312 8.601562 -0.117188 8 -0.046875 C 7.394531 0.015625 6.894531 -0.0820312 6.5 -0.34375 C 6.03125 -0.644531 5.613281 -1.097656 5.25 -1.703125 C 4.71875 -1.035156 4.164062 -0.550781 3.59375 -0.25 C 3.132812 0.0195312 2.632812 0.113281 2.09375 0.03125 C 1.5625 -0.0507812 1.082031 -0.53125 0.65625 -1.40625 C 1.28125 -1.570312 1.894531 -1.835938 2.5 -2.203125 C 3 -2.535156 3.53125 -3.007812 4.09375 -3.625 C 4.664062 -4.238281 5.132812 -5.082031 5.5 -6.15625 C 6.832031 -9.78125 8.066406 -13.144531 9.203125 -16.25 C 9.703125 -17.582031 10.191406 -18.914062 10.671875 -20.25 C 11.160156 -21.582031 11.617188 -22.847656 12.046875 -24.046875 C 12.484375 -25.242188 12.867188 -26.3125 13.203125 -27.25 C 13.535156 -28.1875 13.800781 -28.921875 14 -29.453125 C 14.4375 -30.617188 14.507812 -31.617188 14.21875 -32.453125 C 13.9375 -33.285156 13.210938 -33.882812 12.046875 -34.25 C 12.578125 -35.113281 13.203125 -35.585938 13.921875 -35.671875 C 14.640625 -35.753906 15.332031 -35.664062 16 -35.40625 C 16.769531 -35.101562 17.550781 -34.617188 18.34375 -33.953125 C 18.8125 -34.617188 19.347656 -35.101562 19.953125 -35.40625 C 20.484375 -35.664062 21.125 -35.753906 21.875 -35.671875 C 22.625 -35.585938 23.5 -35.113281 24.5 -34.25 C 23.9375 -34.050781 23.46875 -33.769531 23.09375 -33.40625 C 22.800781 -33.03125 22.570312 -32.539062 22.40625 -31.9375 C 22.238281 -31.34375 22.300781 -30.515625 22.59375 -29.453125 C 22.726562 -28.921875 22.921875 -28.1875 23.171875 -27.25 C 23.421875 -26.3125 23.710938 -25.242188 24.046875 -24.046875 C 24.378906 -22.847656 24.726562 -21.582031 25.09375 -20.25 C 25.46875 -18.914062 25.835938 -17.582031 26.203125 -16.25 C 27.066406 -13.144531 27.984375 -9.78125 28.953125 -6.15625 C 29.210938 -5.082031 29.601562 -4.238281 30.125 -3.625 C 30.644531 -3.007812 31.132812 -2.535156 31.59375 -2.203125 C 32.164062 -1.835938 32.769531 -1.570312 33.40625 -1.40625 C 32.863281 -0.53125 32.21875 -0.0507812 31.46875 0.03125 C 30.71875 0.113281 29.992188 0.0195312 29.296875 -0.25 C 28.460938 -0.550781 27.613281 -1.035156 26.75 -1.703125 Z M 17.296875 -12.90625 C 18.203125 -12.632812 19.019531 -12.28125 19.75 -11.84375 C 20.476562 -11.414062 21.128906 -10.953125 21.703125 -10.453125 L 16.59375 -29.296875 C 16.332031 -28.628906 15.972656 -27.671875 15.515625 -26.421875 C 15.066406 -25.171875 14.566406 -23.785156 14.015625 -22.265625 C 13.472656 -20.753906 12.898438 -19.171875 12.296875 -17.515625 C 11.703125 -15.867188 11.132812 -14.332031 10.59375 -12.90625 C 11.0625 -13.03125 11.578125 -13.132812 12.140625 -13.21875 C 12.710938 -13.300781 13.332031 -13.34375 14 -13.34375 C 15 -13.34375 16.097656 -13.195312 17.296875 -12.90625 Z M 23.65625 -29.75 C 23.488281 -30.25 23.40625 -30.796875 23.40625 -31.390625 C 23.40625 -31.992188 23.632812 -32.5 24.09375 -32.90625 C 24.394531 -33.195312 24.8125 -33.367188 25.34375 -33.421875 C 25.882812 -33.472656 26.367188 -33.53125 26.796875 -33.59375 C 25.929688 -34.363281 25.398438 -34.832031 25.203125 -35 C 25.003906 -35.164062 24.882812 -35.265625 24.84375 -35.296875 C 24.976562 -35.234375 25.128906 -35.160156 25.296875 -35.078125 C 25.460938 -34.992188 25.671875 -34.859375 25.921875 -34.671875 C 26.171875 -34.492188 26.46875 -34.253906 26.8125 -33.953125 C 27.164062 -33.648438 27.59375 -33.25 28.09375 -32.75 C 27.726562 -32.6875 27.253906 -32.628906 26.671875 -32.578125 C 26.085938 -32.523438 25.644531 -32.347656 25.34375 -32.046875 C 24.914062 -31.679688 24.691406 -31.195312 24.671875 -30.59375 C 24.660156 -30 24.738281 -29.4375 24.90625 -28.90625 L 28.5 -15.703125 C 28.863281 -14.335938 29.203125 -13.050781 29.515625 -11.84375 C 29.835938 -10.644531 30.132812 -9.582031 30.40625 -8.65625 C 30.695312 -7.550781 30.976562 -6.53125 31.25 -5.59375 C 31.414062 -4.863281 31.65625 -4.265625 31.96875 -3.796875 C 32.289062 -3.328125 32.617188 -2.960938 32.953125 -2.703125 C 32.816406 -2.765625 32.671875 -2.828125 32.515625 -2.890625 C 32.367188 -2.960938 32.210938 -3.082031 32.046875 -3.25 C 31.679688 -3.519531 31.304688 -3.90625 30.921875 -4.40625 C 30.535156 -4.90625 30.210938 -5.585938 29.953125 -6.453125 C 29.710938 -7.378906 29.445312 -8.394531 29.15625 -9.5 C 28.882812 -10.4375 28.585938 -11.503906 28.265625 -12.703125 C 27.953125 -13.898438 27.613281 -15.179688 27.25 -16.546875 Z M 16.453125 -25.796875 L 17.15625 -23.296875 L 13.90625 -14.40625 C 13.601562 -14.40625 13.328125 -14.394531 13.078125 -14.375 C 12.828125 -14.351562 12.566406 -14.328125 12.296875 -14.296875 Z M 14 -10.15625 C 14.769531 -10.15625 15.601562 -10.050781 16.5 -9.84375 C 17.5 -9.550781 18.382812 -9.070312 19.15625 -8.40625 C 18.78125 -8.632812 18.3125 -8.832031 17.75 -9 C 16.851562 -9.195312 16.035156 -9.296875 15.296875 -9.296875 L 15.15625 -9.296875 C 14.414062 -9.296875 13.753906 -9.21875 13.171875 -9.0625 C 12.585938 -8.914062 12.113281 -8.78125 11.75 -8.65625 C 11.550781 -8.082031 11.367188 -7.570312 11.203125 -7.125 C 11.035156 -6.675781 10.898438 -6.285156 10.796875 -5.953125 C 10.660156 -5.585938 10.546875 -5.253906 10.453125 -4.953125 C 10.210938 -4.347656 10.09375 -3.832031 10.09375 -3.40625 C 10.09375 -3.03125 10.175781 -2.710938 10.34375 -2.453125 C 9.914062 -2.453125 9.566406 -2.640625 9.296875 -3.015625 C 9.035156 -3.398438 8.882812 -3.8125 8.84375 -4.25 C 8.84375 -4.445312 8.859375 -4.671875 8.890625 -4.921875 C 8.929688 -5.171875 9.035156 -5.460938 9.203125 -5.796875 C 9.296875 -6.097656 9.410156 -6.429688 9.546875 -6.796875 C 9.648438 -7.128906 9.785156 -7.519531 9.953125 -7.96875 C 10.117188 -8.425781 10.300781 -8.9375 10.5 -9.5 C 10.863281 -9.632812 11.34375 -9.773438 11.9375 -9.921875 C 12.539062 -10.078125 13.226562 -10.15625 14 -10.15625 Z M 36.40625 -1.34375 L 35.59375 0 C 35.195312 0.664062 34.679688 1.15625 34.046875 1.46875 C 33.410156 1.789062 32.78125 1.953125 32.15625 1.953125 C 31.488281 1.953125 30.878906 1.847656 30.328125 1.640625 C 29.773438 1.441406 29.265625 1.210938 28.796875 0.953125 L 28.15625 0.546875 L 27.703125 0.90625 C 27.335938 1.164062 26.894531 1.421875 26.375 1.671875 C 25.851562 1.921875 25.257812 2.046875 24.59375 2.046875 C 24.09375 2.046875 23.578125 1.945312 23.046875 1.75 C 22.515625 1.550781 22 1.21875 21.5 0.75 C 22.101562 1.050781 22.71875 1.203125 23.34375 1.203125 C 24.007812 1.203125 24.601562 1.078125 25.125 0.828125 C 25.644531 0.578125 26.085938 0.316406 26.453125 0.046875 L 26.84375 -0.296875 L 27.546875 0.09375 C 28.015625 0.363281 28.523438 0.597656 29.078125 0.796875 C 29.628906 0.992188 30.238281 1.09375 30.90625 1.09375 C 31.53125 1.09375 32.160156 0.9375 32.796875 0.625 C 33.429688 0.3125 33.945312 -0.175781 34.34375 -0.84375 L 34.75 -1.59375 Z M 11.75 -1.546875 L 13.5 -1.25 L 12.15625 0.15625 C 11.050781 1.320312 9.945312 1.90625 8.84375 1.90625 C 8.28125 1.863281 7.796875 1.734375 7.390625 1.515625 C 6.992188 1.304688 6.664062 1.082031 6.40625 0.84375 C 6.570312 0.914062 6.753906 0.957031 6.953125 0.96875 C 7.148438 0.988281 7.347656 1.015625 7.546875 1.046875 C 8.617188 1.046875 9.738281 0.460938 10.90625 -0.703125 Z M 5.09375 -0.046875 C 5.257812 0.117188 5.441406 0.273438 5.640625 0.421875 C 5.847656 0.578125 6.082031 0.703125 6.34375 0.796875 C 6.050781 1.066406 5.695312 1.328125 5.28125 1.578125 C 4.863281 1.828125 4.351562 1.953125 3.75 1.953125 C 3.050781 1.984375 2.367188 1.664062 1.703125 1 C 1.835938 1.03125 1.960938 1.050781 2.078125 1.0625 C 2.191406 1.082031 2.332031 1.09375 2.5 1.09375 C 3.0625 1.09375 3.550781 0.96875 3.96875 0.71875 C 4.382812 0.46875 4.742188 0.226562 5.046875 0 Z M 24.5 -19.453125 C 24.5 -19.679688 24.398438 -19.796875 24.203125 -19.796875 L 20.84375 -19.796875 C 20.644531 -19.796875 20.546875 -19.679688 20.546875 -19.453125 C 20.546875 -19.253906 20.644531 -19.15625 20.84375 -19.15625 L 24.203125 -19.15625 C 24.398438 -19.15625 24.5 -19.253906 24.5 -19.453125 Z M 25.09375 -17 C 25.09375 -17.226562 24.992188 -17.34375 24.796875 -17.34375 L 21.546875 -17.34375 C 21.316406 -17.34375 21.203125 -17.226562 21.203125 -17 C 21.203125 -16.800781 21.316406 -16.703125 21.546875 -16.703125 L 24.796875 -16.703125 C 24.992188 -16.703125 25.09375 -16.800781 25.09375 -17 Z M 23.796875 -21.90625 C 23.796875 -22.070312 23.710938 -22.15625 23.546875 -22.15625 L 20.25 -22.15625 C 20.050781 -22.15625 19.953125 -22.070312 19.953125 -21.90625 C 19.953125 -21.695312 20.050781 -21.59375 20.25 -21.59375 L 23.546875 -21.59375 C 23.710938 -21.59375 23.796875 -21.695312 23.796875 -21.90625 Z M 19.59375 -24.5 C 19.425781 -24.5 19.34375 -24.414062 19.34375 -24.25 C 19.34375 -24.050781 19.425781 -23.953125 19.59375 -23.953125 L 22.90625 -23.953125 C 23.070312 -23.953125 23.15625 -24.050781 23.15625 -24.25 C 23.15625 -24.414062 23.070312 -24.5 22.90625 -24.5 Z M 26.09375 -12 C 26.257812 -12 26.34375 -12.082031 26.34375 -12.25 C 26.34375 -12.445312 26.257812 -12.546875 26.09375 -12.546875 L 22.796875 -12.546875 C 22.597656 -12.546875 22.5 -12.445312 22.5 -12.25 C 22.5 -12.082031 22.597656 -12 22.796875 -12 Z M 21.90625 -14.59375 C 21.90625 -14.425781 22.003906 -14.34375 22.203125 -14.34375 L 25.453125 -14.34375 C 25.617188 -14.34375 25.703125 -14.425781 25.703125 -14.59375 C 25.703125 -14.800781 25.617188 -14.90625 25.453125 -14.90625 L 22.203125 -14.90625 C 22.003906 -14.90625 21.90625 -14.800781 21.90625 -14.59375 Z M 15.703125 -32.40625 C 15.597656 -32.40625 15.546875 -32.335938 15.546875 -32.203125 C 15.546875 -32.097656 15.597656 -32.046875 15.703125 -32.046875 L 20.796875 -32.046875 C 20.898438 -32.046875 20.953125 -32.097656 20.953125 -32.203125 C 20.953125 -32.335938 20.898438 -32.40625 20.796875 -32.40625 Z M 27.40625 -8.046875 C 27.40625 -8.179688 27.335938 -8.25 27.203125 -8.25 L 23.953125 -8.25 C 23.785156 -8.25 23.703125 -8.179688 23.703125 -8.046875 C 23.703125 -7.878906 23.785156 -7.796875 23.953125 -7.796875 L 27.203125 -7.796875 C 27.335938 -7.796875 27.40625 -7.878906 27.40625 -8.046875 Z M 23.25 -9.84375 C 23.25 -9.71875 23.300781 -9.65625 23.40625 -9.65625 L 26.75 -9.65625 C 26.882812 -9.65625 26.953125 -9.71875 26.953125 -9.84375 C 26.953125 -9.976562 26.882812 -10.046875 26.75 -10.046875 L 23.40625 -10.046875 C 23.300781 -10.046875 23.25 -9.976562 23.25 -9.84375 Z M 22.5 -26.65625 C 22.5 -26.78125 22.414062 -26.84375 22.25 -26.84375 L 19 -26.84375 C 18.863281 -26.84375 18.796875 -26.78125 18.796875 -26.65625 C 18.796875 -26.519531 18.863281 -26.453125 19 -26.453125 L 22.25 -26.453125 C 22.414062 -26.453125 22.5 -26.519531 22.5 -26.65625 Z M 21.953125 -28.453125 C 21.953125 -28.617188 21.882812 -28.703125 21.75 -28.703125 L 18.5 -28.703125 C 18.332031 -28.703125 18.25 -28.617188 18.25 -28.453125 C 18.25 -28.316406 18.332031 -28.25 18.5 -28.25 L 21.75 -28.25 C 21.882812 -28.25 21.953125 -28.316406 21.953125 -28.453125 Z M 28.40625 -4.296875 C 28.40625 -4.398438 28.335938 -4.453125 28.203125 -4.453125 L 24.90625 -4.453125 C 24.800781 -4.453125 24.75 -4.398438 24.75 -4.296875 C 24.75 -4.160156 24.800781 -4.09375 24.90625 -4.09375 L 28.203125 -4.09375 C 28.335938 -4.09375 28.40625 -4.160156 28.40625 -4.296875 Z M 21.453125 -30.34375 C 21.453125 -30.445312 21.382812 -30.5 21.25 -30.5 L 18 -30.5 C 17.863281 -30.5 17.796875 -30.445312 17.796875 -30.34375 C 17.796875 -30.21875 17.863281 -30.15625 18 -30.15625 L 21.25 -30.15625 C 21.382812 -30.15625 21.453125 -30.21875 21.453125 -30.34375 Z M 27.90625 -6.15625 C 27.90625 -6.28125 27.835938 -6.34375 27.703125 -6.34375 L 24.453125 -6.34375 C 24.316406 -6.34375 24.25 -6.28125 24.25 -6.15625 C 24.25 -6.050781 24.316406 -6 24.453125 -6 L 27.703125 -6 C 27.835938 -6 27.90625 -6.050781 27.90625 -6.15625 Z M 10.296875 -17.34375 C 10.066406 -17.34375 9.953125 -17.226562 9.953125 -17 C 9.953125 -16.800781 10.066406 -16.703125 10.296875 -16.703125 L 11 -16.703125 C 11.226562 -16.703125 11.34375 -16.800781 11.34375 -17 C 11.34375 -17.226562 11.226562 -17.34375 11 -17.34375 Z M 11.203125 -19.796875 C 10.960938 -19.796875 10.84375 -19.679688 10.84375 -19.453125 C 10.84375 -19.253906 10.960938 -19.15625 11.203125 -19.15625 L 11.90625 -19.15625 C 12.101562 -19.15625 12.203125 -19.253906 12.203125 -19.453125 C 12.203125 -19.679688 12.101562 -19.796875 11.90625 -19.796875 Z M 12.90625 -24.5 C 12.695312 -24.5 12.59375 -24.414062 12.59375 -24.25 C 12.59375 -24.050781 12.695312 -23.953125 12.90625 -23.953125 L 13.59375 -23.953125 C 13.800781 -23.953125 13.90625 -24.050781 13.90625 -24.25 C 13.90625 -24.414062 13.800781 -24.5 13.59375 -24.5 Z M 9.296875 -12 C 9.460938 -12 9.546875 -12.082031 9.546875 -12.25 C 9.546875 -12.445312 9.460938 -12.546875 9.296875 -12.546875 L 8.59375 -12.546875 C 8.394531 -12.546875 8.296875 -12.445312 8.296875 -12.25 C 8.296875 -12.082031 8.394531 -12 8.59375 -12 Z M 12.046875 -22.15625 C 11.847656 -22.15625 11.75 -22.070312 11.75 -21.90625 C 11.75 -21.695312 11.847656 -21.59375 12.046875 -21.59375 L 12.75 -21.59375 C 12.914062 -21.59375 13 -21.695312 13 -21.90625 C 13 -22.070312 12.914062 -22.15625 12.75 -22.15625 Z M 10.15625 -14.34375 C 10.320312 -14.34375 10.40625 -14.425781 10.40625 -14.59375 C 10.40625 -14.800781 10.320312 -14.90625 10.15625 -14.90625 L 9.453125 -14.90625 C 9.253906 -14.90625 9.15625 -14.800781 9.15625 -14.59375 C 9.15625 -14.425781 9.253906 -14.34375 9.453125 -14.34375 Z M 12.84375 -32.703125 C 12.914062 -32.628906 12.96875 -32.566406 13 -32.515625 C 13.03125 -32.472656 13.082031 -32.414062 13.15625 -32.34375 L 11.65625 -32.59375 L 12 -33.15625 C 12.332031 -33.082031 12.613281 -32.929688 12.84375 -32.703125 Z M 7.796875 -7.796875 C 7.929688 -7.796875 8 -7.878906 8 -8.046875 C 8 -8.179688 7.929688 -8.25 7.796875 -8.25 L 7.046875 -8.25 C 6.910156 -8.25 6.84375 -8.179688 6.84375 -8.046875 C 6.84375 -7.878906 6.910156 -7.796875 7.046875 -7.796875 Z M 13.75 -26.84375 C 13.582031 -26.84375 13.5 -26.78125 13.5 -26.65625 C 13.5 -26.519531 13.582031 -26.453125 13.75 -26.453125 L 14.453125 -26.453125 C 14.585938 -26.453125 14.65625 -26.519531 14.65625 -26.65625 C 14.65625 -26.78125 14.585938 -26.84375 14.453125 -26.84375 Z M 8.453125 -9.65625 C 8.585938 -9.65625 8.65625 -9.71875 8.65625 -9.84375 C 8.65625 -9.976562 8.585938 -10.046875 8.453125 -10.046875 L 7.75 -10.046875 C 7.582031 -10.046875 7.5 -9.976562 7.5 -9.84375 C 7.5 -9.71875 7.582031 -9.65625 7.75 -9.65625 Z M 14.40625 -28.703125 C 14.269531 -28.703125 14.203125 -28.617188 14.203125 -28.453125 C 14.203125 -28.316406 14.269531 -28.25 14.40625 -28.25 L 15.15625 -28.25 C 15.28125 -28.25 15.34375 -28.316406 15.34375 -28.453125 C 15.34375 -28.617188 15.28125 -28.703125 15.15625 -28.703125 Z M 15.046875 -30.5 C 14.910156 -30.5 14.84375 -30.445312 14.84375 -30.34375 C 14.84375 -30.21875 14.910156 -30.15625 15.046875 -30.15625 L 15.796875 -30.15625 C 15.929688 -30.15625 16 -30.21875 16 -30.34375 C 16 -30.445312 15.929688 -30.5 15.796875 -30.5 Z M 6.453125 -4.09375 C 6.585938 -4.09375 6.65625 -4.160156 6.65625 -4.296875 C 6.65625 -4.398438 6.585938 -4.453125 6.453125 -4.453125 L 5.75 -4.453125 C 5.613281 -4.453125 5.546875 -4.398438 5.546875 -4.296875 C 5.546875 -4.160156 5.613281 -4.09375 5.75 -4.09375 Z M 7.09375 -6 C 7.195312 -6 7.25 -6.050781 7.25 -6.15625 C 7.25 -6.28125 7.195312 -6.34375 7.09375 -6.34375 L 6.34375 -6.34375 C 6.25 -6.34375 6.203125 -6.28125 6.203125 -6.15625 C 6.203125 -6.050781 6.25 -6 6.34375 -6 Z M 7.09375 -6 "/></g></g></g><g fill="#11999e" fill-opacity="1"><g transform="translate(257.318497, 198.82588)"><g><path d="M 6.84375 -1.703125 C 6.175781 -1.035156 5.507812 -0.550781 4.84375 -0.25 C 4.25 0.0195312 3.59375 0.113281 2.875 0.03125 C 2.15625 -0.0507812 1.414062 -0.53125 0.65625 -1.40625 C 1.21875 -1.570312 1.734375 -1.835938 2.203125 -2.203125 C 2.597656 -2.535156 2.960938 -3.007812 3.296875 -3.625 C 3.628906 -4.238281 3.796875 -5.082031 3.796875 -6.15625 L 3.796875 -29.453125 C 3.796875 -30.484375 3.628906 -31.316406 3.296875 -31.953125 C 2.960938 -32.585938 2.597656 -33.070312 2.203125 -33.40625 C 1.734375 -33.769531 1.21875 -34.035156 0.65625 -34.203125 C 1.414062 -35.066406 2.15625 -35.546875 2.875 -35.640625 C 3.59375 -35.742188 4.25 -35.664062 4.84375 -35.40625 C 5.507812 -35.101562 6.175781 -34.617188 6.84375 -33.953125 C 7.007812 -34.046875 7.1875 -34.191406 7.375 -34.390625 C 7.5625 -34.597656 7.820312 -34.789062 8.15625 -34.96875 C 8.488281 -35.15625 8.910156 -35.316406 9.421875 -35.453125 C 9.941406 -35.585938 10.617188 -35.65625 11.453125 -35.65625 L 20.203125 -35.65625 C 21.367188 -35.65625 22.300781 -35.835938 23 -36.203125 C 23.695312 -36.566406 24.226562 -36.984375 24.59375 -37.453125 C 25.03125 -37.984375 25.332031 -38.582031 25.5 -39.25 C 25.832031 -38.613281 25.984375 -37.992188 25.953125 -37.390625 C 25.921875 -36.796875 25.78125 -36.253906 25.53125 -35.765625 C 25.28125 -35.285156 24.945312 -34.867188 24.53125 -34.515625 C 24.113281 -34.171875 23.6875 -33.914062 23.25 -33.75 C 24.019531 -33.25 24.578125 -32.582031 24.921875 -31.75 C 25.273438 -30.914062 25.414062 -30.070312 25.34375 -29.21875 C 25.28125 -28.375 25.03125 -27.59375 24.59375 -26.875 C 24.164062 -26.15625 23.566406 -25.644531 22.796875 -25.34375 C 22.234375 -25.144531 21.707031 -25.085938 21.21875 -25.171875 C 20.738281 -25.253906 20.320312 -25.425781 19.96875 -25.6875 C 19.625 -25.957031 19.347656 -26.285156 19.140625 -26.671875 C 18.941406 -27.054688 18.84375 -27.484375 18.84375 -27.953125 C 18.84375 -28.421875 18.953125 -28.820312 19.171875 -29.15625 C 19.390625 -29.488281 19.664062 -29.753906 20 -29.953125 C 20.332031 -30.148438 20.695312 -30.296875 21.09375 -30.390625 C 21.5 -30.492188 21.867188 -30.546875 22.203125 -30.546875 C 22.398438 -31.617188 22.25 -32.394531 21.75 -32.875 C 21.25 -33.351562 20.300781 -33.59375 18.90625 -33.59375 L 12.65625 -33.59375 C 11.988281 -33.59375 11.46875 -33.519531 11.09375 -33.375 C 10.726562 -33.226562 10.453125 -33.007812 10.265625 -32.71875 C 10.085938 -32.4375 9.972656 -32.085938 9.921875 -31.671875 C 9.867188 -31.253906 9.84375 -30.796875 9.84375 -30.296875 L 9.84375 -18.84375 L 13.953125 -18.84375 C 15.117188 -18.84375 15.992188 -19.0625 16.578125 -19.5 C 17.160156 -19.9375 17.566406 -20.421875 17.796875 -20.953125 C 18.066406 -21.546875 18.1875 -22.257812 18.15625 -23.09375 C 18.78125 -22.59375 19.175781 -22.039062 19.34375 -21.4375 C 19.507812 -20.84375 19.535156 -20.257812 19.421875 -19.6875 C 19.304688 -19.125 19.070312 -18.601562 18.71875 -18.125 C 18.375 -17.644531 18.035156 -17.269531 17.703125 -17 C 17.929688 -16.832031 18.15625 -16.554688 18.375 -16.171875 C 18.59375 -15.785156 18.675781 -15.359375 18.625 -14.890625 C 18.570312 -14.429688 18.351562 -13.957031 17.96875 -13.46875 C 17.59375 -12.988281 16.9375 -12.550781 16 -12.15625 C 16.332031 -12.882812 16.457031 -13.539062 16.375 -14.125 C 16.289062 -14.707031 16.046875 -15.195312 15.640625 -15.59375 C 15.242188 -16 14.738281 -16.304688 14.125 -16.515625 C 13.507812 -16.734375 12.851562 -16.84375 12.15625 -16.84375 L 9.84375 -16.84375 L 9.84375 -6.15625 C 9.84375 -5.082031 10.007812 -4.238281 10.34375 -3.625 C 10.675781 -3.007812 11.046875 -2.535156 11.453125 -2.203125 C 11.921875 -1.835938 12.453125 -1.570312 13.046875 -1.40625 C 12.285156 -0.53125 11.53125 -0.0507812 10.78125 0.03125 C 10.03125 0.113281 9.367188 0.0195312 8.796875 -0.25 C 8.128906 -0.550781 7.476562 -1.035156 6.84375 -1.703125 Z M 28.296875 -36.59375 C 28.265625 -35.757812 28.066406 -35.007812 27.703125 -34.34375 C 27.335938 -33.675781 26.867188 -33.128906 26.296875 -32.703125 C 26.796875 -32.128906 27.15625 -31.492188 27.375 -30.796875 C 27.59375 -30.097656 27.703125 -29.398438 27.703125 -28.703125 C 27.703125 -28.035156 27.59375 -27.375 27.375 -26.71875 C 27.15625 -26.070312 26.835938 -25.488281 26.421875 -24.96875 C 26.003906 -24.457031 25.492188 -24.039062 24.890625 -23.71875 C 24.296875 -23.40625 23.632812 -23.25 22.90625 -23.25 C 21.769531 -23.25 20.851562 -23.632812 20.15625 -24.40625 C 20.582031 -24.195312 21.082031 -24.09375 21.65625 -24.09375 C 22.351562 -24.09375 22.992188 -24.242188 23.578125 -24.546875 C 24.160156 -24.847656 24.664062 -25.25 25.09375 -25.75 C 25.53125 -26.25 25.863281 -26.832031 26.09375 -27.5 C 26.332031 -28.164062 26.453125 -28.847656 26.453125 -29.546875 C 26.453125 -30.242188 26.332031 -30.941406 26.09375 -31.640625 C 25.863281 -32.347656 25.515625 -32.984375 25.046875 -33.546875 C 25.617188 -33.984375 26.085938 -34.535156 26.453125 -35.203125 C 26.816406 -35.867188 27.015625 -36.617188 27.046875 -37.453125 C 27.046875 -37.816406 26.976562 -38.210938 26.84375 -38.640625 C 26.71875 -39.078125 26.453125 -39.664062 26.046875 -40.40625 L 26.25 -41.59375 C 26.75 -40.832031 27.140625 -40.179688 27.421875 -39.640625 C 27.703125 -39.109375 27.910156 -38.644531 28.046875 -38.25 C 28.179688 -37.851562 28.253906 -37.53125 28.265625 -37.28125 C 28.285156 -37.03125 28.296875 -36.800781 28.296875 -36.59375 Z M 21.203125 -31.65625 C 21.035156 -31.65625 20.875 -31.660156 20.71875 -31.671875 C 20.570312 -31.691406 20.398438 -31.703125 20.203125 -31.703125 L 13.953125 -31.703125 C 13.347656 -31.703125 12.90625 -31.554688 12.625 -31.265625 C 12.34375 -30.984375 12.203125 -30.378906 12.203125 -29.453125 L 12.203125 -19.953125 L 10.90625 -19.953125 L 10.90625 -30.296875 C 10.90625 -30.929688 10.976562 -31.460938 11.125 -31.890625 C 11.269531 -32.328125 11.78125 -32.546875 12.65625 -32.546875 L 18.90625 -32.546875 C 19.9375 -32.546875 20.601562 -32.429688 20.90625 -32.203125 C 21 -32.128906 21.0625 -32.0625 21.09375 -32 C 21.132812 -31.9375 21.171875 -31.820312 21.203125 -31.65625 Z M 18.046875 -24.65625 C 18.878906 -24.1875 19.546875 -23.71875 20.046875 -23.25 C 20.546875 -22.78125 20.925781 -22.328125 21.1875 -21.890625 C 21.457031 -21.460938 21.632812 -21.054688 21.71875 -20.671875 C 21.800781 -20.285156 21.84375 -19.945312 21.84375 -19.65625 C 21.84375 -18.945312 21.703125 -18.285156 21.421875 -17.671875 C 21.140625 -17.054688 20.816406 -16.515625 20.453125 -16.046875 C 20.785156 -15.546875 20.953125 -14.960938 20.953125 -14.296875 C 20.984375 -13.566406 20.722656 -12.84375 20.171875 -12.125 C 19.617188 -11.40625 18.796875 -10.8125 17.703125 -10.34375 L 15.09375 -9.203125 L 15.953125 -10.953125 L 16.40625 -11.203125 C 17.5 -11.671875 18.320312 -12.257812 18.875 -12.96875 C 19.425781 -13.6875 19.703125 -14.414062 19.703125 -15.15625 C 19.703125 -15.519531 19.648438 -15.84375 19.546875 -16.125 C 19.453125 -16.40625 19.320312 -16.679688 19.15625 -16.953125 C 19.550781 -17.378906 19.878906 -17.898438 20.140625 -18.515625 C 20.410156 -19.140625 20.546875 -19.800781 20.546875 -20.5 C 20.546875 -21.101562 20.378906 -21.738281 20.046875 -22.40625 C 19.710938 -23.070312 19.0625 -23.769531 18.09375 -24.5 Z M 12.203125 -14.953125 L 12.203125 -5.296875 C 12.203125 -4.535156 12.285156 -3.9375 12.453125 -3.5 C 12.617188 -3.0625 12.832031 -2.710938 13.09375 -2.453125 C 13 -2.515625 12.847656 -2.59375 12.640625 -2.6875 C 12.441406 -2.789062 12.242188 -2.945312 12.046875 -3.15625 C 11.742188 -3.414062 11.476562 -3.757812 11.25 -4.1875 C 11.019531 -4.625 10.90625 -5.28125 10.90625 -6.15625 L 10.90625 -15.796875 L 12.15625 -15.796875 C 13.15625 -15.796875 13.953125 -15.582031 14.546875 -15.15625 C 14.648438 -15.082031 14.742188 -15.003906 14.828125 -14.921875 C 14.910156 -14.835938 14.984375 -14.765625 15.046875 -14.703125 C 14.546875 -14.867188 14.015625 -14.953125 13.453125 -14.953125 Z M 14.59375 -1.546875 L 16.296875 -1.25 L 15.09375 0.15625 C 14.53125 0.78125 13.941406 1.234375 13.328125 1.515625 C 12.710938 1.804688 12.101562 1.953125 11.5 1.953125 C 10.726562 1.953125 10.0625 1.804688 9.5 1.515625 C 8.9375 1.234375 8.46875 0.945312 8.09375 0.65625 C 7.726562 0.945312 7.257812 1.234375 6.6875 1.515625 C 6.125 1.804688 5.460938 1.953125 4.703125 1.953125 C 3.671875 1.953125 2.671875 1.535156 1.703125 0.703125 C 2.234375 0.960938 2.816406 1.09375 3.453125 1.09375 C 4.210938 1.09375 4.875 0.953125 5.4375 0.671875 C 6.007812 0.390625 6.476562 0.0976562 6.84375 -0.203125 C 7.21875 0.0976562 7.6875 0.390625 8.25 0.671875 C 8.8125 0.953125 9.492188 1.09375 10.296875 1.09375 C 10.867188 1.09375 11.460938 0.953125 12.078125 0.671875 C 12.691406 0.390625 13.265625 -0.0664062 13.796875 -0.703125 Z M 5.15625 -19.796875 C 4.914062 -19.796875 4.796875 -19.679688 4.796875 -19.453125 C 4.796875 -19.253906 4.914062 -19.15625 5.15625 -19.15625 L 8.40625 -19.15625 C 8.632812 -19.15625 8.75 -19.253906 8.75 -19.453125 C 8.75 -19.679688 8.632812 -19.796875 8.40625 -19.796875 Z M 5.15625 -17.34375 C 4.914062 -17.34375 4.796875 -17.226562 4.796875 -17 C 4.796875 -16.800781 4.914062 -16.703125 5.15625 -16.703125 L 8.40625 -16.703125 C 8.632812 -16.703125 8.75 -16.800781 8.75 -17 C 8.75 -17.226562 8.632812 -17.34375 8.40625 -17.34375 Z M 5.15625 -24.5 C 4.945312 -24.5 4.84375 -24.414062 4.84375 -24.25 C 4.84375 -24.050781 4.945312 -23.953125 5.15625 -23.953125 L 8.40625 -23.953125 C 8.601562 -23.953125 8.703125 -24.050781 8.703125 -24.25 C 8.703125 -24.414062 8.601562 -24.5 8.40625 -24.5 Z M 5.15625 -22.15625 C 4.945312 -22.15625 4.84375 -22.070312 4.84375 -21.90625 C 4.84375 -21.695312 4.945312 -21.59375 5.15625 -21.59375 L 8.40625 -21.59375 C 8.601562 -21.59375 8.703125 -21.695312 8.703125 -21.90625 C 8.703125 -22.070312 8.601562 -22.15625 8.40625 -22.15625 Z M 8.40625 -12 C 8.601562 -12 8.703125 -12.082031 8.703125 -12.25 C 8.703125 -12.445312 8.601562 -12.546875 8.40625 -12.546875 L 5.15625 -12.546875 C 4.945312 -12.546875 4.84375 -12.445312 4.84375 -12.25 C 4.84375 -12.082031 4.945312 -12 5.15625 -12 Z M 8.40625 -14.34375 C 8.601562 -14.34375 8.703125 -14.425781 8.703125 -14.59375 C 8.703125 -14.800781 8.601562 -14.90625 8.40625 -14.90625 L 5.15625 -14.90625 C 4.945312 -14.90625 4.84375 -14.800781 4.84375 -14.59375 C 4.84375 -14.425781 4.945312 -14.34375 5.15625 -14.34375 Z M 8.40625 -7.796875 C 8.570312 -7.796875 8.65625 -7.878906 8.65625 -8.046875 C 8.65625 -8.179688 8.570312 -8.25 8.40625 -8.25 L 5.15625 -8.25 C 5.019531 -8.25 4.953125 -8.179688 4.953125 -8.046875 C 4.953125 -7.878906 5.019531 -7.796875 5.15625 -7.796875 Z M 5.15625 -26.84375 C 5.019531 -26.84375 4.953125 -26.78125 4.953125 -26.65625 C 4.953125 -26.519531 5.019531 -26.453125 5.15625 -26.453125 L 8.40625 -26.453125 C 8.570312 -26.453125 8.65625 -26.519531 8.65625 -26.65625 C 8.65625 -26.78125 8.570312 -26.84375 8.40625 -26.84375 Z M 5.15625 -28.703125 C 5.019531 -28.703125 4.953125 -28.617188 4.953125 -28.453125 C 4.953125 -28.316406 5.019531 -28.25 5.15625 -28.25 L 8.40625 -28.25 C 8.570312 -28.25 8.65625 -28.316406 8.65625 -28.453125 C 8.65625 -28.617188 8.570312 -28.703125 8.40625 -28.703125 Z M 8.40625 -9.65625 C 8.570312 -9.65625 8.65625 -9.71875 8.65625 -9.84375 C 8.65625 -9.976562 8.570312 -10.046875 8.40625 -10.046875 L 5.15625 -10.046875 C 5.019531 -10.046875 4.953125 -9.976562 4.953125 -9.84375 C 4.953125 -9.71875 5.019531 -9.65625 5.15625 -9.65625 Z M 8.40625 -6 C 8.53125 -6 8.59375 -6.050781 8.59375 -6.15625 C 8.59375 -6.28125 8.53125 -6.34375 8.40625 -6.34375 L 5.15625 -6.34375 C 5.019531 -6.34375 4.953125 -6.28125 4.953125 -6.15625 C 4.953125 -6.050781 5.019531 -6 5.15625 -6 Z M 5.15625 -32.40625 C 5.019531 -32.40625 4.953125 -32.335938 4.953125 -32.203125 C 4.953125 -32.097656 5.019531 -32.046875 5.15625 -32.046875 L 8.40625 -32.046875 C 8.53125 -32.046875 8.59375 -32.097656 8.59375 -32.203125 C 8.59375 -32.335938 8.53125 -32.40625 8.40625 -32.40625 Z M 5.15625 -30.5 C 5.019531 -30.5 4.953125 -30.445312 4.953125 -30.34375 C 4.953125 -30.21875 5.019531 -30.15625 5.15625 -30.15625 L 8.40625 -30.15625 C 8.53125 -30.15625 8.59375 -30.21875 8.59375 -30.34375 C 8.59375 -30.445312 8.53125 -30.5 8.40625 -30.5 Z M 8.40625 -4.09375 C 8.53125 -4.09375 8.59375 -4.160156 8.59375 -4.296875 C 8.59375 -4.398438 8.53125 -4.453125 8.40625 -4.453125 L 5.15625 -4.453125 C 5.019531 -4.453125 4.953125 -4.398438 4.953125 -4.296875 C 4.953125 -4.160156 5.019531 -4.09375 5.15625 -4.09375 Z M 1.84375 -32.296875 C 1.84375 -32.296875 1.828125 -32.300781 1.796875 -32.3125 C 1.765625 -32.332031 1.679688 -32.351562 1.546875 -32.375 C 1.410156 -32.394531 1.207031 -32.425781 0.9375 -32.46875 C 0.675781 -32.519531 0.3125 -32.597656 -0.15625 -32.703125 L 0.34375 -33.203125 C 0.414062 -33.171875 0.597656 -33.113281 0.890625 -33.03125 C 1.191406 -32.945312 1.507812 -32.703125 1.84375 -32.296875 Z M 1.84375 -32.296875 "/></g></g></g><g fill="#11999e" fill-opacity="1"><g transform="translate(291.514483, 198.82588)"><g><path d="M 6.796875 -1.703125 C 6.128906 -1.035156 5.460938 -0.550781 4.796875 -0.25 C 4.203125 0.0195312 3.546875 0.113281 2.828125 0.03125 C 2.109375 -0.0507812 1.363281 -0.53125 0.59375 -1.40625 C 1.195312 -1.570312 1.734375 -1.835938 2.203125 -2.203125 C 2.597656 -2.535156 2.960938 -3.007812 3.296875 -3.625 C 3.628906 -4.238281 3.796875 -5.082031 3.796875 -6.15625 L 3.796875 -29.453125 C 3.796875 -30.515625 3.628906 -31.34375 3.296875 -31.9375 C 2.960938 -32.539062 2.597656 -33.03125 2.203125 -33.40625 C 1.734375 -33.769531 1.195312 -34.050781 0.59375 -34.25 C 1.363281 -35.113281 2.109375 -35.585938 2.828125 -35.671875 C 3.546875 -35.753906 4.203125 -35.664062 4.796875 -35.40625 C 5.460938 -35.101562 6.128906 -34.617188 6.796875 -33.953125 C 7.429688 -34.617188 8.082031 -35.101562 8.75 -35.40625 C 9.3125 -35.664062 9.96875 -35.753906 10.71875 -35.671875 C 11.46875 -35.585938 12.226562 -35.113281 13 -34.25 C 12.394531 -34.050781 11.863281 -33.769531 11.40625 -33.40625 C 11 -33.03125 10.628906 -32.539062 10.296875 -31.9375 C 9.960938 -31.34375 9.796875 -30.515625 9.796875 -29.453125 L 9.796875 -6.15625 C 9.796875 -5.082031 9.960938 -4.238281 10.296875 -3.625 C 10.628906 -3.007812 11 -2.535156 11.40625 -2.203125 C 11.863281 -1.835938 12.394531 -1.570312 13 -1.40625 C 12.226562 -0.53125 11.46875 -0.0507812 10.71875 0.03125 C 9.96875 0.113281 9.3125 0.0195312 8.75 -0.25 C 8.082031 -0.550781 7.429688 -1.035156 6.796875 -1.703125 Z M 12.046875 -32.59375 C 12.484375 -32.96875 12.941406 -33.1875 13.421875 -33.25 C 13.910156 -33.3125 14.4375 -33.410156 15 -33.546875 L 13.203125 -35.546875 C 13.367188 -35.484375 13.535156 -35.390625 13.703125 -35.265625 C 13.867188 -35.148438 14.066406 -34.984375 14.296875 -34.765625 C 14.535156 -34.554688 14.8125 -34.285156 15.125 -33.953125 C 15.4375 -33.617188 15.828125 -33.203125 16.296875 -32.703125 C 15.429688 -32.566406 14.765625 -32.414062 14.296875 -32.25 C 13.828125 -32.082031 13.507812 -31.914062 13.34375 -31.75 C 13.082031 -31.476562 12.816406 -31.117188 12.546875 -30.671875 C 12.285156 -30.222656 12.15625 -29.53125 12.15625 -28.59375 L 12.15625 -5.296875 C 12.15625 -4.535156 12.242188 -3.945312 12.421875 -3.53125 C 12.609375 -3.113281 12.816406 -2.769531 13.046875 -2.5 C 12.953125 -2.53125 12.800781 -2.59375 12.59375 -2.6875 C 12.394531 -2.789062 12.195312 -2.945312 12 -3.15625 C 11.726562 -3.414062 11.476562 -3.757812 11.25 -4.1875 C 11.019531 -4.625 10.90625 -5.28125 10.90625 -6.15625 L 10.90625 -29.453125 C 10.90625 -30.378906 11.03125 -31.066406 11.28125 -31.515625 C 11.53125 -31.972656 11.785156 -32.332031 12.046875 -32.59375 Z M 16.296875 -1.25 L 15.046875 0.15625 C 14.515625 0.78125 13.929688 1.234375 13.296875 1.515625 C 12.660156 1.804688 12.046875 1.953125 11.453125 1.953125 C 10.679688 1.921875 10.007812 1.757812 9.4375 1.46875 C 8.875 1.1875 8.410156 0.894531 8.046875 0.59375 C 7.679688 0.894531 7.210938 1.1875 6.640625 1.46875 C 6.078125 1.757812 5.414062 1.921875 4.65625 1.953125 C 3.613281 1.953125 2.613281 1.535156 1.65625 0.703125 C 2.1875 0.960938 2.769531 1.09375 3.40625 1.09375 C 4.164062 1.0625 4.828125 0.90625 5.390625 0.625 C 5.960938 0.34375 6.429688 0.0507812 6.796875 -0.25 C 7.160156 0.0507812 7.625 0.34375 8.1875 0.625 C 8.757812 0.90625 9.429688 1.0625 10.203125 1.09375 C 10.796875 1.09375 11.398438 0.953125 12.015625 0.671875 C 12.640625 0.390625 13.21875 -0.0664062 13.75 -0.703125 L 14.546875 -1.546875 Z M 5.25 -19.796875 C 5.019531 -19.796875 4.90625 -19.679688 4.90625 -19.453125 C 4.90625 -19.253906 5.019531 -19.15625 5.25 -19.15625 L 8.5 -19.15625 C 8.726562 -19.15625 8.84375 -19.253906 8.84375 -19.453125 C 8.84375 -19.679688 8.726562 -19.796875 8.5 -19.796875 Z M 5.25 -17.34375 C 5.019531 -17.34375 4.90625 -17.226562 4.90625 -17 C 4.90625 -16.800781 5.019531 -16.703125 5.25 -16.703125 L 8.5 -16.703125 C 8.726562 -16.703125 8.84375 -16.800781 8.84375 -17 C 8.84375 -17.226562 8.726562 -17.34375 8.5 -17.34375 Z M 8.5 -12 C 8.695312 -12 8.796875 -12.082031 8.796875 -12.25 C 8.796875 -12.445312 8.695312 -12.546875 8.5 -12.546875 L 5.25 -12.546875 C 5.050781 -12.546875 4.953125 -12.445312 4.953125 -12.25 C 4.953125 -12.082031 5.050781 -12 5.25 -12 Z M 8.5 -14.34375 C 8.695312 -14.34375 8.796875 -14.425781 8.796875 -14.59375 C 8.796875 -14.800781 8.695312 -14.90625 8.5 -14.90625 L 5.25 -14.90625 C 5.050781 -14.90625 4.953125 -14.800781 4.953125 -14.59375 C 4.953125 -14.425781 5.050781 -14.34375 5.25 -14.34375 Z M 8.796875 -21.90625 C 8.796875 -22.070312 8.695312 -22.15625 8.5 -22.15625 L 5.25 -22.15625 C 5.050781 -22.15625 4.953125 -22.070312 4.953125 -21.90625 C 4.953125 -21.695312 5.050781 -21.59375 5.25 -21.59375 L 8.5 -21.59375 C 8.695312 -21.59375 8.796875 -21.695312 8.796875 -21.90625 Z M 5.25 -24.5 C 5.050781 -24.5 4.953125 -24.414062 4.953125 -24.25 C 4.953125 -24.050781 5.050781 -23.953125 5.25 -23.953125 L 8.5 -23.953125 C 8.695312 -23.953125 8.796875 -24.050781 8.796875 -24.25 C 8.796875 -24.414062 8.695312 -24.5 8.5 -24.5 Z M 8.5 -7.796875 C 8.632812 -7.796875 8.703125 -7.878906 8.703125 -8.046875 C 8.703125 -8.179688 8.632812 -8.25 8.5 -8.25 L 5.25 -8.25 C 5.082031 -8.25 5 -8.179688 5 -8.046875 C 5 -7.878906 5.082031 -7.796875 5.25 -7.796875 Z M 5.25 -26.84375 C 5.082031 -26.84375 5 -26.78125 5 -26.65625 C 5 -26.519531 5.082031 -26.453125 5.25 -26.453125 L 8.5 -26.453125 C 8.632812 -26.453125 8.703125 -26.519531 8.703125 -26.65625 C 8.703125 -26.78125 8.632812 -26.84375 8.5 -26.84375 Z M 8.5 -9.65625 C 8.632812 -9.65625 8.703125 -9.71875 8.703125 -9.84375 C 8.703125 -9.976562 8.632812 -10.046875 8.5 -10.046875 L 5.25 -10.046875 C 5.082031 -10.046875 5 -9.976562 5 -9.84375 C 5 -9.71875 5.082031 -9.65625 5.25 -9.65625 Z M 5.25 -28.703125 C 5.082031 -28.703125 5 -28.617188 5 -28.453125 C 5 -28.316406 5.082031 -28.25 5.25 -28.25 L 8.5 -28.25 C 8.632812 -28.25 8.703125 -28.316406 8.703125 -28.453125 C 8.703125 -28.617188 8.632812 -28.703125 8.5 -28.703125 Z M 5.25 -32.40625 C 5.113281 -32.40625 5.046875 -32.335938 5.046875 -32.203125 C 5.046875 -32.097656 5.113281 -32.046875 5.25 -32.046875 L 8.5 -32.046875 C 8.601562 -32.046875 8.65625 -32.097656 8.65625 -32.203125 C 8.65625 -32.335938 8.601562 -32.40625 8.5 -32.40625 Z M 8.5 -4.09375 C 8.601562 -4.09375 8.65625 -4.160156 8.65625 -4.296875 C 8.65625 -4.398438 8.601562 -4.453125 8.5 -4.453125 L 5.25 -4.453125 C 5.113281 -4.453125 5.046875 -4.398438 5.046875 -4.296875 C 5.046875 -4.160156 5.113281 -4.09375 5.25 -4.09375 Z M 8.5 -6 C 8.601562 -6 8.65625 -6.050781 8.65625 -6.15625 C 8.65625 -6.28125 8.601562 -6.34375 8.5 -6.34375 L 5.25 -6.34375 C 5.113281 -6.34375 5.046875 -6.28125 5.046875 -6.15625 C 5.046875 -6.050781 5.113281 -6 5.25 -6 Z M 5.25 -30.5 C 5.113281 -30.5 5.046875 -30.445312 5.046875 -30.34375 C 5.046875 -30.21875 5.113281 -30.15625 5.25 -30.15625 L 8.5 -30.15625 C 8.601562 -30.15625 8.65625 -30.21875 8.65625 -30.34375 C 8.65625 -30.445312 8.601562 -30.5 8.5 -30.5 Z M 0.296875 -33.203125 C 0.367188 -33.203125 0.546875 -33.140625 0.828125 -33.015625 C 1.109375 -32.898438 1.429688 -32.660156 1.796875 -32.296875 C 1.765625 -32.328125 1.664062 -32.359375 1.5 -32.390625 C 1.332031 -32.429688 0.78125 -32.535156 -0.15625 -32.703125 Z M 0.296875 -33.203125 "/></g></g></g><g fill="#11999e" fill-opacity="1"><g transform="translate(313.412385, 198.82588)"><g><path d="M 26.75 -1.703125 C 26.144531 -1.003906 25.492188 -0.503906 24.796875 -0.203125 C 24.203125 0.0664062 23.519531 0.160156 22.75 0.078125 C 21.976562 -0.00390625 21.175781 -0.5 20.34375 -1.40625 C 20.914062 -1.5 21.414062 -1.710938 21.84375 -2.046875 C 22.21875 -2.316406 22.535156 -2.703125 22.796875 -3.203125 C 23.066406 -3.703125 23.164062 -4.367188 23.09375 -5.203125 L 22.90625 -5.5 C 22.769531 -5.726562 22.597656 -6 22.390625 -6.3125 C 22.191406 -6.632812 21.960938 -6.976562 21.703125 -7.34375 C 21.128906 -8.050781 20.4375 -8.742188 19.625 -9.421875 C 18.8125 -10.109375 17.851562 -10.601562 16.75 -10.90625 C 16.25 -11.03125 15.773438 -11.109375 15.328125 -11.140625 C 14.878906 -11.179688 14.4375 -11.203125 14 -11.203125 C 12.9375 -11.203125 12.035156 -11.09375 11.296875 -10.875 C 10.566406 -10.65625 10.019531 -10.460938 9.65625 -10.296875 C 9.414062 -9.660156 9.210938 -9.09375 9.046875 -8.59375 C 8.878906 -8.09375 8.726562 -7.660156 8.59375 -7.296875 C 8.46875 -6.867188 8.320312 -6.488281 8.15625 -6.15625 C 7.78125 -5.082031 7.664062 -4.238281 7.8125 -3.625 C 7.96875 -3.007812 8.210938 -2.535156 8.546875 -2.203125 C 8.910156 -1.835938 9.410156 -1.570312 10.046875 -1.40625 C 9.285156 -0.570312 8.601562 -0.117188 8 -0.046875 C 7.394531 0.015625 6.894531 -0.0820312 6.5 -0.34375 C 6.03125 -0.644531 5.613281 -1.097656 5.25 -1.703125 C 4.71875 -1.035156 4.164062 -0.550781 3.59375 -0.25 C 3.132812 0.0195312 2.632812 0.113281 2.09375 0.03125 C 1.5625 -0.0507812 1.082031 -0.53125 0.65625 -1.40625 C 1.28125 -1.570312 1.894531 -1.835938 2.5 -2.203125 C 3 -2.535156 3.53125 -3.007812 4.09375 -3.625 C 4.664062 -4.238281 5.132812 -5.082031 5.5 -6.15625 C 6.832031 -9.78125 8.066406 -13.144531 9.203125 -16.25 C 9.703125 -17.582031 10.191406 -18.914062 10.671875 -20.25 C 11.160156 -21.582031 11.617188 -22.847656 12.046875 -24.046875 C 12.484375 -25.242188 12.867188 -26.3125 13.203125 -27.25 C 13.535156 -28.1875 13.800781 -28.921875 14 -29.453125 C 14.4375 -30.617188 14.507812 -31.617188 14.21875 -32.453125 C 13.9375 -33.285156 13.210938 -33.882812 12.046875 -34.25 C 12.578125 -35.113281 13.203125 -35.585938 13.921875 -35.671875 C 14.640625 -35.753906 15.332031 -35.664062 16 -35.40625 C 16.769531 -35.101562 17.550781 -34.617188 18.34375 -33.953125 C 18.8125 -34.617188 19.347656 -35.101562 19.953125 -35.40625 C 20.484375 -35.664062 21.125 -35.753906 21.875 -35.671875 C 22.625 -35.585938 23.5 -35.113281 24.5 -34.25 C 23.9375 -34.050781 23.46875 -33.769531 23.09375 -33.40625 C 22.800781 -33.03125 22.570312 -32.539062 22.40625 -31.9375 C 22.238281 -31.34375 22.300781 -30.515625 22.59375 -29.453125 C 22.726562 -28.921875 22.921875 -28.1875 23.171875 -27.25 C 23.421875 -26.3125 23.710938 -25.242188 24.046875 -24.046875 C 24.378906 -22.847656 24.726562 -21.582031 25.09375 -20.25 C 25.46875 -18.914062 25.835938 -17.582031 26.203125 -16.25 C 27.066406 -13.144531 27.984375 -9.78125 28.953125 -6.15625 C 29.210938 -5.082031 29.601562 -4.238281 30.125 -3.625 C 30.644531 -3.007812 31.132812 -2.535156 31.59375 -2.203125 C 32.164062 -1.835938 32.769531 -1.570312 33.40625 -1.40625 C 32.863281 -0.53125 32.21875 -0.0507812 31.46875 0.03125 C 30.71875 0.113281 29.992188 0.0195312 29.296875 -0.25 C 28.460938 -0.550781 27.613281 -1.035156 26.75 -1.703125 Z M 17.296875 -12.90625 C 18.203125 -12.632812 19.019531 -12.28125 19.75 -11.84375 C 20.476562 -11.414062 21.128906 -10.953125 21.703125 -10.453125 L 16.59375 -29.296875 C 16.332031 -28.628906 15.972656 -27.671875 15.515625 -26.421875 C 15.066406 -25.171875 14.566406 -23.785156 14.015625 -22.265625 C 13.472656 -20.753906 12.898438 -19.171875 12.296875 -17.515625 C 11.703125 -15.867188 11.132812 -14.332031 10.59375 -12.90625 C 11.0625 -13.03125 11.578125 -13.132812 12.140625 -13.21875 C 12.710938 -13.300781 13.332031 -13.34375 14 -13.34375 C 15 -13.34375 16.097656 -13.195312 17.296875 -12.90625 Z M 23.65625 -29.75 C 23.488281 -30.25 23.40625 -30.796875 23.40625 -31.390625 C 23.40625 -31.992188 23.632812 -32.5 24.09375 -32.90625 C 24.394531 -33.195312 24.8125 -33.367188 25.34375 -33.421875 C 25.882812 -33.472656 26.367188 -33.53125 26.796875 -33.59375 C 25.929688 -34.363281 25.398438 -34.832031 25.203125 -35 C 25.003906 -35.164062 24.882812 -35.265625 24.84375 -35.296875 C 24.976562 -35.234375 25.128906 -35.160156 25.296875 -35.078125 C 25.460938 -34.992188 25.671875 -34.859375 25.921875 -34.671875 C 26.171875 -34.492188 26.46875 -34.253906 26.8125 -33.953125 C 27.164062 -33.648438 27.59375 -33.25 28.09375 -32.75 C 27.726562 -32.6875 27.253906 -32.628906 26.671875 -32.578125 C 26.085938 -32.523438 25.644531 -32.347656 25.34375 -32.046875 C 24.914062 -31.679688 24.691406 -31.195312 24.671875 -30.59375 C 24.660156 -30 24.738281 -29.4375 24.90625 -28.90625 L 28.5 -15.703125 C 28.863281 -14.335938 29.203125 -13.050781 29.515625 -11.84375 C 29.835938 -10.644531 30.132812 -9.582031 30.40625 -8.65625 C 30.695312 -7.550781 30.976562 -6.53125 31.25 -5.59375 C 31.414062 -4.863281 31.65625 -4.265625 31.96875 -3.796875 C 32.289062 -3.328125 32.617188 -2.960938 32.953125 -2.703125 C 32.816406 -2.765625 32.671875 -2.828125 32.515625 -2.890625 C 32.367188 -2.960938 32.210938 -3.082031 32.046875 -3.25 C 31.679688 -3.519531 31.304688 -3.90625 30.921875 -4.40625 C 30.535156 -4.90625 30.210938 -5.585938 29.953125 -6.453125 C 29.710938 -7.378906 29.445312 -8.394531 29.15625 -9.5 C 28.882812 -10.4375 28.585938 -11.503906 28.265625 -12.703125 C 27.953125 -13.898438 27.613281 -15.179688 27.25 -16.546875 Z M 16.453125 -25.796875 L 17.15625 -23.296875 L 13.90625 -14.40625 C 13.601562 -14.40625 13.328125 -14.394531 13.078125 -14.375 C 12.828125 -14.351562 12.566406 -14.328125 12.296875 -14.296875 Z M 14 -10.15625 C 14.769531 -10.15625 15.601562 -10.050781 16.5 -9.84375 C 17.5 -9.550781 18.382812 -9.070312 19.15625 -8.40625 C 18.78125 -8.632812 18.3125 -8.832031 17.75 -9 C 16.851562 -9.195312 16.035156 -9.296875 15.296875 -9.296875 L 15.15625 -9.296875 C 14.414062 -9.296875 13.753906 -9.21875 13.171875 -9.0625 C 12.585938 -8.914062 12.113281 -8.78125 11.75 -8.65625 C 11.550781 -8.082031 11.367188 -7.570312 11.203125 -7.125 C 11.035156 -6.675781 10.898438 -6.285156 10.796875 -5.953125 C 10.660156 -5.585938 10.546875 -5.253906 10.453125 -4.953125 C 10.210938 -4.347656 10.09375 -3.832031 10.09375 -3.40625 C 10.09375 -3.03125 10.175781 -2.710938 10.34375 -2.453125 C 9.914062 -2.453125 9.566406 -2.640625 9.296875 -3.015625 C 9.035156 -3.398438 8.882812 -3.8125 8.84375 -4.25 C 8.84375 -4.445312 8.859375 -4.671875 8.890625 -4.921875 C 8.929688 -5.171875 9.035156 -5.460938 9.203125 -5.796875 C 9.296875 -6.097656 9.410156 -6.429688 9.546875 -6.796875 C 9.648438 -7.128906 9.785156 -7.519531 9.953125 -7.96875 C 10.117188 -8.425781 10.300781 -8.9375 10.5 -9.5 C 10.863281 -9.632812 11.34375 -9.773438 11.9375 -9.921875 C 12.539062 -10.078125 13.226562 -10.15625 14 -10.15625 Z M 36.40625 -1.34375 L 35.59375 0 C 35.195312 0.664062 34.679688 1.15625 34.046875 1.46875 C 33.410156 1.789062 32.78125 1.953125 32.15625 1.953125 C 31.488281 1.953125 30.878906 1.847656 30.328125 1.640625 C 29.773438 1.441406 29.265625 1.210938 28.796875 0.953125 L 28.15625 0.546875 L 27.703125 0.90625 C 27.335938 1.164062 26.894531 1.421875 26.375 1.671875 C 25.851562 1.921875 25.257812 2.046875 24.59375 2.046875 C 24.09375 2.046875 23.578125 1.945312 23.046875 1.75 C 22.515625 1.550781 22 1.21875 21.5 0.75 C 22.101562 1.050781 22.71875 1.203125 23.34375 1.203125 C 24.007812 1.203125 24.601562 1.078125 25.125 0.828125 C 25.644531 0.578125 26.085938 0.316406 26.453125 0.046875 L 26.84375 -0.296875 L 27.546875 0.09375 C 28.015625 0.363281 28.523438 0.597656 29.078125 0.796875 C 29.628906 0.992188 30.238281 1.09375 30.90625 1.09375 C 31.53125 1.09375 32.160156 0.9375 32.796875 0.625 C 33.429688 0.3125 33.945312 -0.175781 34.34375 -0.84375 L 34.75 -1.59375 Z M 11.75 -1.546875 L 13.5 -1.25 L 12.15625 0.15625 C 11.050781 1.320312 9.945312 1.90625 8.84375 1.90625 C 8.28125 1.863281 7.796875 1.734375 7.390625 1.515625 C 6.992188 1.304688 6.664062 1.082031 6.40625 0.84375 C 6.570312 0.914062 6.753906 0.957031 6.953125 0.96875 C 7.148438 0.988281 7.347656 1.015625 7.546875 1.046875 C 8.617188 1.046875 9.738281 0.460938 10.90625 -0.703125 Z M 5.09375 -0.046875 C 5.257812 0.117188 5.441406 0.273438 5.640625 0.421875 C 5.847656 0.578125 6.082031 0.703125 6.34375 0.796875 C 6.050781 1.066406 5.695312 1.328125 5.28125 1.578125 C 4.863281 1.828125 4.351562 1.953125 3.75 1.953125 C 3.050781 1.984375 2.367188 1.664062 1.703125 1 C 1.835938 1.03125 1.960938 1.050781 2.078125 1.0625 C 2.191406 1.082031 2.332031 1.09375 2.5 1.09375 C 3.0625 1.09375 3.550781 0.96875 3.96875 0.71875 C 4.382812 0.46875 4.742188 0.226562 5.046875 0 Z M 24.5 -19.453125 C 24.5 -19.679688 24.398438 -19.796875 24.203125 -19.796875 L 20.84375 -19.796875 C 20.644531 -19.796875 20.546875 -19.679688 20.546875 -19.453125 C 20.546875 -19.253906 20.644531 -19.15625 20.84375 -19.15625 L 24.203125 -19.15625 C 24.398438 -19.15625 24.5 -19.253906 24.5 -19.453125 Z M 25.09375 -17 C 25.09375 -17.226562 24.992188 -17.34375 24.796875 -17.34375 L 21.546875 -17.34375 C 21.316406 -17.34375 21.203125 -17.226562 21.203125 -17 C 21.203125 -16.800781 21.316406 -16.703125 21.546875 -16.703125 L 24.796875 -16.703125 C 24.992188 -16.703125 25.09375 -16.800781 25.09375 -17 Z M 23.796875 -21.90625 C 23.796875 -22.070312 23.710938 -22.15625 23.546875 -22.15625 L 20.25 -22.15625 C 20.050781 -22.15625 19.953125 -22.070312 19.953125 -21.90625 C 19.953125 -21.695312 20.050781 -21.59375 20.25 -21.59375 L 23.546875 -21.59375 C 23.710938 -21.59375 23.796875 -21.695312 23.796875 -21.90625 Z M 19.59375 -24.5 C 19.425781 -24.5 19.34375 -24.414062 19.34375 -24.25 C 19.34375 -24.050781 19.425781 -23.953125 19.59375 -23.953125 L 22.90625 -23.953125 C 23.070312 -23.953125 23.15625 -24.050781 23.15625 -24.25 C 23.15625 -24.414062 23.070312 -24.5 22.90625 -24.5 Z M 26.09375 -12 C 26.257812 -12 26.34375 -12.082031 26.34375 -12.25 C 26.34375 -12.445312 26.257812 -12.546875 26.09375 -12.546875 L 22.796875 -12.546875 C 22.597656 -12.546875 22.5 -12.445312 22.5 -12.25 C 22.5 -12.082031 22.597656 -12 22.796875 -12 Z M 21.90625 -14.59375 C 21.90625 -14.425781 22.003906 -14.34375 22.203125 -14.34375 L 25.453125 -14.34375 C 25.617188 -14.34375 25.703125 -14.425781 25.703125 -14.59375 C 25.703125 -14.800781 25.617188 -14.90625 25.453125 -14.90625 L 22.203125 -14.90625 C 22.003906 -14.90625 21.90625 -14.800781 21.90625 -14.59375 Z M 15.703125 -32.40625 C 15.597656 -32.40625 15.546875 -32.335938 15.546875 -32.203125 C 15.546875 -32.097656 15.597656 -32.046875 15.703125 -32.046875 L 20.796875 -32.046875 C 20.898438 -32.046875 20.953125 -32.097656 20.953125 -32.203125 C 20.953125 -32.335938 20.898438 -32.40625 20.796875 -32.40625 Z M 27.40625 -8.046875 C 27.40625 -8.179688 27.335938 -8.25 27.203125 -8.25 L 23.953125 -8.25 C 23.785156 -8.25 23.703125 -8.179688 23.703125 -8.046875 C 23.703125 -7.878906 23.785156 -7.796875 23.953125 -7.796875 L 27.203125 -7.796875 C 27.335938 -7.796875 27.40625 -7.878906 27.40625 -8.046875 Z M 23.25 -9.84375 C 23.25 -9.71875 23.300781 -9.65625 23.40625 -9.65625 L 26.75 -9.65625 C 26.882812 -9.65625 26.953125 -9.71875 26.953125 -9.84375 C 26.953125 -9.976562 26.882812 -10.046875 26.75 -10.046875 L 23.40625 -10.046875 C 23.300781 -10.046875 23.25 -9.976562 23.25 -9.84375 Z M 22.5 -26.65625 C 22.5 -26.78125 22.414062 -26.84375 22.25 -26.84375 L 19 -26.84375 C 18.863281 -26.84375 18.796875 -26.78125 18.796875 -26.65625 C 18.796875 -26.519531 18.863281 -26.453125 19 -26.453125 L 22.25 -26.453125 C 22.414062 -26.453125 22.5 -26.519531 22.5 -26.65625 Z M 21.953125 -28.453125 C 21.953125 -28.617188 21.882812 -28.703125 21.75 -28.703125 L 18.5 -28.703125 C 18.332031 -28.703125 18.25 -28.617188 18.25 -28.453125 C 18.25 -28.316406 18.332031 -28.25 18.5 -28.25 L 21.75 -28.25 C 21.882812 -28.25 21.953125 -28.316406 21.953125 -28.453125 Z M 28.40625 -4.296875 C 28.40625 -4.398438 28.335938 -4.453125 28.203125 -4.453125 L 24.90625 -4.453125 C 24.800781 -4.453125 24.75 -4.398438 24.75 -4.296875 C 24.75 -4.160156 24.800781 -4.09375 24.90625 -4.09375 L 28.203125 -4.09375 C 28.335938 -4.09375 28.40625 -4.160156 28.40625 -4.296875 Z M 21.453125 -30.34375 C 21.453125 -30.445312 21.382812 -30.5 21.25 -30.5 L 18 -30.5 C 17.863281 -30.5 17.796875 -30.445312 17.796875 -30.34375 C 17.796875 -30.21875 17.863281 -30.15625 18 -30.15625 L 21.25 -30.15625 C 21.382812 -30.15625 21.453125 -30.21875 21.453125 -30.34375 Z M 27.90625 -6.15625 C 27.90625 -6.28125 27.835938 -6.34375 27.703125 -6.34375 L 24.453125 -6.34375 C 24.316406 -6.34375 24.25 -6.28125 24.25 -6.15625 C 24.25 -6.050781 24.316406 -6 24.453125 -6 L 27.703125 -6 C 27.835938 -6 27.90625 -6.050781 27.90625 -6.15625 Z M 10.296875 -17.34375 C 10.066406 -17.34375 9.953125 -17.226562 9.953125 -17 C 9.953125 -16.800781 10.066406 -16.703125 10.296875 -16.703125 L 11 -16.703125 C 11.226562 -16.703125 11.34375 -16.800781 11.34375 -17 C 11.34375 -17.226562 11.226562 -17.34375 11 -17.34375 Z M 11.203125 -19.796875 C 10.960938 -19.796875 10.84375 -19.679688 10.84375 -19.453125 C 10.84375 -19.253906 10.960938 -19.15625 11.203125 -19.15625 L 11.90625 -19.15625 C 12.101562 -19.15625 12.203125 -19.253906 12.203125 -19.453125 C 12.203125 -19.679688 12.101562 -19.796875 11.90625 -19.796875 Z M 12.90625 -24.5 C 12.695312 -24.5 12.59375 -24.414062 12.59375 -24.25 C 12.59375 -24.050781 12.695312 -23.953125 12.90625 -23.953125 L 13.59375 -23.953125 C 13.800781 -23.953125 13.90625 -24.050781 13.90625 -24.25 C 13.90625 -24.414062 13.800781 -24.5 13.59375 -24.5 Z M 9.296875 -12 C 9.460938 -12 9.546875 -12.082031 9.546875 -12.25 C 9.546875 -12.445312 9.460938 -12.546875 9.296875 -12.546875 L 8.59375 -12.546875 C 8.394531 -12.546875 8.296875 -12.445312 8.296875 -12.25 C 8.296875 -12.082031 8.394531 -12 8.59375 -12 Z M 12.046875 -22.15625 C 11.847656 -22.15625 11.75 -22.070312 11.75 -21.90625 C 11.75 -21.695312 11.847656 -21.59375 12.046875 -21.59375 L 12.75 -21.59375 C 12.914062 -21.59375 13 -21.695312 13 -21.90625 C 13 -22.070312 12.914062 -22.15625 12.75 -22.15625 Z M 10.15625 -14.34375 C 10.320312 -14.34375 10.40625 -14.425781 10.40625 -14.59375 C 10.40625 -14.800781 10.320312 -14.90625 10.15625 -14.90625 L 9.453125 -14.90625 C 9.253906 -14.90625 9.15625 -14.800781 9.15625 -14.59375 C 9.15625 -14.425781 9.253906 -14.34375 9.453125 -14.34375 Z M 12.84375 -32.703125 C 12.914062 -32.628906 12.96875 -32.566406 13 -32.515625 C 13.03125 -32.472656 13.082031 -32.414062 13.15625 -32.34375 L 11.65625 -32.59375 L 12 -33.15625 C 12.332031 -33.082031 12.613281 -32.929688 12.84375 -32.703125 Z M 7.796875 -7.796875 C 7.929688 -7.796875 8 -7.878906 8 -8.046875 C 8 -8.179688 7.929688 -8.25 7.796875 -8.25 L 7.046875 -8.25 C 6.910156 -8.25 6.84375 -8.179688 6.84375 -8.046875 C 6.84375 -7.878906 6.910156 -7.796875 7.046875 -7.796875 Z M 13.75 -26.84375 C 13.582031 -26.84375 13.5 -26.78125 13.5 -26.65625 C 13.5 -26.519531 13.582031 -26.453125 13.75 -26.453125 L 14.453125 -26.453125 C 14.585938 -26.453125 14.65625 -26.519531 14.65625 -26.65625 C 14.65625 -26.78125 14.585938 -26.84375 14.453125 -26.84375 Z M 8.453125 -9.65625 C 8.585938 -9.65625 8.65625 -9.71875 8.65625 -9.84375 C 8.65625 -9.976562 8.585938 -10.046875 8.453125 -10.046875 L 7.75 -10.046875 C 7.582031 -10.046875 7.5 -9.976562 7.5 -9.84375 C 7.5 -9.71875 7.582031 -9.65625 7.75 -9.65625 Z M 14.40625 -28.703125 C 14.269531 -28.703125 14.203125 -28.617188 14.203125 -28.453125 C 14.203125 -28.316406 14.269531 -28.25 14.40625 -28.25 L 15.15625 -28.25 C 15.28125 -28.25 15.34375 -28.316406 15.34375 -28.453125 C 15.34375 -28.617188 15.28125 -28.703125 15.15625 -28.703125 Z M 15.046875 -30.5 C 14.910156 -30.5 14.84375 -30.445312 14.84375 -30.34375 C 14.84375 -30.21875 14.910156 -30.15625 15.046875 -30.15625 L 15.796875 -30.15625 C 15.929688 -30.15625 16 -30.21875 16 -30.34375 C 16 -30.445312 15.929688 -30.5 15.796875 -30.5 Z M 6.453125 -4.09375 C 6.585938 -4.09375 6.65625 -4.160156 6.65625 -4.296875 C 6.65625 -4.398438 6.585938 -4.453125 6.453125 -4.453125 L 5.75 -4.453125 C 5.613281 -4.453125 5.546875 -4.398438 5.546875 -4.296875 C 5.546875 -4.160156 5.613281 -4.09375 5.75 -4.09375 Z M 7.09375 -6 C 7.195312 -6 7.25 -6.050781 7.25 -6.15625 C 7.25 -6.28125 7.195312 -6.34375 7.09375 -6.34375 L 6.34375 -6.34375 C 6.25 -6.34375 6.203125 -6.28125 6.203125 -6.15625 C 6.203125 -6.050781 6.25 -6 6.34375 -6 Z M 7.09375 -6 "/></g></g></g><g clip-path="url(#2234908fc9)"><g clip-path="url(#4c47159238)"><path fill="#11999e" d="M 90.515625 170.832031 L 116.726562 170.832031 L 116.726562 193.839844 L 90.515625 193.839844 Z M 90.515625 170.832031 " fill-opacity="1" fill-rule="nonzero"/></g></g><g mask="url(#f862d687d6)"><g transform="matrix(1, 0, 0, 1, 91, 172)"><g clip-path="url(#80af1a94e9)"><g clip-path="url(#8394bd121f)"><g clip-path="url(#3ef4eb19f0)"><path fill="#0cc0df" d="M 0.738281 0.972656 L 24.503906 0.972656 L 24.503906 21.839844 L 0.738281 21.839844 Z M 0.738281 0.972656 " fill-opacity="1" fill-rule="nonzero"/></g></g></g></g></g></svg>