<svg xmlns="http://www.w3.org/2000/svg" xmlns:xlink="http://www.w3.org/1999/xlink" width="500" zoomAndPan="magnify" viewBox="0 0 375 374.999991" height="500" preserveAspectRatio="xMidYMid meet" version="1.0"><defs><filter x="0%" y="0%" width="100%" height="100%" id="4b879db374"><feColorMatrix values="0 0 0 0 1 0 0 0 0 1 0 0 0 0 1 0 0 0 1 0" color-interpolation-filters="sRGB"/></filter><g/><clipPath id="50024f7c58"><path d="M 130.230469 112.230469 L 244.980469 112.230469 L 244.980469 226.980469 L 130.230469 226.980469 Z M 130.230469 112.230469 " clip-rule="nonzero"/></clipPath><clipPath id="cfa2165c74"><path d="M 187.605469 112.230469 C 155.917969 112.230469 130.230469 137.917969 130.230469 169.605469 C 130.230469 201.292969 155.917969 226.980469 187.605469 226.980469 C 219.292969 226.980469 244.980469 201.292969 244.980469 169.605469 C 244.980469 137.917969 219.292969 112.230469 187.605469 112.230469 " clip-rule="nonzero"/></clipPath><clipPath id="4af3f64abd"><path d="M 149 142 L 225 142 L 225 180 L 149 180 Z M 149 142 " clip-rule="nonzero"/></clipPath><clipPath id="deb151e0b4"><path d="M 224.84375 123.589844 L 225.117188 215.089844 L 150.121094 215.316406 L 149.84375 123.816406 Z M 224.84375 123.589844 " clip-rule="nonzero"/></clipPath><clipPath id="66b907cc03"><path d="M 224.84375 123.589844 L 225.117188 215.089844 L 150.121094 215.316406 L 149.84375 123.816406 Z M 224.84375 123.589844 " clip-rule="nonzero"/></clipPath><clipPath id="ba1b73510e"><path d="M 168 123 L 217 123 L 217 216 L 168 216 Z M 168 123 " clip-rule="nonzero"/></clipPath><clipPath id="9bd26e1a55"><path d="M 224.84375 123.589844 L 225.117188 215.089844 L 150.121094 215.316406 L 149.84375 123.816406 Z M 224.84375 123.589844 " clip-rule="nonzero"/></clipPath><clipPath id="cce7bec933"><path d="M 224.84375 123.589844 L 225.117188 215.089844 L 150.121094 215.316406 L 149.84375 123.816406 Z M 224.84375 123.589844 " clip-rule="nonzero"/></clipPath><clipPath id="bae81a299a"><path d="M 169 143 L 204 143 L 204 179 L 169 179 Z M 169 143 " clip-rule="nonzero"/></clipPath><clipPath id="704b0de034"><path d="M 224.84375 123.589844 L 225.117188 215.089844 L 150.121094 215.316406 L 149.84375 123.816406 Z M 224.84375 123.589844 " clip-rule="nonzero"/></clipPath><clipPath id="98e7c45157"><path d="M 224.84375 123.589844 L 225.117188 215.089844 L 150.121094 215.316406 L 149.84375 123.816406 Z M 224.84375 123.589844 " clip-rule="nonzero"/></clipPath><clipPath id="ba1f81413a"><path d="M 168 143 L 210 143 L 210 180 L 168 180 Z M 168 143 " clip-rule="nonzero"/></clipPath><clipPath id="5224d47fbd"><path d="M 224.84375 123.589844 L 225.117188 215.089844 L 150.121094 215.316406 L 149.84375 123.816406 Z M 224.84375 123.589844 " clip-rule="nonzero"/></clipPath><clipPath id="5d6e22e818"><path d="M 224.84375 123.589844 L 225.117188 215.089844 L 150.121094 215.316406 L 149.84375 123.816406 Z M 224.84375 123.589844 " clip-rule="nonzero"/></clipPath><clipPath id="93dbc57455"><path d="M 169 142 L 208 142 L 208 181 L 169 181 Z M 169 142 " clip-rule="nonzero"/></clipPath><clipPath id="9d74cca623"><path d="M 224.84375 123.589844 L 225.117188 215.089844 L 150.121094 215.316406 L 149.84375 123.816406 Z M 224.84375 123.589844 " clip-rule="nonzero"/></clipPath><clipPath id="2f0fb0580a"><path d="M 224.84375 123.589844 L 225.117188 215.089844 L 150.121094 215.316406 L 149.84375 123.816406 Z M 224.84375 123.589844 " clip-rule="nonzero"/></clipPath><clipPath id="a1cf89f323"><path d="M 174.394531 152.832031 L 200.605469 152.832031 L 200.605469 175.820312 L 174.394531 175.820312 Z M 174.394531 152.832031 " clip-rule="nonzero"/></clipPath><clipPath id="4c3f25726e"><path d="M 174.394531 159.613281 C 174.394531 166.914062 187.5 175.820312 187.5 175.820312 C 187.5 175.820312 200.546875 166.851562 200.605469 159.613281 C 200.605469 155.875 197.558594 152.832031 193.820312 152.832031 C 190.949219 152.832031 188.476562 154.671875 187.5 157.199219 C 186.523438 154.671875 184.050781 152.832031 181.179688 152.832031 C 177.441406 152.832031 174.394531 155.875 174.394531 159.613281 " clip-rule="nonzero"/></clipPath><mask id="048eda566e"><g filter="url(#4b879db374)"><rect x="-37.5" width="450" fill="#000000" y="-37.499999" height="449.999989" fill-opacity="0.8196"/></g></mask><clipPath id="3eb340878f"><path d="M 0.617188 0.972656 L 24.382812 0.972656 L 24.382812 21.820312 L 0.617188 21.820312 Z M 0.617188 0.972656 " clip-rule="nonzero"/></clipPath><clipPath id="f9c8ae72b6"><path d="M 0.617188 7.121094 C 0.617188 13.746094 12.5 21.820312 12.5 21.820312 C 12.5 21.820312 24.332031 13.6875 24.382812 7.121094 C 24.382812 3.734375 21.621094 0.972656 18.234375 0.972656 C 15.628906 0.972656 13.382812 2.640625 12.5 4.933594 C 11.617188 2.640625 9.371094 0.972656 6.765625 0.972656 C 3.378906 0.972656 0.617188 3.734375 0.617188 7.121094 " clip-rule="nonzero"/></clipPath><clipPath id="e40cd75d04"><rect x="0" width="25" y="0" height="22"/></clipPath></defs><g clip-path="url(#50024f7c58)"><g clip-path="url(#cfa2165c74)"><path stroke-linecap="butt" transform="matrix(0.751381, 0, 0, 0.751381, 130.229482, 112.229421)" fill="none" stroke-linejoin="miter" d="M 76.360689 0.00139386 C 34.188354 0.00139386 0.00131278 34.188435 0.00131278 76.360771 C 0.00131278 118.533106 34.188354 152.720147 76.360689 152.720147 C 118.533025 152.720147 152.720066 118.533106 152.720066 76.360771 C 152.720066 34.188435 118.533025 0.00139386 76.360689 0.00139386 " stroke="#40514e" stroke-width="6" stroke-opacity="1" stroke-miterlimit="4"/></g></g><g clip-path="url(#4af3f64abd)"><g clip-path="url(#deb151e0b4)"><g clip-path="url(#66b907cc03)"><path fill="#30e3ca" d="M 207.703125 174.59375 L 211.261719 174.582031 C 214.96875 174.570312 218.5625 173.023438 221.117188 170.335938 C 223.660156 167.660156 224.960938 164.171875 224.777344 160.519531 C 224.421875 153.367188 218.519531 147.78125 211.347656 147.804688 L 205.957031 147.820312 C 205.957031 147.820312 197.699219 148.59375 197.488281 143.65625 C 197.597656 147.765625 200.988281 151.070312 205.128906 151.058594 L 211.355469 151.039062 C 216.796875 151.023438 221.269531 155.257812 221.539062 160.679688 C 221.675781 163.441406 220.691406 166.078125 218.765625 168.109375 C 216.820312 170.15625 214.078125 171.335938 211.25 171.34375 L 207.691406 171.355469 C 207.632812 171.355469 207.570312 171.355469 207.511719 171.359375 C 202.570312 171.574219 203.339844 179.816406 203.339844 179.816406 L 203.335938 178.980469 C 203.332031 176.566406 205.289062 174.601562 207.703125 174.59375 M 173.910156 142.726562 C 173.910156 142.726562 174.628906 150.398438 170.246094 151.132812 C 170.019531 151.15625 169.789062 151.164062 169.554688 151.167969 L 163.496094 151.183594 C 160.664062 151.195312 157.925781 152.375 155.980469 154.421875 C 154.050781 156.449219 153.066406 159.09375 153.203125 161.851562 C 153.472656 167.273438 157.945312 171.503906 163.386719 171.488281 L 169.617188 171.46875 C 173.757812 171.457031 177.148438 174.761719 177.253906 178.875 C 177.042969 173.9375 168.785156 174.710938 168.785156 174.710938 L 163.398438 174.726562 C 156.222656 174.746094 150.324219 169.164062 149.96875 162.011719 C 149.957031 161.800781 149.949219 161.585938 149.949219 161.378906 C 149.941406 157.957031 151.234375 154.71875 153.628906 152.195312 C 156.179688 149.507812 159.773438 147.957031 163.484375 147.949219 L 169.546875 147.929688 C 171.960938 147.921875 173.917969 145.957031 173.910156 143.542969 L 173.910156 142.726562 " fill-opacity="1" fill-rule="nonzero"/></g></g></g><g clip-path="url(#ba1b73510e)"><g clip-path="url(#9bd26e1a55)"><g clip-path="url(#cce7bec933)"><path fill="#11999e" d="M 175.402344 198.027344 C 173.484375 198.03125 171.925781 196.484375 171.917969 194.566406 C 171.914062 192.652344 173.464844 191.097656 175.382812 191.089844 C 177.300781 191.085938 178.859375 192.632812 178.867188 194.546875 C 178.871094 196.464844 177.320312 198.019531 175.402344 198.027344 M 177.152344 143.535156 C 177.164062 147.496094 174.125 150.773438 170.246094 151.132812 C 174.628906 150.398438 173.910156 142.726562 173.910156 142.726562 L 173.894531 137.492188 C 173.882812 133.785156 175.410156 130.1875 178.085938 127.621094 C 180.753906 125.066406 184.234375 123.746094 187.894531 123.90625 C 195.058594 124.21875 200.683594 130.078125 200.707031 137.242188 L 200.726562 143.464844 C 200.734375 145.875 202.703125 147.828125 205.117188 147.824219 L 205.957031 147.820312 C 205.957031 147.820312 197.699219 148.59375 197.488281 143.65625 C 197.488281 143.597656 197.484375 143.535156 197.484375 143.472656 L 197.464844 137.25 C 197.449219 131.820312 193.183594 127.378906 187.753906 127.140625 C 184.988281 127.019531 182.351562 128.019531 180.332031 129.957031 C 178.292969 131.914062 177.125 134.65625 177.132812 137.480469 L 177.152344 143.535156 M 196.664062 215.136719 L 195.847656 215.140625 C 195.003906 215.140625 194.3125 214.503906 194.226562 213.6875 C 192.226562 213.058594 190.445312 211.804688 189.191406 210.089844 C 187.945312 208.390625 187.285156 206.339844 187.277344 204.265625 C 187.277344 203.621094 187.335938 202.972656 187.460938 202.328125 C 187.921875 200.023438 188.484375 197.929688 189.152344 196.054688 C 188.847656 195.75 188.667969 195.335938 188.667969 194.902344 C 188.667969 194.695312 188.707031 194.484375 188.792969 194.28125 C 189.683594 192.121094 190.738281 190.269531 191.921875 188.765625 C 191.9375 188.75 191.953125 188.730469 191.96875 188.710938 C 194.152344 186.183594 196.996094 184.605469 200.113281 184.167969 L 200.097656 178.988281 C 200.082031 174.855469 203.394531 171.46875 207.511719 171.359375 C 202.570312 171.574219 203.339844 179.816406 203.339844 179.816406 L 203.351562 184.125 C 206.582031 184.484375 209.539062 186.058594 211.804688 188.652344 C 211.824219 188.671875 211.835938 188.6875 211.851562 188.707031 C 213.046875 190.203125 214.109375 192.050781 215.015625 194.203125 C 215.277344 194.828125 215.117188 195.527344 214.664062 195.976562 C 215.34375 197.851562 215.921875 199.9375 216.394531 202.242188 C 216.945312 204.945312 216.332031 207.773438 214.710938 210.011719 C 213.417969 211.800781 211.566406 213.09375 209.476562 213.710938 C 209.367188 214.496094 208.691406 215.101562 207.875 215.101562 L 207.058594 215.105469 C 206.160156 215.109375 205.433594 214.382812 205.429688 213.488281 C 205.429688 212.59375 206.152344 211.867188 207.046875 211.863281 L 207.867188 211.859375 C 208.421875 211.859375 208.914062 212.136719 209.207031 212.5625 C 211.023438 212.011719 212.628906 210.878906 213.757812 209.324219 C 215.183594 207.351562 215.726562 204.855469 215.238281 202.480469 C 214.78125 200.253906 214.226562 198.246094 213.582031 196.445312 C 212.925781 196.46875 212.296875 196.09375 212.027344 195.457031 C 211.246094 193.59375 210.339844 192.011719 209.34375 190.753906 C 207.363281 188.507812 204.714844 187.273438 201.882812 187.28125 C 199.050781 187.289062 196.410156 188.539062 194.445312 190.800781 C 193.453125 192.0625 192.558594 193.648438 191.789062 195.515625 C 191.523438 196.15625 190.894531 196.535156 190.238281 196.515625 C 189.601562 198.320312 189.058594 200.332031 188.621094 202.558594 C 188.148438 204.941406 188.703125 207.433594 190.140625 209.394531 C 191.242188 210.894531 192.789062 211.992188 194.539062 212.554688 C 194.832031 212.15625 195.304688 211.898438 195.835938 211.898438 L 196.652344 211.894531 C 197.550781 211.890625 198.28125 212.613281 198.285156 213.511719 C 198.285156 214.40625 197.558594 215.132812 196.664062 215.136719 M 170.695312 194.574219 C 170.6875 191.945312 172.824219 189.796875 175.457031 189.789062 C 178.09375 189.78125 180.242188 191.917969 180.25 194.546875 C 180.257812 197.179688 178.121094 199.324219 175.484375 199.332031 C 172.851562 199.339844 170.703125 197.207031 170.695312 194.574219 M 182.496094 194.539062 C 182.488281 191.304688 180.273438 188.585938 177.285156 187.785156 L 177.261719 179.054688 C 177.261719 178.996094 177.257812 178.933594 177.257812 178.875 C 177.042969 173.9375 168.785156 174.710938 168.785156 174.710938 L 169.625 174.707031 C 172.039062 174.699219 174.011719 176.65625 174.019531 179.066406 L 174.042969 187.691406 C 170.84375 188.355469 168.4375 191.195312 168.449219 194.582031 C 168.460938 198.449219 171.621094 201.585938 175.492188 201.574219 C 179.367188 201.5625 182.507812 198.40625 182.496094 194.539062 " fill-opacity="1" fill-rule="nonzero"/></g></g></g><g clip-path="url(#bae81a299a)"><g clip-path="url(#704b0de034)"><g clip-path="url(#98e7c45157)"><path fill="#11999e" d="M 169.757812 174.707031 C 170.175781 174.71875 170.578125 174.789062 170.960938 174.910156 C 170.949219 174.90625 170.9375 174.902344 170.925781 174.902344 L 170.921875 174.898438 C 170.5625 174.789062 170.1875 174.726562 169.796875 174.710938 C 169.78125 174.710938 169.769531 174.707031 169.757812 174.707031 M 173.6875 144.941406 C 173.695312 144.898438 173.707031 144.855469 173.71875 144.8125 L 173.71875 144.808594 C 173.828125 144.453125 173.894531 144.074219 173.90625 143.683594 C 173.910156 143.675781 173.910156 143.664062 173.910156 143.65625 C 173.898438 144.105469 173.824219 144.535156 173.6875 144.941406 M 173.941406 143.238281 C 173.945312 143.367188 173.949219 143.515625 173.953125 143.683594 C 173.949219 143.515625 173.945312 143.367188 173.941406 143.238281 M 203.339844 178.875 C 203.347656 178.4375 203.421875 178.015625 203.550781 177.617188 C 203.542969 177.640625 203.539062 177.660156 203.535156 177.683594 L 203.53125 177.6875 C 203.421875 178.042969 203.359375 178.421875 203.34375 178.808594 C 203.34375 178.832031 203.339844 178.855469 203.339844 178.875 " fill-opacity="1" fill-rule="nonzero"/></g></g></g><g clip-path="url(#ba1f81413a)"><g clip-path="url(#5224d47fbd)"><g clip-path="url(#5d6e22e818)"><path fill="#30e3ca" d="M 168.144531 151.140625 C 170.875 150.117188 172.972656 147.800781 173.6875 144.941406 C 173.824219 144.535156 173.898438 144.105469 173.910156 143.65625 C 173.925781 143.519531 173.933594 143.378906 173.941406 143.238281 C 173.945312 143.367188 173.949219 143.515625 173.953125 143.683594 C 173.953125 143.730469 173.953125 143.773438 173.953125 143.820312 C 173.960938 145.980469 173.574219 150.542969 170.246094 151.101562 C 170.019531 151.125 169.789062 151.136719 169.554688 151.136719 L 168.144531 151.140625 M 170.628906 174.675781 C 172.949219 174.761719 176.71875 175.367188 177.222656 178.371094 C 177.234375 178.492188 177.242188 178.613281 177.25 178.738281 C 177 175.425781 173.042969 174.769531 170.628906 174.675781 M 197.492188 143.742188 C 197.726562 147.449219 202.570312 147.871094 204.824219 147.863281 C 204.996094 147.863281 205.15625 147.859375 205.292969 147.855469 C 205.332031 147.859375 205.367188 147.859375 205.40625 147.863281 C 203.65625 147.929688 198.136719 147.84375 197.519531 144.171875 C 197.507812 144.027344 197.496094 143.886719 197.492188 143.742188 M 203.296875 178.671875 C 203.296875 178.078125 203.324219 177.296875 203.4375 176.46875 C 203.746094 174.199219 204.6875 171.570312 207.371094 171.367188 C 207.476562 171.363281 207.585938 171.359375 207.695312 171.359375 L 209.105469 171.355469 C 206.355469 172.386719 204.246094 174.730469 203.550781 177.617188 C 203.421875 178.015625 203.347656 178.4375 203.339844 178.875 C 203.324219 179.007812 203.316406 179.136719 203.3125 179.269531 C 203.304688 179.101562 203.300781 178.902344 203.296875 178.671875 " fill-opacity="1" fill-rule="nonzero"/></g></g></g><g clip-path="url(#93dbc57455)"><g clip-path="url(#9d74cca623)"><g clip-path="url(#2f0fb0580a)"><path fill="#30e3ca" d="M 169.339844 174.679688 C 169.660156 174.667969 170.105469 174.660156 170.628906 174.675781 C 173.042969 174.769531 177 175.425781 177.25 178.738281 C 177.253906 178.84375 177.257812 178.949219 177.257812 179.058594 L 177.261719 180.464844 C 176.226562 177.710938 173.867188 175.597656 170.960938 174.910156 C 170.578125 174.789062 170.175781 174.71875 169.757812 174.707031 C 169.617188 174.695312 169.476562 174.683594 169.339844 174.679688 M 173.941406 143.238281 C 173.941406 143.234375 173.941406 143.230469 173.941406 143.226562 C 173.945312 143.359375 173.949219 143.511719 173.953125 143.683594 C 173.949219 143.515625 173.945312 143.367188 173.941406 143.238281 M 197.488281 143.480469 L 197.484375 142.074219 C 198.519531 144.839844 200.894531 146.957031 203.820312 147.636719 L 203.820312 147.640625 C 204.179688 147.75 204.558594 147.8125 204.949219 147.828125 C 205.0625 147.839844 205.175781 147.847656 205.292969 147.855469 C 205.15625 147.859375 204.996094 147.863281 204.824219 147.863281 C 202.570312 147.871094 197.726562 147.449219 197.492188 143.742188 C 197.488281 143.65625 197.488281 143.570312 197.488281 143.480469 M 203.4375 176.46875 C 203.730469 174.300781 204.597656 171.796875 207.007812 171.390625 C 207.125 171.382812 207.246094 171.375 207.371094 171.367188 C 204.6875 171.570312 203.746094 174.199219 203.4375 176.46875 " fill-opacity="1" fill-rule="nonzero"/></g></g></g><g fill="#40514e" fill-opacity="1"><g transform="translate(147.777124, 254.520497)"><g><path d="M 16.046875 -1.015625 C 15.691406 -0.597656 15.300781 -0.300781 14.875 -0.125 C 14.519531 0.0390625 14.109375 0.0976562 13.640625 0.046875 C 13.179688 -0.00390625 12.703125 -0.300781 12.203125 -0.84375 C 12.546875 -0.90625 12.847656 -1.035156 13.109375 -1.234375 C 13.328125 -1.390625 13.515625 -1.617188 13.671875 -1.921875 C 13.835938 -2.222656 13.898438 -2.625 13.859375 -3.125 L 13.734375 -3.296875 C 13.660156 -3.441406 13.5625 -3.609375 13.4375 -3.796875 C 13.320312 -3.984375 13.179688 -4.1875 13.015625 -4.40625 C 12.679688 -4.832031 12.269531 -5.25 11.78125 -5.65625 C 11.289062 -6.0625 10.710938 -6.359375 10.046875 -6.546875 C 9.742188 -6.617188 9.457031 -6.664062 9.1875 -6.6875 C 8.925781 -6.707031 8.664062 -6.71875 8.40625 -6.71875 C 7.757812 -6.71875 7.21875 -6.648438 6.78125 -6.515625 C 6.34375 -6.390625 6.015625 -6.28125 5.796875 -6.1875 C 5.648438 -5.800781 5.523438 -5.457031 5.421875 -5.15625 C 5.328125 -4.851562 5.238281 -4.59375 5.15625 -4.375 C 5.082031 -4.113281 4.992188 -3.882812 4.890625 -3.6875 C 4.671875 -3.050781 4.601562 -2.546875 4.6875 -2.171875 C 4.78125 -1.804688 4.925781 -1.519531 5.125 -1.3125 C 5.34375 -1.09375 5.644531 -0.9375 6.03125 -0.84375 C 5.570312 -0.34375 5.160156 -0.0703125 4.796875 -0.03125 C 4.441406 0.0078125 4.144531 -0.046875 3.90625 -0.203125 C 3.625 -0.390625 3.375 -0.660156 3.15625 -1.015625 C 2.832031 -0.617188 2.5 -0.332031 2.15625 -0.15625 C 1.875 0.0078125 1.570312 0.0664062 1.25 0.015625 C 0.9375 -0.0351562 0.648438 -0.320312 0.390625 -0.84375 C 0.765625 -0.9375 1.132812 -1.09375 1.5 -1.3125 C 1.800781 -1.519531 2.117188 -1.804688 2.453125 -2.171875 C 2.796875 -2.546875 3.078125 -3.050781 3.296875 -3.6875 C 4.097656 -5.863281 4.835938 -7.882812 5.515625 -9.75 C 5.816406 -10.550781 6.113281 -11.347656 6.40625 -12.140625 C 6.695312 -12.941406 6.972656 -13.703125 7.234375 -14.421875 C 7.492188 -15.148438 7.722656 -15.789062 7.921875 -16.34375 C 8.117188 -16.90625 8.28125 -17.347656 8.40625 -17.671875 C 8.664062 -18.367188 8.707031 -18.96875 8.53125 -19.46875 C 8.363281 -19.96875 7.929688 -20.328125 7.234375 -20.546875 C 7.546875 -21.066406 7.914062 -21.351562 8.34375 -21.40625 C 8.78125 -21.457031 9.195312 -21.398438 9.59375 -21.234375 C 10.0625 -21.054688 10.535156 -20.769531 11.015625 -20.375 C 11.296875 -20.769531 11.613281 -21.054688 11.96875 -21.234375 C 12.289062 -21.398438 12.675781 -21.457031 13.125 -21.40625 C 13.570312 -21.351562 14.097656 -21.066406 14.703125 -20.546875 C 14.359375 -20.429688 14.078125 -20.265625 13.859375 -20.046875 C 13.679688 -19.816406 13.539062 -19.519531 13.4375 -19.15625 C 13.34375 -18.800781 13.382812 -18.304688 13.5625 -17.671875 C 13.644531 -17.347656 13.757812 -16.90625 13.90625 -16.34375 C 14.050781 -15.789062 14.222656 -15.148438 14.421875 -14.421875 C 14.628906 -13.703125 14.84375 -12.941406 15.0625 -12.140625 C 15.28125 -11.347656 15.5 -10.550781 15.71875 -9.75 C 16.238281 -7.882812 16.789062 -5.863281 17.375 -3.6875 C 17.53125 -3.050781 17.765625 -2.546875 18.078125 -2.171875 C 18.390625 -1.804688 18.679688 -1.519531 18.953125 -1.3125 C 19.296875 -1.09375 19.660156 -0.9375 20.046875 -0.84375 C 19.722656 -0.320312 19.332031 -0.0351562 18.875 0.015625 C 18.425781 0.0664062 17.992188 0.0078125 17.578125 -0.15625 C 17.078125 -0.332031 16.566406 -0.617188 16.046875 -1.015625 Z M 10.375 -7.734375 C 10.914062 -7.578125 11.40625 -7.367188 11.84375 -7.109375 C 12.289062 -6.847656 12.679688 -6.566406 13.015625 -6.265625 L 9.953125 -17.578125 C 9.796875 -17.179688 9.582031 -16.609375 9.3125 -15.859375 C 9.039062 -15.109375 8.738281 -14.273438 8.40625 -13.359375 C 8.082031 -12.453125 7.738281 -11.503906 7.375 -10.515625 C 7.019531 -9.523438 6.679688 -8.597656 6.359375 -7.734375 C 6.640625 -7.816406 6.945312 -7.882812 7.28125 -7.9375 C 7.625 -7.988281 8 -8.015625 8.40625 -8.015625 C 9 -8.015625 9.65625 -7.921875 10.375 -7.734375 Z M 14.1875 -17.84375 C 14.09375 -18.144531 14.046875 -18.472656 14.046875 -18.828125 C 14.046875 -19.191406 14.179688 -19.492188 14.453125 -19.734375 C 14.640625 -19.921875 14.890625 -20.023438 15.203125 -20.046875 C 15.523438 -20.078125 15.816406 -20.113281 16.078125 -20.15625 C 15.554688 -20.613281 15.234375 -20.894531 15.109375 -21 C 14.992188 -21.101562 14.925781 -21.164062 14.90625 -21.1875 C 14.988281 -21.144531 15.078125 -21.097656 15.171875 -21.046875 C 15.273438 -20.992188 15.398438 -20.910156 15.546875 -20.796875 C 15.703125 -20.691406 15.882812 -20.546875 16.09375 -20.359375 C 16.300781 -20.179688 16.554688 -19.945312 16.859375 -19.65625 C 16.640625 -19.613281 16.351562 -19.578125 16 -19.546875 C 15.65625 -19.515625 15.390625 -19.410156 15.203125 -19.234375 C 14.941406 -19.015625 14.804688 -18.722656 14.796875 -18.359375 C 14.796875 -17.992188 14.84375 -17.65625 14.9375 -17.34375 L 17.09375 -9.421875 C 17.320312 -8.597656 17.53125 -7.828125 17.71875 -7.109375 C 17.90625 -6.390625 18.078125 -5.75 18.234375 -5.1875 C 18.421875 -4.53125 18.59375 -3.921875 18.75 -3.359375 C 18.851562 -2.921875 19 -2.5625 19.1875 -2.28125 C 19.375 -2 19.566406 -1.78125 19.765625 -1.625 C 19.691406 -1.664062 19.609375 -1.703125 19.515625 -1.734375 C 19.421875 -1.773438 19.328125 -1.847656 19.234375 -1.953125 C 19.015625 -2.109375 18.785156 -2.335938 18.546875 -2.640625 C 18.316406 -2.941406 18.125 -3.351562 17.96875 -3.875 C 17.832031 -4.425781 17.671875 -5.035156 17.484375 -5.703125 C 17.328125 -6.265625 17.15625 -6.90625 16.96875 -7.625 C 16.78125 -8.34375 16.570312 -9.113281 16.34375 -9.9375 Z M 9.875 -15.484375 L 10.296875 -13.984375 L 8.34375 -8.640625 C 8.15625 -8.640625 7.988281 -8.632812 7.84375 -8.625 C 7.695312 -8.613281 7.539062 -8.597656 7.375 -8.578125 Z M 8.40625 -6.09375 C 8.863281 -6.09375 9.363281 -6.03125 9.90625 -5.90625 C 10.5 -5.726562 11.023438 -5.441406 11.484375 -5.046875 C 11.265625 -5.179688 10.988281 -5.300781 10.65625 -5.40625 C 10.113281 -5.519531 9.625 -5.578125 9.1875 -5.578125 L 9.09375 -5.578125 C 8.65625 -5.578125 8.257812 -5.53125 7.90625 -5.4375 C 7.550781 -5.351562 7.265625 -5.269531 7.046875 -5.1875 C 6.929688 -4.851562 6.820312 -4.550781 6.71875 -4.28125 C 6.613281 -4.007812 6.535156 -3.769531 6.484375 -3.5625 C 6.398438 -3.34375 6.328125 -3.144531 6.265625 -2.96875 C 6.128906 -2.613281 6.0625 -2.304688 6.0625 -2.046875 C 6.0625 -1.816406 6.109375 -1.625 6.203125 -1.46875 C 5.941406 -1.46875 5.734375 -1.582031 5.578125 -1.8125 C 5.421875 -2.039062 5.332031 -2.285156 5.3125 -2.546875 C 5.3125 -2.671875 5.320312 -2.804688 5.34375 -2.953125 C 5.363281 -3.109375 5.421875 -3.285156 5.515625 -3.484375 C 5.578125 -3.660156 5.648438 -3.859375 5.734375 -4.078125 C 5.785156 -4.273438 5.863281 -4.507812 5.96875 -4.78125 C 6.070312 -5.050781 6.179688 -5.359375 6.296875 -5.703125 C 6.515625 -5.773438 6.800781 -5.859375 7.15625 -5.953125 C 7.519531 -6.046875 7.9375 -6.09375 8.40625 -6.09375 Z M 21.84375 -0.8125 L 21.359375 0 C 21.117188 0.394531 20.804688 0.6875 20.421875 0.875 C 20.046875 1.070312 19.671875 1.171875 19.296875 1.171875 C 18.890625 1.171875 18.519531 1.109375 18.1875 0.984375 C 17.863281 0.867188 17.5625 0.726562 17.28125 0.5625 L 16.890625 0.328125 L 16.625 0.546875 C 16.40625 0.703125 16.140625 0.851562 15.828125 1 C 15.515625 1.15625 15.160156 1.234375 14.765625 1.234375 C 14.460938 1.234375 14.148438 1.171875 13.828125 1.046875 C 13.503906 0.929688 13.195312 0.734375 12.90625 0.453125 C 13.257812 0.628906 13.628906 0.71875 14.015625 0.71875 C 14.410156 0.71875 14.765625 0.640625 15.078125 0.484375 C 15.390625 0.335938 15.65625 0.1875 15.875 0.03125 L 16.109375 -0.1875 L 16.53125 0.0625 C 16.8125 0.21875 17.113281 0.351562 17.4375 0.46875 C 17.769531 0.59375 18.140625 0.65625 18.546875 0.65625 C 18.921875 0.65625 19.296875 0.5625 19.671875 0.375 C 20.054688 0.1875 20.367188 -0.109375 20.609375 -0.515625 L 20.84375 -0.953125 Z M 7.046875 -0.9375 L 8.09375 -0.75 L 7.296875 0.09375 C 6.628906 0.789062 5.96875 1.140625 5.3125 1.140625 C 4.96875 1.117188 4.675781 1.039062 4.4375 0.90625 C 4.195312 0.78125 4 0.648438 3.84375 0.515625 C 3.9375 0.546875 4.039062 0.566406 4.15625 0.578125 C 4.28125 0.585938 4.40625 0.601562 4.53125 0.625 C 5.164062 0.625 5.835938 0.273438 6.546875 -0.421875 Z M 3.0625 -0.03125 C 3.15625 0.0703125 3.257812 0.164062 3.375 0.25 C 3.5 0.34375 3.644531 0.421875 3.8125 0.484375 C 3.632812 0.640625 3.421875 0.789062 3.171875 0.9375 C 2.921875 1.09375 2.613281 1.171875 2.25 1.171875 C 1.832031 1.191406 1.421875 1 1.015625 0.59375 C 1.097656 0.613281 1.171875 0.628906 1.234375 0.640625 C 1.304688 0.648438 1.394531 0.65625 1.5 0.65625 C 1.84375 0.65625 2.140625 0.578125 2.390625 0.421875 C 2.640625 0.273438 2.851562 0.132812 3.03125 0 Z M 14.703125 -11.671875 C 14.703125 -11.804688 14.640625 -11.875 14.515625 -11.875 L 12.515625 -11.875 C 12.390625 -11.875 12.328125 -11.804688 12.328125 -11.671875 C 12.328125 -11.546875 12.390625 -11.484375 12.515625 -11.484375 L 14.515625 -11.484375 C 14.640625 -11.484375 14.703125 -11.546875 14.703125 -11.671875 Z M 15.0625 -10.203125 C 15.0625 -10.335938 15 -10.40625 14.875 -10.40625 L 12.9375 -10.40625 C 12.789062 -10.40625 12.71875 -10.335938 12.71875 -10.203125 C 12.71875 -10.078125 12.789062 -10.015625 12.9375 -10.015625 L 14.875 -10.015625 C 15 -10.015625 15.0625 -10.078125 15.0625 -10.203125 Z M 14.28125 -13.140625 C 14.28125 -13.242188 14.226562 -13.296875 14.125 -13.296875 L 12.15625 -13.296875 C 12.03125 -13.296875 11.96875 -13.242188 11.96875 -13.140625 C 11.96875 -13.015625 12.03125 -12.953125 12.15625 -12.953125 L 14.125 -12.953125 C 14.226562 -12.953125 14.28125 -13.015625 14.28125 -13.140625 Z M 11.765625 -14.703125 C 11.660156 -14.703125 11.609375 -14.648438 11.609375 -14.546875 C 11.609375 -14.429688 11.660156 -14.375 11.765625 -14.375 L 13.734375 -14.375 C 13.835938 -14.375 13.890625 -14.429688 13.890625 -14.546875 C 13.890625 -14.648438 13.835938 -14.703125 13.734375 -14.703125 Z M 15.65625 -7.203125 C 15.757812 -7.203125 15.8125 -7.25 15.8125 -7.34375 C 15.8125 -7.46875 15.757812 -7.53125 15.65625 -7.53125 L 13.6875 -7.53125 C 13.5625 -7.53125 13.5 -7.46875 13.5 -7.34375 C 13.5 -7.25 13.5625 -7.203125 13.6875 -7.203125 Z M 13.140625 -8.765625 C 13.140625 -8.660156 13.195312 -8.609375 13.3125 -8.609375 L 15.265625 -8.609375 C 15.367188 -8.609375 15.421875 -8.660156 15.421875 -8.765625 C 15.421875 -8.878906 15.367188 -8.9375 15.265625 -8.9375 L 13.3125 -8.9375 C 13.195312 -8.9375 13.140625 -8.878906 13.140625 -8.765625 Z M 9.421875 -19.4375 C 9.359375 -19.4375 9.328125 -19.394531 9.328125 -19.3125 C 9.328125 -19.257812 9.359375 -19.234375 9.421875 -19.234375 L 12.484375 -19.234375 C 12.535156 -19.234375 12.5625 -19.257812 12.5625 -19.3125 C 12.5625 -19.394531 12.535156 -19.4375 12.484375 -19.4375 Z M 16.4375 -4.828125 C 16.4375 -4.910156 16.394531 -4.953125 16.3125 -4.953125 L 14.375 -4.953125 C 14.269531 -4.953125 14.21875 -4.910156 14.21875 -4.828125 C 14.21875 -4.734375 14.269531 -4.6875 14.375 -4.6875 L 16.3125 -4.6875 C 16.394531 -4.6875 16.4375 -4.734375 16.4375 -4.828125 Z M 13.953125 -5.90625 C 13.953125 -5.832031 13.984375 -5.796875 14.046875 -5.796875 L 16.046875 -5.796875 C 16.128906 -5.796875 16.171875 -5.832031 16.171875 -5.90625 C 16.171875 -5.988281 16.128906 -6.03125 16.046875 -6.03125 L 14.046875 -6.03125 C 13.984375 -6.03125 13.953125 -5.988281 13.953125 -5.90625 Z M 13.5 -15.984375 C 13.5 -16.066406 13.445312 -16.109375 13.34375 -16.109375 L 11.40625 -16.109375 C 11.320312 -16.109375 11.28125 -16.066406 11.28125 -15.984375 C 11.28125 -15.910156 11.320312 -15.875 11.40625 -15.875 L 13.34375 -15.875 C 13.445312 -15.875 13.5 -15.910156 13.5 -15.984375 Z M 13.171875 -17.0625 C 13.171875 -17.164062 13.128906 -17.21875 13.046875 -17.21875 L 11.09375 -17.21875 C 11 -17.21875 10.953125 -17.164062 10.953125 -17.0625 C 10.953125 -16.988281 11 -16.953125 11.09375 -16.953125 L 13.046875 -16.953125 C 13.128906 -16.953125 13.171875 -16.988281 13.171875 -17.0625 Z M 17.046875 -2.578125 C 17.046875 -2.640625 17.003906 -2.671875 16.921875 -2.671875 L 14.9375 -2.671875 C 14.875 -2.671875 14.84375 -2.640625 14.84375 -2.578125 C 14.84375 -2.492188 14.875 -2.453125 14.9375 -2.453125 L 16.921875 -2.453125 C 17.003906 -2.453125 17.046875 -2.492188 17.046875 -2.578125 Z M 12.875 -18.203125 C 12.875 -18.265625 12.832031 -18.296875 12.75 -18.296875 L 10.796875 -18.296875 C 10.722656 -18.296875 10.6875 -18.265625 10.6875 -18.203125 C 10.6875 -18.128906 10.722656 -18.09375 10.796875 -18.09375 L 12.75 -18.09375 C 12.832031 -18.09375 12.875 -18.128906 12.875 -18.203125 Z M 16.734375 -3.6875 C 16.734375 -3.769531 16.695312 -3.8125 16.625 -3.8125 L 14.671875 -3.8125 C 14.585938 -3.8125 14.546875 -3.769531 14.546875 -3.6875 C 14.546875 -3.625 14.585938 -3.59375 14.671875 -3.59375 L 16.625 -3.59375 C 16.695312 -3.59375 16.734375 -3.625 16.734375 -3.6875 Z M 6.1875 -10.40625 C 6.039062 -10.40625 5.96875 -10.335938 5.96875 -10.203125 C 5.96875 -10.078125 6.039062 -10.015625 6.1875 -10.015625 L 6.59375 -10.015625 C 6.738281 -10.015625 6.8125 -10.078125 6.8125 -10.203125 C 6.8125 -10.335938 6.738281 -10.40625 6.59375 -10.40625 Z M 6.71875 -11.875 C 6.582031 -11.875 6.515625 -11.804688 6.515625 -11.671875 C 6.515625 -11.546875 6.582031 -11.484375 6.71875 -11.484375 L 7.140625 -11.484375 C 7.253906 -11.484375 7.3125 -11.546875 7.3125 -11.671875 C 7.3125 -11.804688 7.253906 -11.875 7.140625 -11.875 Z M 7.734375 -14.703125 C 7.617188 -14.703125 7.5625 -14.648438 7.5625 -14.546875 C 7.5625 -14.429688 7.617188 -14.375 7.734375 -14.375 L 8.15625 -14.375 C 8.28125 -14.375 8.34375 -14.429688 8.34375 -14.546875 C 8.34375 -14.648438 8.28125 -14.703125 8.15625 -14.703125 Z M 5.578125 -7.203125 C 5.679688 -7.203125 5.734375 -7.25 5.734375 -7.34375 C 5.734375 -7.46875 5.679688 -7.53125 5.578125 -7.53125 L 5.15625 -7.53125 C 5.039062 -7.53125 4.984375 -7.46875 4.984375 -7.34375 C 4.984375 -7.25 5.039062 -7.203125 5.15625 -7.203125 Z M 7.234375 -13.296875 C 7.109375 -13.296875 7.046875 -13.242188 7.046875 -13.140625 C 7.046875 -13.015625 7.109375 -12.953125 7.234375 -12.953125 L 7.65625 -12.953125 C 7.75 -12.953125 7.796875 -13.015625 7.796875 -13.140625 C 7.796875 -13.242188 7.75 -13.296875 7.65625 -13.296875 Z M 6.09375 -8.609375 C 6.1875 -8.609375 6.234375 -8.660156 6.234375 -8.765625 C 6.234375 -8.878906 6.1875 -8.9375 6.09375 -8.9375 L 5.671875 -8.9375 C 5.546875 -8.9375 5.484375 -8.878906 5.484375 -8.765625 C 5.484375 -8.660156 5.546875 -8.609375 5.671875 -8.609375 Z M 7.703125 -19.625 C 7.742188 -19.582031 7.773438 -19.546875 7.796875 -19.515625 C 7.816406 -19.484375 7.847656 -19.445312 7.890625 -19.40625 L 6.984375 -19.5625 L 7.203125 -19.890625 C 7.398438 -19.847656 7.566406 -19.757812 7.703125 -19.625 Z M 4.6875 -4.6875 C 4.757812 -4.6875 4.796875 -4.734375 4.796875 -4.828125 C 4.796875 -4.910156 4.757812 -4.953125 4.6875 -4.953125 L 4.234375 -4.953125 C 4.148438 -4.953125 4.109375 -4.910156 4.109375 -4.828125 C 4.109375 -4.734375 4.148438 -4.6875 4.234375 -4.6875 Z M 8.25 -16.109375 C 8.144531 -16.109375 8.09375 -16.066406 8.09375 -15.984375 C 8.09375 -15.910156 8.144531 -15.875 8.25 -15.875 L 8.671875 -15.875 C 8.753906 -15.875 8.796875 -15.910156 8.796875 -15.984375 C 8.796875 -16.066406 8.753906 -16.109375 8.671875 -16.109375 Z M 5.0625 -5.796875 C 5.144531 -5.796875 5.1875 -5.832031 5.1875 -5.90625 C 5.1875 -5.988281 5.144531 -6.03125 5.0625 -6.03125 L 4.65625 -6.03125 C 4.550781 -6.03125 4.5 -5.988281 4.5 -5.90625 C 4.5 -5.832031 4.550781 -5.796875 4.65625 -5.796875 Z M 8.640625 -17.21875 C 8.554688 -17.21875 8.515625 -17.164062 8.515625 -17.0625 C 8.515625 -16.988281 8.554688 -16.953125 8.640625 -16.953125 L 9.09375 -16.953125 C 9.164062 -16.953125 9.203125 -16.988281 9.203125 -17.0625 C 9.203125 -17.164062 9.164062 -17.21875 9.09375 -17.21875 Z M 9.03125 -18.296875 C 8.945312 -18.296875 8.90625 -18.265625 8.90625 -18.203125 C 8.90625 -18.128906 8.945312 -18.09375 9.03125 -18.09375 L 9.484375 -18.09375 C 9.554688 -18.09375 9.59375 -18.128906 9.59375 -18.203125 C 9.59375 -18.265625 9.554688 -18.296875 9.484375 -18.296875 Z M 3.875 -2.453125 C 3.945312 -2.453125 3.984375 -2.492188 3.984375 -2.578125 C 3.984375 -2.640625 3.945312 -2.671875 3.875 -2.671875 L 3.453125 -2.671875 C 3.367188 -2.671875 3.328125 -2.640625 3.328125 -2.578125 C 3.328125 -2.492188 3.367188 -2.453125 3.453125 -2.453125 Z M 4.265625 -3.59375 C 4.316406 -3.59375 4.34375 -3.625 4.34375 -3.6875 C 4.34375 -3.769531 4.316406 -3.8125 4.265625 -3.8125 L 3.8125 -3.8125 C 3.75 -3.8125 3.71875 -3.769531 3.71875 -3.6875 C 3.71875 -3.625 3.75 -3.59375 3.8125 -3.59375 Z M 4.265625 -3.59375 "/></g></g></g><g fill="#40514e" fill-opacity="1"><g transform="translate(173.157197, 254.520497)"><g><path d="M 4.109375 -1.015625 C 3.710938 -0.617188 3.3125 -0.332031 2.90625 -0.15625 C 2.550781 0.0078125 2.15625 0.0664062 1.71875 0.015625 C 1.289062 -0.0351562 0.847656 -0.320312 0.390625 -0.84375 C 0.734375 -0.9375 1.039062 -1.09375 1.3125 -1.3125 C 1.5625 -1.519531 1.785156 -1.804688 1.984375 -2.171875 C 2.179688 -2.546875 2.28125 -3.050781 2.28125 -3.6875 L 2.28125 -17.671875 C 2.28125 -18.285156 2.179688 -18.78125 1.984375 -19.15625 C 1.785156 -19.539062 1.5625 -19.835938 1.3125 -20.046875 C 1.039062 -20.265625 0.734375 -20.421875 0.390625 -20.515625 C 0.847656 -21.035156 1.289062 -21.328125 1.71875 -21.390625 C 2.15625 -21.453125 2.550781 -21.398438 2.90625 -21.234375 C 3.3125 -21.054688 3.710938 -20.769531 4.109375 -20.375 C 4.210938 -20.425781 4.316406 -20.507812 4.421875 -20.625 C 4.535156 -20.75 4.691406 -20.867188 4.890625 -20.984375 C 5.085938 -21.097656 5.34375 -21.191406 5.65625 -21.265625 C 5.96875 -21.347656 6.375 -21.390625 6.875 -21.390625 L 12.125 -21.390625 C 12.820312 -21.390625 13.378906 -21.5 13.796875 -21.71875 C 14.222656 -21.9375 14.546875 -22.1875 14.765625 -22.46875 C 15.023438 -22.789062 15.203125 -23.148438 15.296875 -23.546875 C 15.492188 -23.171875 15.582031 -22.800781 15.5625 -22.4375 C 15.550781 -22.082031 15.46875 -21.757812 15.3125 -21.46875 C 15.164062 -21.175781 14.96875 -20.925781 14.71875 -20.71875 C 14.46875 -20.507812 14.210938 -20.351562 13.953125 -20.25 C 14.410156 -19.945312 14.742188 -19.546875 14.953125 -19.046875 C 15.160156 -18.546875 15.242188 -18.039062 15.203125 -17.53125 C 15.171875 -17.019531 15.023438 -16.550781 14.765625 -16.125 C 14.503906 -15.695312 14.144531 -15.390625 13.6875 -15.203125 C 13.34375 -15.085938 13.023438 -15.054688 12.734375 -15.109375 C 12.441406 -15.160156 12.191406 -15.265625 11.984375 -15.421875 C 11.773438 -15.578125 11.609375 -15.769531 11.484375 -16 C 11.367188 -16.226562 11.3125 -16.484375 11.3125 -16.765625 C 11.3125 -17.046875 11.375 -17.285156 11.5 -17.484375 C 11.632812 -17.691406 11.800781 -17.851562 12 -17.96875 C 12.195312 -18.09375 12.414062 -18.179688 12.65625 -18.234375 C 12.894531 -18.296875 13.113281 -18.328125 13.3125 -18.328125 C 13.4375 -18.972656 13.347656 -19.4375 13.046875 -19.71875 C 12.742188 -20.007812 12.175781 -20.15625 11.34375 -20.15625 L 7.59375 -20.15625 C 7.1875 -20.15625 6.875 -20.109375 6.65625 -20.015625 C 6.4375 -19.929688 6.269531 -19.800781 6.15625 -19.625 C 6.050781 -19.457031 5.984375 -19.25 5.953125 -19 C 5.921875 -18.75 5.90625 -18.476562 5.90625 -18.1875 L 5.90625 -11.3125 L 8.375 -11.3125 C 9.070312 -11.3125 9.59375 -11.441406 9.9375 -11.703125 C 10.289062 -11.960938 10.539062 -12.25 10.6875 -12.5625 C 10.84375 -12.925781 10.910156 -13.359375 10.890625 -13.859375 C 11.265625 -13.554688 11.503906 -13.222656 11.609375 -12.859375 C 11.710938 -12.503906 11.726562 -12.15625 11.65625 -11.8125 C 11.582031 -11.476562 11.441406 -11.164062 11.234375 -10.875 C 11.023438 -10.582031 10.820312 -10.359375 10.625 -10.203125 C 10.757812 -10.097656 10.890625 -9.929688 11.015625 -9.703125 C 11.148438 -9.472656 11.203125 -9.21875 11.171875 -8.9375 C 11.140625 -8.65625 11.007812 -8.367188 10.78125 -8.078125 C 10.550781 -7.796875 10.15625 -7.535156 9.59375 -7.296875 C 9.800781 -7.734375 9.878906 -8.125 9.828125 -8.46875 C 9.773438 -8.820312 9.628906 -9.117188 9.390625 -9.359375 C 9.148438 -9.597656 8.84375 -9.78125 8.46875 -9.90625 C 8.101562 -10.039062 7.710938 -10.109375 7.296875 -10.109375 L 5.90625 -10.109375 L 5.90625 -3.6875 C 5.90625 -3.050781 6.003906 -2.546875 6.203125 -2.171875 C 6.410156 -1.804688 6.632812 -1.519531 6.875 -1.3125 C 7.15625 -1.09375 7.472656 -0.9375 7.828125 -0.84375 C 7.367188 -0.320312 6.914062 -0.0351562 6.46875 0.015625 C 6.019531 0.0664062 5.625 0.0078125 5.28125 -0.15625 C 4.882812 -0.332031 4.492188 -0.617188 4.109375 -1.015625 Z M 16.984375 -21.953125 C 16.960938 -21.453125 16.84375 -21.003906 16.625 -20.609375 C 16.40625 -20.210938 16.125 -19.882812 15.78125 -19.625 C 16.082031 -19.28125 16.296875 -18.894531 16.421875 -18.46875 C 16.554688 -18.050781 16.625 -17.632812 16.625 -17.21875 C 16.625 -16.820312 16.554688 -16.425781 16.421875 -16.03125 C 16.296875 -15.644531 16.109375 -15.296875 15.859375 -14.984375 C 15.609375 -14.671875 15.300781 -14.421875 14.9375 -14.234375 C 14.582031 -14.046875 14.179688 -13.953125 13.734375 -13.953125 C 13.054688 -13.953125 12.507812 -14.179688 12.09375 -14.640625 C 12.351562 -14.515625 12.648438 -14.453125 12.984375 -14.453125 C 13.410156 -14.453125 13.796875 -14.539062 14.140625 -14.71875 C 14.492188 -14.90625 14.800781 -15.148438 15.0625 -15.453125 C 15.320312 -15.753906 15.519531 -16.101562 15.65625 -16.5 C 15.800781 -16.894531 15.875 -17.304688 15.875 -17.734375 C 15.875 -18.148438 15.800781 -18.566406 15.65625 -18.984375 C 15.519531 -19.410156 15.3125 -19.789062 15.03125 -20.125 C 15.375 -20.382812 15.65625 -20.710938 15.875 -21.109375 C 16.09375 -21.515625 16.210938 -21.96875 16.234375 -22.46875 C 16.234375 -22.6875 16.191406 -22.925781 16.109375 -23.1875 C 16.023438 -23.445312 15.863281 -23.796875 15.625 -24.234375 L 15.75 -24.953125 C 16.050781 -24.492188 16.285156 -24.101562 16.453125 -23.78125 C 16.617188 -23.46875 16.742188 -23.191406 16.828125 -22.953125 C 16.910156 -22.710938 16.957031 -22.515625 16.96875 -22.359375 C 16.976562 -22.210938 16.984375 -22.078125 16.984375 -21.953125 Z M 12.71875 -18.984375 C 12.613281 -18.984375 12.515625 -18.988281 12.421875 -19 C 12.335938 -19.007812 12.238281 -19.015625 12.125 -19.015625 L 8.375 -19.015625 C 8.007812 -19.015625 7.738281 -18.929688 7.5625 -18.765625 C 7.394531 -18.597656 7.3125 -18.234375 7.3125 -17.671875 L 7.3125 -11.96875 L 6.546875 -11.96875 L 6.546875 -18.1875 C 6.546875 -18.5625 6.585938 -18.878906 6.671875 -19.140625 C 6.765625 -19.398438 7.070312 -19.53125 7.59375 -19.53125 L 11.34375 -19.53125 C 11.957031 -19.53125 12.359375 -19.457031 12.546875 -19.3125 C 12.597656 -19.28125 12.632812 -19.242188 12.65625 -19.203125 C 12.675781 -19.160156 12.695312 -19.085938 12.71875 -18.984375 Z M 10.828125 -14.796875 C 11.328125 -14.515625 11.726562 -14.234375 12.03125 -13.953125 C 12.332031 -13.671875 12.5625 -13.398438 12.71875 -13.140625 C 12.875 -12.878906 12.976562 -12.632812 13.03125 -12.40625 C 13.082031 -12.175781 13.109375 -11.972656 13.109375 -11.796875 C 13.109375 -11.367188 13.019531 -10.96875 12.84375 -10.59375 C 12.675781 -10.226562 12.484375 -9.90625 12.265625 -9.625 C 12.460938 -9.332031 12.5625 -8.984375 12.5625 -8.578125 C 12.582031 -8.140625 12.425781 -7.703125 12.09375 -7.265625 C 11.769531 -6.835938 11.28125 -6.484375 10.625 -6.203125 L 9.0625 -5.515625 L 9.5625 -6.5625 L 9.84375 -6.71875 C 10.5 -7 10.988281 -7.351562 11.3125 -7.78125 C 11.644531 -8.21875 11.8125 -8.65625 11.8125 -9.09375 C 11.8125 -9.3125 11.78125 -9.503906 11.71875 -9.671875 C 11.664062 -9.847656 11.585938 -10.015625 11.484375 -10.171875 C 11.722656 -10.429688 11.921875 -10.742188 12.078125 -11.109375 C 12.242188 -11.484375 12.328125 -11.878906 12.328125 -12.296875 C 12.328125 -12.660156 12.226562 -13.039062 12.03125 -13.4375 C 11.832031 -13.84375 11.441406 -14.265625 10.859375 -14.703125 Z M 7.3125 -8.96875 L 7.3125 -3.1875 C 7.3125 -2.71875 7.363281 -2.351562 7.46875 -2.09375 C 7.570312 -1.832031 7.703125 -1.625 7.859375 -1.46875 C 7.796875 -1.507812 7.703125 -1.554688 7.578125 -1.609375 C 7.460938 -1.671875 7.347656 -1.765625 7.234375 -1.890625 C 7.046875 -2.046875 6.882812 -2.253906 6.75 -2.515625 C 6.613281 -2.773438 6.546875 -3.164062 6.546875 -3.6875 L 6.546875 -9.484375 L 7.296875 -9.484375 C 7.890625 -9.484375 8.367188 -9.351562 8.734375 -9.09375 C 8.785156 -9.050781 8.835938 -9.003906 8.890625 -8.953125 C 8.941406 -8.898438 8.988281 -8.851562 9.03125 -8.8125 C 8.726562 -8.914062 8.40625 -8.96875 8.0625 -8.96875 Z M 8.765625 -0.9375 L 9.78125 -0.75 L 9.0625 0.09375 C 8.71875 0.46875 8.359375 0.738281 7.984375 0.90625 C 7.617188 1.082031 7.257812 1.171875 6.90625 1.171875 C 6.4375 1.171875 6.03125 1.082031 5.6875 0.90625 C 5.351562 0.738281 5.078125 0.566406 4.859375 0.390625 C 4.640625 0.566406 4.359375 0.738281 4.015625 0.90625 C 3.679688 1.082031 3.28125 1.171875 2.8125 1.171875 C 2.195312 1.171875 1.597656 0.921875 1.015625 0.421875 C 1.335938 0.578125 1.6875 0.65625 2.0625 0.65625 C 2.53125 0.65625 2.929688 0.570312 3.265625 0.40625 C 3.609375 0.238281 3.890625 0.0625 4.109375 -0.125 C 4.328125 0.0625 4.601562 0.238281 4.9375 0.40625 C 5.28125 0.570312 5.695312 0.65625 6.1875 0.65625 C 6.519531 0.65625 6.867188 0.570312 7.234375 0.40625 C 7.609375 0.238281 7.957031 -0.0351562 8.28125 -0.421875 Z M 3.09375 -11.875 C 2.945312 -11.875 2.875 -11.804688 2.875 -11.671875 C 2.875 -11.546875 2.945312 -11.484375 3.09375 -11.484375 L 5.046875 -11.484375 C 5.179688 -11.484375 5.25 -11.546875 5.25 -11.671875 C 5.25 -11.804688 5.179688 -11.875 5.046875 -11.875 Z M 3.09375 -10.40625 C 2.945312 -10.40625 2.875 -10.335938 2.875 -10.203125 C 2.875 -10.078125 2.945312 -10.015625 3.09375 -10.015625 L 5.046875 -10.015625 C 5.179688 -10.015625 5.25 -10.078125 5.25 -10.203125 C 5.25 -10.335938 5.179688 -10.40625 5.046875 -10.40625 Z M 3.09375 -14.703125 C 2.96875 -14.703125 2.90625 -14.648438 2.90625 -14.546875 C 2.90625 -14.429688 2.96875 -14.375 3.09375 -14.375 L 5.046875 -14.375 C 5.160156 -14.375 5.21875 -14.429688 5.21875 -14.546875 C 5.21875 -14.648438 5.160156 -14.703125 5.046875 -14.703125 Z M 3.09375 -13.296875 C 2.96875 -13.296875 2.90625 -13.242188 2.90625 -13.140625 C 2.90625 -13.015625 2.96875 -12.953125 3.09375 -12.953125 L 5.046875 -12.953125 C 5.160156 -12.953125 5.21875 -13.015625 5.21875 -13.140625 C 5.21875 -13.242188 5.160156 -13.296875 5.046875 -13.296875 Z M 5.046875 -7.203125 C 5.160156 -7.203125 5.21875 -7.25 5.21875 -7.34375 C 5.21875 -7.46875 5.160156 -7.53125 5.046875 -7.53125 L 3.09375 -7.53125 C 2.96875 -7.53125 2.90625 -7.46875 2.90625 -7.34375 C 2.90625 -7.25 2.96875 -7.203125 3.09375 -7.203125 Z M 5.046875 -8.609375 C 5.160156 -8.609375 5.21875 -8.660156 5.21875 -8.765625 C 5.21875 -8.878906 5.160156 -8.9375 5.046875 -8.9375 L 3.09375 -8.9375 C 2.96875 -8.9375 2.90625 -8.878906 2.90625 -8.765625 C 2.90625 -8.660156 2.96875 -8.609375 3.09375 -8.609375 Z M 5.046875 -4.6875 C 5.140625 -4.6875 5.1875 -4.734375 5.1875 -4.828125 C 5.1875 -4.910156 5.140625 -4.953125 5.046875 -4.953125 L 3.09375 -4.953125 C 3.007812 -4.953125 2.96875 -4.910156 2.96875 -4.828125 C 2.96875 -4.734375 3.007812 -4.6875 3.09375 -4.6875 Z M 3.09375 -16.109375 C 3.007812 -16.109375 2.96875 -16.066406 2.96875 -15.984375 C 2.96875 -15.910156 3.007812 -15.875 3.09375 -15.875 L 5.046875 -15.875 C 5.140625 -15.875 5.1875 -15.910156 5.1875 -15.984375 C 5.1875 -16.066406 5.140625 -16.109375 5.046875 -16.109375 Z M 3.09375 -17.21875 C 3.007812 -17.21875 2.96875 -17.164062 2.96875 -17.0625 C 2.96875 -16.988281 3.007812 -16.953125 3.09375 -16.953125 L 5.046875 -16.953125 C 5.140625 -16.953125 5.1875 -16.988281 5.1875 -17.0625 C 5.1875 -17.164062 5.140625 -17.21875 5.046875 -17.21875 Z M 5.046875 -5.796875 C 5.140625 -5.796875 5.1875 -5.832031 5.1875 -5.90625 C 5.1875 -5.988281 5.140625 -6.03125 5.046875 -6.03125 L 3.09375 -6.03125 C 3.007812 -6.03125 2.96875 -5.988281 2.96875 -5.90625 C 2.96875 -5.832031 3.007812 -5.796875 3.09375 -5.796875 Z M 5.046875 -3.59375 C 5.117188 -3.59375 5.15625 -3.625 5.15625 -3.6875 C 5.15625 -3.769531 5.117188 -3.8125 5.046875 -3.8125 L 3.09375 -3.8125 C 3.007812 -3.8125 2.96875 -3.769531 2.96875 -3.6875 C 2.96875 -3.625 3.007812 -3.59375 3.09375 -3.59375 Z M 3.09375 -19.4375 C 3.007812 -19.4375 2.96875 -19.394531 2.96875 -19.3125 C 2.96875 -19.257812 3.007812 -19.234375 3.09375 -19.234375 L 5.046875 -19.234375 C 5.117188 -19.234375 5.15625 -19.257812 5.15625 -19.3125 C 5.15625 -19.394531 5.117188 -19.4375 5.046875 -19.4375 Z M 3.09375 -18.296875 C 3.007812 -18.296875 2.96875 -18.265625 2.96875 -18.203125 C 2.96875 -18.128906 3.007812 -18.09375 3.09375 -18.09375 L 5.046875 -18.09375 C 5.117188 -18.09375 5.15625 -18.128906 5.15625 -18.203125 C 5.15625 -18.265625 5.117188 -18.296875 5.046875 -18.296875 Z M 5.046875 -2.453125 C 5.117188 -2.453125 5.15625 -2.492188 5.15625 -2.578125 C 5.15625 -2.640625 5.117188 -2.671875 5.046875 -2.671875 L 3.09375 -2.671875 C 3.007812 -2.671875 2.96875 -2.640625 2.96875 -2.578125 C 2.96875 -2.492188 3.007812 -2.453125 3.09375 -2.453125 Z M 1.109375 -19.375 C 1.109375 -19.375 1.097656 -19.378906 1.078125 -19.390625 C 1.054688 -19.398438 1.003906 -19.410156 0.921875 -19.421875 C 0.847656 -19.429688 0.726562 -19.453125 0.5625 -19.484375 C 0.40625 -19.515625 0.1875 -19.5625 -0.09375 -19.625 L 0.203125 -19.921875 C 0.242188 -19.898438 0.351562 -19.863281 0.53125 -19.8125 C 0.71875 -19.757812 0.910156 -19.613281 1.109375 -19.375 Z M 1.109375 -19.375 "/></g></g></g><g fill="#40514e" fill-opacity="1"><g transform="translate(193.677274, 254.520497)"><g><path d="M 4.078125 -1.015625 C 3.679688 -0.617188 3.28125 -0.332031 2.875 -0.15625 C 2.519531 0.0078125 2.125 0.0664062 1.6875 0.015625 C 1.257812 -0.0351562 0.816406 -0.320312 0.359375 -0.84375 C 0.722656 -0.9375 1.039062 -1.09375 1.3125 -1.3125 C 1.5625 -1.519531 1.785156 -1.804688 1.984375 -2.171875 C 2.179688 -2.546875 2.28125 -3.050781 2.28125 -3.6875 L 2.28125 -17.671875 C 2.28125 -18.304688 2.179688 -18.800781 1.984375 -19.15625 C 1.785156 -19.519531 1.5625 -19.816406 1.3125 -20.046875 C 1.039062 -20.265625 0.722656 -20.429688 0.359375 -20.546875 C 0.816406 -21.066406 1.257812 -21.351562 1.6875 -21.40625 C 2.125 -21.457031 2.519531 -21.398438 2.875 -21.234375 C 3.28125 -21.054688 3.679688 -20.769531 4.078125 -20.375 C 4.460938 -20.769531 4.851562 -21.054688 5.25 -21.234375 C 5.59375 -21.398438 5.988281 -21.457031 6.4375 -21.40625 C 6.882812 -21.351562 7.335938 -21.066406 7.796875 -20.546875 C 7.441406 -20.429688 7.125 -20.265625 6.84375 -20.046875 C 6.601562 -19.816406 6.378906 -19.519531 6.171875 -19.15625 C 5.972656 -18.800781 5.875 -18.304688 5.875 -17.671875 L 5.875 -3.6875 C 5.875 -3.050781 5.972656 -2.546875 6.171875 -2.171875 C 6.378906 -1.804688 6.601562 -1.519531 6.84375 -1.3125 C 7.125 -1.09375 7.441406 -0.9375 7.796875 -0.84375 C 7.335938 -0.320312 6.882812 -0.0351562 6.4375 0.015625 C 5.988281 0.0664062 5.59375 0.0078125 5.25 -0.15625 C 4.851562 -0.332031 4.460938 -0.617188 4.078125 -1.015625 Z M 7.234375 -19.5625 C 7.492188 -19.78125 7.765625 -19.910156 8.046875 -19.953125 C 8.335938 -19.992188 8.65625 -20.050781 9 -20.125 L 7.921875 -21.328125 C 8.015625 -21.285156 8.113281 -21.226562 8.21875 -21.15625 C 8.320312 -21.09375 8.441406 -20.992188 8.578125 -20.859375 C 8.722656 -20.734375 8.890625 -20.566406 9.078125 -20.359375 C 9.265625 -20.160156 9.5 -19.914062 9.78125 -19.625 C 9.257812 -19.539062 8.859375 -19.445312 8.578125 -19.34375 C 8.296875 -19.25 8.109375 -19.148438 8.015625 -19.046875 C 7.847656 -18.890625 7.6875 -18.675781 7.53125 -18.40625 C 7.375 -18.132812 7.296875 -17.71875 7.296875 -17.15625 L 7.296875 -3.1875 C 7.296875 -2.71875 7.347656 -2.359375 7.453125 -2.109375 C 7.566406 -1.859375 7.691406 -1.65625 7.828125 -1.5 C 7.765625 -1.519531 7.671875 -1.554688 7.546875 -1.609375 C 7.429688 -1.671875 7.316406 -1.765625 7.203125 -1.890625 C 7.035156 -2.046875 6.882812 -2.253906 6.75 -2.515625 C 6.613281 -2.773438 6.546875 -3.164062 6.546875 -3.6875 L 6.546875 -17.671875 C 6.546875 -18.234375 6.617188 -18.644531 6.765625 -18.90625 C 6.910156 -19.175781 7.066406 -19.394531 7.234375 -19.5625 Z M 9.78125 -0.75 L 9.03125 0.09375 C 8.707031 0.46875 8.351562 0.738281 7.96875 0.90625 C 7.59375 1.082031 7.226562 1.171875 6.875 1.171875 C 6.414062 1.148438 6.015625 1.050781 5.671875 0.875 C 5.328125 0.707031 5.046875 0.535156 4.828125 0.359375 C 4.609375 0.535156 4.328125 0.707031 3.984375 0.875 C 3.648438 1.050781 3.253906 1.148438 2.796875 1.171875 C 2.171875 1.171875 1.566406 0.921875 0.984375 0.421875 C 1.304688 0.578125 1.660156 0.65625 2.046875 0.65625 C 2.503906 0.632812 2.898438 0.539062 3.234375 0.375 C 3.578125 0.207031 3.859375 0.03125 4.078125 -0.15625 C 4.296875 0.03125 4.578125 0.207031 4.921875 0.375 C 5.265625 0.539062 5.664062 0.632812 6.125 0.65625 C 6.476562 0.65625 6.835938 0.570312 7.203125 0.40625 C 7.578125 0.238281 7.925781 -0.0351562 8.25 -0.421875 L 8.734375 -0.9375 Z M 3.15625 -11.875 C 3.007812 -11.875 2.9375 -11.804688 2.9375 -11.671875 C 2.9375 -11.546875 3.007812 -11.484375 3.15625 -11.484375 L 5.09375 -11.484375 C 5.238281 -11.484375 5.3125 -11.546875 5.3125 -11.671875 C 5.3125 -11.804688 5.238281 -11.875 5.09375 -11.875 Z M 3.15625 -10.40625 C 3.007812 -10.40625 2.9375 -10.335938 2.9375 -10.203125 C 2.9375 -10.078125 3.007812 -10.015625 3.15625 -10.015625 L 5.09375 -10.015625 C 5.238281 -10.015625 5.3125 -10.078125 5.3125 -10.203125 C 5.3125 -10.335938 5.238281 -10.40625 5.09375 -10.40625 Z M 5.09375 -7.203125 C 5.21875 -7.203125 5.28125 -7.25 5.28125 -7.34375 C 5.28125 -7.46875 5.21875 -7.53125 5.09375 -7.53125 L 3.15625 -7.53125 C 3.03125 -7.53125 2.96875 -7.46875 2.96875 -7.34375 C 2.96875 -7.25 3.03125 -7.203125 3.15625 -7.203125 Z M 5.09375 -8.609375 C 5.21875 -8.609375 5.28125 -8.660156 5.28125 -8.765625 C 5.28125 -8.878906 5.21875 -8.9375 5.09375 -8.9375 L 3.15625 -8.9375 C 3.03125 -8.9375 2.96875 -8.878906 2.96875 -8.765625 C 2.96875 -8.660156 3.03125 -8.609375 3.15625 -8.609375 Z M 5.28125 -13.140625 C 5.28125 -13.242188 5.21875 -13.296875 5.09375 -13.296875 L 3.15625 -13.296875 C 3.03125 -13.296875 2.96875 -13.242188 2.96875 -13.140625 C 2.96875 -13.015625 3.03125 -12.953125 3.15625 -12.953125 L 5.09375 -12.953125 C 5.21875 -12.953125 5.28125 -13.015625 5.28125 -13.140625 Z M 3.15625 -14.703125 C 3.03125 -14.703125 2.96875 -14.648438 2.96875 -14.546875 C 2.96875 -14.429688 3.03125 -14.375 3.15625 -14.375 L 5.09375 -14.375 C 5.21875 -14.375 5.28125 -14.429688 5.28125 -14.546875 C 5.28125 -14.648438 5.21875 -14.703125 5.09375 -14.703125 Z M 5.09375 -4.6875 C 5.175781 -4.6875 5.21875 -4.734375 5.21875 -4.828125 C 5.21875 -4.910156 5.175781 -4.953125 5.09375 -4.953125 L 3.15625 -4.953125 C 3.050781 -4.953125 3 -4.910156 3 -4.828125 C 3 -4.734375 3.050781 -4.6875 3.15625 -4.6875 Z M 3.15625 -16.109375 C 3.050781 -16.109375 3 -16.066406 3 -15.984375 C 3 -15.910156 3.050781 -15.875 3.15625 -15.875 L 5.09375 -15.875 C 5.175781 -15.875 5.21875 -15.910156 5.21875 -15.984375 C 5.21875 -16.066406 5.175781 -16.109375 5.09375 -16.109375 Z M 5.09375 -5.796875 C 5.175781 -5.796875 5.21875 -5.832031 5.21875 -5.90625 C 5.21875 -5.988281 5.175781 -6.03125 5.09375 -6.03125 L 3.15625 -6.03125 C 3.050781 -6.03125 3 -5.988281 3 -5.90625 C 3 -5.832031 3.050781 -5.796875 3.15625 -5.796875 Z M 3.15625 -17.21875 C 3.050781 -17.21875 3 -17.164062 3 -17.0625 C 3 -16.988281 3.050781 -16.953125 3.15625 -16.953125 L 5.09375 -16.953125 C 5.175781 -16.953125 5.21875 -16.988281 5.21875 -17.0625 C 5.21875 -17.164062 5.175781 -17.21875 5.09375 -17.21875 Z M 3.15625 -19.4375 C 3.070312 -19.4375 3.03125 -19.394531 3.03125 -19.3125 C 3.03125 -19.257812 3.070312 -19.234375 3.15625 -19.234375 L 5.09375 -19.234375 C 5.15625 -19.234375 5.1875 -19.257812 5.1875 -19.3125 C 5.1875 -19.394531 5.15625 -19.4375 5.09375 -19.4375 Z M 5.09375 -2.453125 C 5.15625 -2.453125 5.1875 -2.492188 5.1875 -2.578125 C 5.1875 -2.640625 5.15625 -2.671875 5.09375 -2.671875 L 3.15625 -2.671875 C 3.070312 -2.671875 3.03125 -2.640625 3.03125 -2.578125 C 3.03125 -2.492188 3.070312 -2.453125 3.15625 -2.453125 Z M 5.09375 -3.59375 C 5.15625 -3.59375 5.1875 -3.625 5.1875 -3.6875 C 5.1875 -3.769531 5.15625 -3.8125 5.09375 -3.8125 L 3.15625 -3.8125 C 3.070312 -3.8125 3.03125 -3.769531 3.03125 -3.6875 C 3.03125 -3.625 3.070312 -3.59375 3.15625 -3.59375 Z M 3.15625 -18.296875 C 3.070312 -18.296875 3.03125 -18.265625 3.03125 -18.203125 C 3.03125 -18.128906 3.070312 -18.09375 3.15625 -18.09375 L 5.09375 -18.09375 C 5.15625 -18.09375 5.1875 -18.128906 5.1875 -18.203125 C 5.1875 -18.265625 5.15625 -18.296875 5.09375 -18.296875 Z M 0.1875 -19.921875 C 0.21875 -19.921875 0.316406 -19.882812 0.484375 -19.8125 C 0.660156 -19.738281 0.859375 -19.59375 1.078125 -19.375 C 1.054688 -19.394531 0.992188 -19.414062 0.890625 -19.4375 C 0.796875 -19.457031 0.46875 -19.519531 -0.09375 -19.625 Z M 0.1875 -19.921875 "/></g></g></g><g fill="#40514e" fill-opacity="1"><g transform="translate(206.81735, 254.520497)"><g><path d="M 16.046875 -1.015625 C 15.691406 -0.597656 15.300781 -0.300781 14.875 -0.125 C 14.519531 0.0390625 14.109375 0.0976562 13.640625 0.046875 C 13.179688 -0.00390625 12.703125 -0.300781 12.203125 -0.84375 C 12.546875 -0.90625 12.847656 -1.035156 13.109375 -1.234375 C 13.328125 -1.390625 13.515625 -1.617188 13.671875 -1.921875 C 13.835938 -2.222656 13.898438 -2.625 13.859375 -3.125 L 13.734375 -3.296875 C 13.660156 -3.441406 13.5625 -3.609375 13.4375 -3.796875 C 13.320312 -3.984375 13.179688 -4.1875 13.015625 -4.40625 C 12.679688 -4.832031 12.269531 -5.25 11.78125 -5.65625 C 11.289062 -6.0625 10.710938 -6.359375 10.046875 -6.546875 C 9.742188 -6.617188 9.457031 -6.664062 9.1875 -6.6875 C 8.925781 -6.707031 8.664062 -6.71875 8.40625 -6.71875 C 7.757812 -6.71875 7.21875 -6.648438 6.78125 -6.515625 C 6.34375 -6.390625 6.015625 -6.28125 5.796875 -6.1875 C 5.648438 -5.800781 5.523438 -5.457031 5.421875 -5.15625 C 5.328125 -4.851562 5.238281 -4.59375 5.15625 -4.375 C 5.082031 -4.113281 4.992188 -3.882812 4.890625 -3.6875 C 4.671875 -3.050781 4.601562 -2.546875 4.6875 -2.171875 C 4.78125 -1.804688 4.925781 -1.519531 5.125 -1.3125 C 5.34375 -1.09375 5.644531 -0.9375 6.03125 -0.84375 C 5.570312 -0.34375 5.160156 -0.0703125 4.796875 -0.03125 C 4.441406 0.0078125 4.144531 -0.046875 3.90625 -0.203125 C 3.625 -0.390625 3.375 -0.660156 3.15625 -1.015625 C 2.832031 -0.617188 2.5 -0.332031 2.15625 -0.15625 C 1.875 0.0078125 1.570312 0.0664062 1.25 0.015625 C 0.9375 -0.0351562 0.648438 -0.320312 0.390625 -0.84375 C 0.765625 -0.9375 1.132812 -1.09375 1.5 -1.3125 C 1.800781 -1.519531 2.117188 -1.804688 2.453125 -2.171875 C 2.796875 -2.546875 3.078125 -3.050781 3.296875 -3.6875 C 4.097656 -5.863281 4.835938 -7.882812 5.515625 -9.75 C 5.816406 -10.550781 6.113281 -11.347656 6.40625 -12.140625 C 6.695312 -12.941406 6.972656 -13.703125 7.234375 -14.421875 C 7.492188 -15.148438 7.722656 -15.789062 7.921875 -16.34375 C 8.117188 -16.90625 8.28125 -17.347656 8.40625 -17.671875 C 8.664062 -18.367188 8.707031 -18.96875 8.53125 -19.46875 C 8.363281 -19.96875 7.929688 -20.328125 7.234375 -20.546875 C 7.546875 -21.066406 7.914062 -21.351562 8.34375 -21.40625 C 8.78125 -21.457031 9.195312 -21.398438 9.59375 -21.234375 C 10.0625 -21.054688 10.535156 -20.769531 11.015625 -20.375 C 11.296875 -20.769531 11.613281 -21.054688 11.96875 -21.234375 C 12.289062 -21.398438 12.675781 -21.457031 13.125 -21.40625 C 13.570312 -21.351562 14.097656 -21.066406 14.703125 -20.546875 C 14.359375 -20.429688 14.078125 -20.265625 13.859375 -20.046875 C 13.679688 -19.816406 13.539062 -19.519531 13.4375 -19.15625 C 13.34375 -18.800781 13.382812 -18.304688 13.5625 -17.671875 C 13.644531 -17.347656 13.757812 -16.90625 13.90625 -16.34375 C 14.050781 -15.789062 14.222656 -15.148438 14.421875 -14.421875 C 14.628906 -13.703125 14.84375 -12.941406 15.0625 -12.140625 C 15.28125 -11.347656 15.5 -10.550781 15.71875 -9.75 C 16.238281 -7.882812 16.789062 -5.863281 17.375 -3.6875 C 17.53125 -3.050781 17.765625 -2.546875 18.078125 -2.171875 C 18.390625 -1.804688 18.679688 -1.519531 18.953125 -1.3125 C 19.296875 -1.09375 19.660156 -0.9375 20.046875 -0.84375 C 19.722656 -0.320312 19.332031 -0.0351562 18.875 0.015625 C 18.425781 0.0664062 17.992188 0.0078125 17.578125 -0.15625 C 17.078125 -0.332031 16.566406 -0.617188 16.046875 -1.015625 Z M 10.375 -7.734375 C 10.914062 -7.578125 11.40625 -7.367188 11.84375 -7.109375 C 12.289062 -6.847656 12.679688 -6.566406 13.015625 -6.265625 L 9.953125 -17.578125 C 9.796875 -17.179688 9.582031 -16.609375 9.3125 -15.859375 C 9.039062 -15.109375 8.738281 -14.273438 8.40625 -13.359375 C 8.082031 -12.453125 7.738281 -11.503906 7.375 -10.515625 C 7.019531 -9.523438 6.679688 -8.597656 6.359375 -7.734375 C 6.640625 -7.816406 6.945312 -7.882812 7.28125 -7.9375 C 7.625 -7.988281 8 -8.015625 8.40625 -8.015625 C 9 -8.015625 9.65625 -7.921875 10.375 -7.734375 Z M 14.1875 -17.84375 C 14.09375 -18.144531 14.046875 -18.472656 14.046875 -18.828125 C 14.046875 -19.191406 14.179688 -19.492188 14.453125 -19.734375 C 14.640625 -19.921875 14.890625 -20.023438 15.203125 -20.046875 C 15.523438 -20.078125 15.816406 -20.113281 16.078125 -20.15625 C 15.554688 -20.613281 15.234375 -20.894531 15.109375 -21 C 14.992188 -21.101562 14.925781 -21.164062 14.90625 -21.1875 C 14.988281 -21.144531 15.078125 -21.097656 15.171875 -21.046875 C 15.273438 -20.992188 15.398438 -20.910156 15.546875 -20.796875 C 15.703125 -20.691406 15.882812 -20.546875 16.09375 -20.359375 C 16.300781 -20.179688 16.554688 -19.945312 16.859375 -19.65625 C 16.640625 -19.613281 16.351562 -19.578125 16 -19.546875 C 15.65625 -19.515625 15.390625 -19.410156 15.203125 -19.234375 C 14.941406 -19.015625 14.804688 -18.722656 14.796875 -18.359375 C 14.796875 -17.992188 14.84375 -17.65625 14.9375 -17.34375 L 17.09375 -9.421875 C 17.320312 -8.597656 17.53125 -7.828125 17.71875 -7.109375 C 17.90625 -6.390625 18.078125 -5.75 18.234375 -5.1875 C 18.421875 -4.53125 18.59375 -3.921875 18.75 -3.359375 C 18.851562 -2.921875 19 -2.5625 19.1875 -2.28125 C 19.375 -2 19.566406 -1.78125 19.765625 -1.625 C 19.691406 -1.664062 19.609375 -1.703125 19.515625 -1.734375 C 19.421875 -1.773438 19.328125 -1.847656 19.234375 -1.953125 C 19.015625 -2.109375 18.785156 -2.335938 18.546875 -2.640625 C 18.316406 -2.941406 18.125 -3.351562 17.96875 -3.875 C 17.832031 -4.425781 17.671875 -5.035156 17.484375 -5.703125 C 17.328125 -6.265625 17.15625 -6.90625 16.96875 -7.625 C 16.78125 -8.34375 16.570312 -9.113281 16.34375 -9.9375 Z M 9.875 -15.484375 L 10.296875 -13.984375 L 8.34375 -8.640625 C 8.15625 -8.640625 7.988281 -8.632812 7.84375 -8.625 C 7.695312 -8.613281 7.539062 -8.597656 7.375 -8.578125 Z M 8.40625 -6.09375 C 8.863281 -6.09375 9.363281 -6.03125 9.90625 -5.90625 C 10.5 -5.726562 11.023438 -5.441406 11.484375 -5.046875 C 11.265625 -5.179688 10.988281 -5.300781 10.65625 -5.40625 C 10.113281 -5.519531 9.625 -5.578125 9.1875 -5.578125 L 9.09375 -5.578125 C 8.65625 -5.578125 8.257812 -5.53125 7.90625 -5.4375 C 7.550781 -5.351562 7.265625 -5.269531 7.046875 -5.1875 C 6.929688 -4.851562 6.820312 -4.550781 6.71875 -4.28125 C 6.613281 -4.007812 6.535156 -3.769531 6.484375 -3.5625 C 6.398438 -3.34375 6.328125 -3.144531 6.265625 -2.96875 C 6.128906 -2.613281 6.0625 -2.304688 6.0625 -2.046875 C 6.0625 -1.816406 6.109375 -1.625 6.203125 -1.46875 C 5.941406 -1.46875 5.734375 -1.582031 5.578125 -1.8125 C 5.421875 -2.039062 5.332031 -2.285156 5.3125 -2.546875 C 5.3125 -2.671875 5.320312 -2.804688 5.34375 -2.953125 C 5.363281 -3.109375 5.421875 -3.285156 5.515625 -3.484375 C 5.578125 -3.660156 5.648438 -3.859375 5.734375 -4.078125 C 5.785156 -4.273438 5.863281 -4.507812 5.96875 -4.78125 C 6.070312 -5.050781 6.179688 -5.359375 6.296875 -5.703125 C 6.515625 -5.773438 6.800781 -5.859375 7.15625 -5.953125 C 7.519531 -6.046875 7.9375 -6.09375 8.40625 -6.09375 Z M 21.84375 -0.8125 L 21.359375 0 C 21.117188 0.394531 20.804688 0.6875 20.421875 0.875 C 20.046875 1.070312 19.671875 1.171875 19.296875 1.171875 C 18.890625 1.171875 18.519531 1.109375 18.1875 0.984375 C 17.863281 0.867188 17.5625 0.726562 17.28125 0.5625 L 16.890625 0.328125 L 16.625 0.546875 C 16.40625 0.703125 16.140625 0.851562 15.828125 1 C 15.515625 1.15625 15.160156 1.234375 14.765625 1.234375 C 14.460938 1.234375 14.148438 1.171875 13.828125 1.046875 C 13.503906 0.929688 13.195312 0.734375 12.90625 0.453125 C 13.257812 0.628906 13.628906 0.71875 14.015625 0.71875 C 14.410156 0.71875 14.765625 0.640625 15.078125 0.484375 C 15.390625 0.335938 15.65625 0.1875 15.875 0.03125 L 16.109375 -0.1875 L 16.53125 0.0625 C 16.8125 0.21875 17.113281 0.351562 17.4375 0.46875 C 17.769531 0.59375 18.140625 0.65625 18.546875 0.65625 C 18.921875 0.65625 19.296875 0.5625 19.671875 0.375 C 20.054688 0.1875 20.367188 -0.109375 20.609375 -0.515625 L 20.84375 -0.953125 Z M 7.046875 -0.9375 L 8.09375 -0.75 L 7.296875 0.09375 C 6.628906 0.789062 5.96875 1.140625 5.3125 1.140625 C 4.96875 1.117188 4.675781 1.039062 4.4375 0.90625 C 4.195312 0.78125 4 0.648438 3.84375 0.515625 C 3.9375 0.546875 4.039062 0.566406 4.15625 0.578125 C 4.28125 0.585938 4.40625 0.601562 4.53125 0.625 C 5.164062 0.625 5.835938 0.273438 6.546875 -0.421875 Z M 3.0625 -0.03125 C 3.15625 0.0703125 3.257812 0.164062 3.375 0.25 C 3.5 0.34375 3.644531 0.421875 3.8125 0.484375 C 3.632812 0.640625 3.421875 0.789062 3.171875 0.9375 C 2.921875 1.09375 2.613281 1.171875 2.25 1.171875 C 1.832031 1.191406 1.421875 1 1.015625 0.59375 C 1.097656 0.613281 1.171875 0.628906 1.234375 0.640625 C 1.304688 0.648438 1.394531 0.65625 1.5 0.65625 C 1.84375 0.65625 2.140625 0.578125 2.390625 0.421875 C 2.640625 0.273438 2.851562 0.132812 3.03125 0 Z M 14.703125 -11.671875 C 14.703125 -11.804688 14.640625 -11.875 14.515625 -11.875 L 12.515625 -11.875 C 12.390625 -11.875 12.328125 -11.804688 12.328125 -11.671875 C 12.328125 -11.546875 12.390625 -11.484375 12.515625 -11.484375 L 14.515625 -11.484375 C 14.640625 -11.484375 14.703125 -11.546875 14.703125 -11.671875 Z M 15.0625 -10.203125 C 15.0625 -10.335938 15 -10.40625 14.875 -10.40625 L 12.9375 -10.40625 C 12.789062 -10.40625 12.71875 -10.335938 12.71875 -10.203125 C 12.71875 -10.078125 12.789062 -10.015625 12.9375 -10.015625 L 14.875 -10.015625 C 15 -10.015625 15.0625 -10.078125 15.0625 -10.203125 Z M 14.28125 -13.140625 C 14.28125 -13.242188 14.226562 -13.296875 14.125 -13.296875 L 12.15625 -13.296875 C 12.03125 -13.296875 11.96875 -13.242188 11.96875 -13.140625 C 11.96875 -13.015625 12.03125 -12.953125 12.15625 -12.953125 L 14.125 -12.953125 C 14.226562 -12.953125 14.28125 -13.015625 14.28125 -13.140625 Z M 11.765625 -14.703125 C 11.660156 -14.703125 11.609375 -14.648438 11.609375 -14.546875 C 11.609375 -14.429688 11.660156 -14.375 11.765625 -14.375 L 13.734375 -14.375 C 13.835938 -14.375 13.890625 -14.429688 13.890625 -14.546875 C 13.890625 -14.648438 13.835938 -14.703125 13.734375 -14.703125 Z M 15.65625 -7.203125 C 15.757812 -7.203125 15.8125 -7.25 15.8125 -7.34375 C 15.8125 -7.46875 15.757812 -7.53125 15.65625 -7.53125 L 13.6875 -7.53125 C 13.5625 -7.53125 13.5 -7.46875 13.5 -7.34375 C 13.5 -7.25 13.5625 -7.203125 13.6875 -7.203125 Z M 13.140625 -8.765625 C 13.140625 -8.660156 13.195312 -8.609375 13.3125 -8.609375 L 15.265625 -8.609375 C 15.367188 -8.609375 15.421875 -8.660156 15.421875 -8.765625 C 15.421875 -8.878906 15.367188 -8.9375 15.265625 -8.9375 L 13.3125 -8.9375 C 13.195312 -8.9375 13.140625 -8.878906 13.140625 -8.765625 Z M 9.421875 -19.4375 C 9.359375 -19.4375 9.328125 -19.394531 9.328125 -19.3125 C 9.328125 -19.257812 9.359375 -19.234375 9.421875 -19.234375 L 12.484375 -19.234375 C 12.535156 -19.234375 12.5625 -19.257812 12.5625 -19.3125 C 12.5625 -19.394531 12.535156 -19.4375 12.484375 -19.4375 Z M 16.4375 -4.828125 C 16.4375 -4.910156 16.394531 -4.953125 16.3125 -4.953125 L 14.375 -4.953125 C 14.269531 -4.953125 14.21875 -4.910156 14.21875 -4.828125 C 14.21875 -4.734375 14.269531 -4.6875 14.375 -4.6875 L 16.3125 -4.6875 C 16.394531 -4.6875 16.4375 -4.734375 16.4375 -4.828125 Z M 13.953125 -5.90625 C 13.953125 -5.832031 13.984375 -5.796875 14.046875 -5.796875 L 16.046875 -5.796875 C 16.128906 -5.796875 16.171875 -5.832031 16.171875 -5.90625 C 16.171875 -5.988281 16.128906 -6.03125 16.046875 -6.03125 L 14.046875 -6.03125 C 13.984375 -6.03125 13.953125 -5.988281 13.953125 -5.90625 Z M 13.5 -15.984375 C 13.5 -16.066406 13.445312 -16.109375 13.34375 -16.109375 L 11.40625 -16.109375 C 11.320312 -16.109375 11.28125 -16.066406 11.28125 -15.984375 C 11.28125 -15.910156 11.320312 -15.875 11.40625 -15.875 L 13.34375 -15.875 C 13.445312 -15.875 13.5 -15.910156 13.5 -15.984375 Z M 13.171875 -17.0625 C 13.171875 -17.164062 13.128906 -17.21875 13.046875 -17.21875 L 11.09375 -17.21875 C 11 -17.21875 10.953125 -17.164062 10.953125 -17.0625 C 10.953125 -16.988281 11 -16.953125 11.09375 -16.953125 L 13.046875 -16.953125 C 13.128906 -16.953125 13.171875 -16.988281 13.171875 -17.0625 Z M 17.046875 -2.578125 C 17.046875 -2.640625 17.003906 -2.671875 16.921875 -2.671875 L 14.9375 -2.671875 C 14.875 -2.671875 14.84375 -2.640625 14.84375 -2.578125 C 14.84375 -2.492188 14.875 -2.453125 14.9375 -2.453125 L 16.921875 -2.453125 C 17.003906 -2.453125 17.046875 -2.492188 17.046875 -2.578125 Z M 12.875 -18.203125 C 12.875 -18.265625 12.832031 -18.296875 12.75 -18.296875 L 10.796875 -18.296875 C 10.722656 -18.296875 10.6875 -18.265625 10.6875 -18.203125 C 10.6875 -18.128906 10.722656 -18.09375 10.796875 -18.09375 L 12.75 -18.09375 C 12.832031 -18.09375 12.875 -18.128906 12.875 -18.203125 Z M 16.734375 -3.6875 C 16.734375 -3.769531 16.695312 -3.8125 16.625 -3.8125 L 14.671875 -3.8125 C 14.585938 -3.8125 14.546875 -3.769531 14.546875 -3.6875 C 14.546875 -3.625 14.585938 -3.59375 14.671875 -3.59375 L 16.625 -3.59375 C 16.695312 -3.59375 16.734375 -3.625 16.734375 -3.6875 Z M 6.1875 -10.40625 C 6.039062 -10.40625 5.96875 -10.335938 5.96875 -10.203125 C 5.96875 -10.078125 6.039062 -10.015625 6.1875 -10.015625 L 6.59375 -10.015625 C 6.738281 -10.015625 6.8125 -10.078125 6.8125 -10.203125 C 6.8125 -10.335938 6.738281 -10.40625 6.59375 -10.40625 Z M 6.71875 -11.875 C 6.582031 -11.875 6.515625 -11.804688 6.515625 -11.671875 C 6.515625 -11.546875 6.582031 -11.484375 6.71875 -11.484375 L 7.140625 -11.484375 C 7.253906 -11.484375 7.3125 -11.546875 7.3125 -11.671875 C 7.3125 -11.804688 7.253906 -11.875 7.140625 -11.875 Z M 7.734375 -14.703125 C 7.617188 -14.703125 7.5625 -14.648438 7.5625 -14.546875 C 7.5625 -14.429688 7.617188 -14.375 7.734375 -14.375 L 8.15625 -14.375 C 8.28125 -14.375 8.34375 -14.429688 8.34375 -14.546875 C 8.34375 -14.648438 8.28125 -14.703125 8.15625 -14.703125 Z M 5.578125 -7.203125 C 5.679688 -7.203125 5.734375 -7.25 5.734375 -7.34375 C 5.734375 -7.46875 5.679688 -7.53125 5.578125 -7.53125 L 5.15625 -7.53125 C 5.039062 -7.53125 4.984375 -7.46875 4.984375 -7.34375 C 4.984375 -7.25 5.039062 -7.203125 5.15625 -7.203125 Z M 7.234375 -13.296875 C 7.109375 -13.296875 7.046875 -13.242188 7.046875 -13.140625 C 7.046875 -13.015625 7.109375 -12.953125 7.234375 -12.953125 L 7.65625 -12.953125 C 7.75 -12.953125 7.796875 -13.015625 7.796875 -13.140625 C 7.796875 -13.242188 7.75 -13.296875 7.65625 -13.296875 Z M 6.09375 -8.609375 C 6.1875 -8.609375 6.234375 -8.660156 6.234375 -8.765625 C 6.234375 -8.878906 6.1875 -8.9375 6.09375 -8.9375 L 5.671875 -8.9375 C 5.546875 -8.9375 5.484375 -8.878906 5.484375 -8.765625 C 5.484375 -8.660156 5.546875 -8.609375 5.671875 -8.609375 Z M 7.703125 -19.625 C 7.742188 -19.582031 7.773438 -19.546875 7.796875 -19.515625 C 7.816406 -19.484375 7.847656 -19.445312 7.890625 -19.40625 L 6.984375 -19.5625 L 7.203125 -19.890625 C 7.398438 -19.847656 7.566406 -19.757812 7.703125 -19.625 Z M 4.6875 -4.6875 C 4.757812 -4.6875 4.796875 -4.734375 4.796875 -4.828125 C 4.796875 -4.910156 4.757812 -4.953125 4.6875 -4.953125 L 4.234375 -4.953125 C 4.148438 -4.953125 4.109375 -4.910156 4.109375 -4.828125 C 4.109375 -4.734375 4.148438 -4.6875 4.234375 -4.6875 Z M 8.25 -16.109375 C 8.144531 -16.109375 8.09375 -16.066406 8.09375 -15.984375 C 8.09375 -15.910156 8.144531 -15.875 8.25 -15.875 L 8.671875 -15.875 C 8.753906 -15.875 8.796875 -15.910156 8.796875 -15.984375 C 8.796875 -16.066406 8.753906 -16.109375 8.671875 -16.109375 Z M 5.0625 -5.796875 C 5.144531 -5.796875 5.1875 -5.832031 5.1875 -5.90625 C 5.1875 -5.988281 5.144531 -6.03125 5.0625 -6.03125 L 4.65625 -6.03125 C 4.550781 -6.03125 4.5 -5.988281 4.5 -5.90625 C 4.5 -5.832031 4.550781 -5.796875 4.65625 -5.796875 Z M 8.640625 -17.21875 C 8.554688 -17.21875 8.515625 -17.164062 8.515625 -17.0625 C 8.515625 -16.988281 8.554688 -16.953125 8.640625 -16.953125 L 9.09375 -16.953125 C 9.164062 -16.953125 9.203125 -16.988281 9.203125 -17.0625 C 9.203125 -17.164062 9.164062 -17.21875 9.09375 -17.21875 Z M 9.03125 -18.296875 C 8.945312 -18.296875 8.90625 -18.265625 8.90625 -18.203125 C 8.90625 -18.128906 8.945312 -18.09375 9.03125 -18.09375 L 9.484375 -18.09375 C 9.554688 -18.09375 9.59375 -18.128906 9.59375 -18.203125 C 9.59375 -18.265625 9.554688 -18.296875 9.484375 -18.296875 Z M 3.875 -2.453125 C 3.945312 -2.453125 3.984375 -2.492188 3.984375 -2.578125 C 3.984375 -2.640625 3.945312 -2.671875 3.875 -2.671875 L 3.453125 -2.671875 C 3.367188 -2.671875 3.328125 -2.640625 3.328125 -2.578125 C 3.328125 -2.492188 3.367188 -2.453125 3.453125 -2.453125 Z M 4.265625 -3.59375 C 4.316406 -3.59375 4.34375 -3.625 4.34375 -3.6875 C 4.34375 -3.769531 4.316406 -3.8125 4.265625 -3.8125 L 3.8125 -3.8125 C 3.75 -3.8125 3.71875 -3.769531 3.71875 -3.6875 C 3.71875 -3.625 3.75 -3.59375 3.8125 -3.59375 Z M 4.265625 -3.59375 "/></g></g></g><g clip-path="url(#a1cf89f323)"><g clip-path="url(#4c3f25726e)"><path fill="#11999e" d="M 174.394531 152.832031 L 200.605469 152.832031 L 200.605469 175.820312 L 174.394531 175.820312 Z M 174.394531 152.832031 " fill-opacity="1" fill-rule="nonzero"/></g></g><g mask="url(#048eda566e)"><g transform="matrix(1, 0, 0, 1, 175, 154)"><g clip-path="url(#e40cd75d04)"><g clip-path="url(#3eb340878f)"><g clip-path="url(#f9c8ae72b6)"><path fill="#30e3ca" d="M 0.617188 0.972656 L 24.382812 0.972656 L 24.382812 21.820312 L 0.617188 21.820312 Z M 0.617188 0.972656 " fill-opacity="1" fill-rule="nonzero"/></g></g></g></g></g></svg>