<svg xmlns="http://www.w3.org/2000/svg" xmlns:xlink="http://www.w3.org/1999/xlink" width="500" zoomAndPan="magnify" viewBox="0 0 375 374.999991" height="500" preserveAspectRatio="xMidYMid meet" version="1.0"><defs><filter x="0%" y="0%" width="100%" height="100%" id="624308be8f"><feColorMatrix values="0 0 0 0 1 0 0 0 0 1 0 0 0 0 1 0 0 0 1 0" color-interpolation-filters="sRGB"/></filter><g/><clipPath id="fde0ecfb48"><path d="M 130.230469 105.878906 L 244.980469 105.878906 L 244.980469 220.628906 L 130.230469 220.628906 Z M 130.230469 105.878906 " clip-rule="nonzero"/></clipPath><clipPath id="4483d6e59b"><path d="M 187.605469 105.878906 C 155.917969 105.878906 130.230469 131.566406 130.230469 163.253906 C 130.230469 194.941406 155.917969 220.628906 187.605469 220.628906 C 219.292969 220.628906 244.980469 194.941406 244.980469 163.253906 C 244.980469 131.566406 219.292969 105.878906 187.605469 105.878906 " clip-rule="nonzero"/></clipPath><clipPath id="3bd1f46a48"><path d="M 149 136 L 225 136 L 225 174 L 149 174 Z M 149 136 " clip-rule="nonzero"/></clipPath><clipPath id="c2b721bbc3"><path d="M 224.84375 117.242188 L 225.117188 208.742188 L 150.121094 208.964844 L 149.84375 117.46875 Z M 224.84375 117.242188 " clip-rule="nonzero"/></clipPath><clipPath id="bd9fa239a0"><path d="M 224.84375 117.242188 L 225.117188 208.742188 L 150.121094 208.964844 L 149.84375 117.46875 Z M 224.84375 117.242188 " clip-rule="nonzero"/></clipPath><clipPath id="fd458291c1"><path d="M 168 117 L 217 117 L 217 209 L 168 209 Z M 168 117 " clip-rule="nonzero"/></clipPath><clipPath id="17e96480c4"><path d="M 224.84375 117.242188 L 225.117188 208.742188 L 150.121094 208.964844 L 149.84375 117.46875 Z M 224.84375 117.242188 " clip-rule="nonzero"/></clipPath><clipPath id="69f8810573"><path d="M 224.84375 117.242188 L 225.117188 208.742188 L 150.121094 208.964844 L 149.84375 117.46875 Z M 224.84375 117.242188 " clip-rule="nonzero"/></clipPath><clipPath id="a068de13d1"><path d="M 169 136 L 204 136 L 204 173 L 169 173 Z M 169 136 " clip-rule="nonzero"/></clipPath><clipPath id="3959557d6d"><path d="M 224.84375 117.242188 L 225.117188 208.742188 L 150.121094 208.964844 L 149.84375 117.46875 Z M 224.84375 117.242188 " clip-rule="nonzero"/></clipPath><clipPath id="592c24fbff"><path d="M 224.84375 117.242188 L 225.117188 208.742188 L 150.121094 208.964844 L 149.84375 117.46875 Z M 224.84375 117.242188 " clip-rule="nonzero"/></clipPath><clipPath id="7ebf680c76"><path d="M 168 136 L 210 136 L 210 173 L 168 173 Z M 168 136 " clip-rule="nonzero"/></clipPath><clipPath id="9f3de40569"><path d="M 224.84375 117.242188 L 225.117188 208.742188 L 150.121094 208.964844 L 149.84375 117.46875 Z M 224.84375 117.242188 " clip-rule="nonzero"/></clipPath><clipPath id="2580a227fa"><path d="M 224.84375 117.242188 L 225.117188 208.742188 L 150.121094 208.964844 L 149.84375 117.46875 Z M 224.84375 117.242188 " clip-rule="nonzero"/></clipPath><clipPath id="65f4564db1"><path d="M 169 135 L 208 135 L 208 175 L 169 175 Z M 169 135 " clip-rule="nonzero"/></clipPath><clipPath id="94beb5495d"><path d="M 224.84375 117.242188 L 225.117188 208.742188 L 150.121094 208.964844 L 149.84375 117.46875 Z M 224.84375 117.242188 " clip-rule="nonzero"/></clipPath><clipPath id="3e5e28049b"><path d="M 224.84375 117.242188 L 225.117188 208.742188 L 150.121094 208.964844 L 149.84375 117.46875 Z M 224.84375 117.242188 " clip-rule="nonzero"/></clipPath><clipPath id="4ce7fb82df"><path d="M 175.007812 147.792969 L 199.992188 147.792969 L 199.992188 169.734375 L 175.007812 169.734375 Z M 175.007812 147.792969 " clip-rule="nonzero"/></clipPath><clipPath id="1e3e2078db"><path d="M 175.007812 154.261719 C 175.007812 161.222656 187.5 169.714844 187.5 169.714844 C 187.5 169.714844 199.9375 161.164062 199.992188 154.261719 C 199.992188 150.699219 197.089844 147.792969 193.527344 147.792969 C 190.789062 147.792969 188.429688 149.546875 187.5 151.957031 C 186.570312 149.546875 184.210938 147.792969 181.472656 147.792969 C 177.910156 147.792969 175.007812 150.699219 175.007812 154.261719 " clip-rule="nonzero"/></clipPath><mask id="eab40fb62f"><g filter="url(#624308be8f)"><rect x="-37.5" width="450" fill="#000000" y="-37.499999" height="449.999989" fill-opacity="0.8196"/></g></mask><clipPath id="22a3ea5397"><path d="M 0.253906 0.980469 L 22.746094 0.980469 L 22.746094 20.730469 L 0.253906 20.730469 Z M 0.253906 0.980469 " clip-rule="nonzero"/></clipPath><clipPath id="defb819dc4"><path d="M 0.253906 6.804688 C 0.253906 13.070312 11.5 20.714844 11.5 20.714844 C 11.5 20.714844 22.695312 13.015625 22.746094 6.804688 C 22.746094 3.597656 20.132812 0.980469 16.925781 0.980469 C 14.460938 0.980469 12.335938 2.5625 11.5 4.730469 C 10.664062 2.5625 8.539062 0.980469 6.074219 0.980469 C 2.867188 0.980469 0.253906 3.597656 0.253906 6.804688 " clip-rule="nonzero"/></clipPath><clipPath id="ad6733c835"><rect x="0" width="23" y="0" height="21"/></clipPath></defs><g clip-path="url(#fde0ecfb48)"><g clip-path="url(#4483d6e59b)"><path stroke-linecap="butt" transform="matrix(0.751381, 0, 0, 0.751381, 130.229482, 105.879485)" fill="none" stroke-linejoin="miter" d="M 76.360689 -0.000770311 C 34.188354 -0.000770311 0.00131278 34.186271 0.00131278 76.358606 C 0.00131278 118.530942 34.188354 152.717983 76.360689 152.717983 C 118.533025 152.717983 152.720066 118.530942 152.720066 76.358606 C 152.720066 34.186271 118.533025 -0.000770311 76.360689 -0.000770311 " stroke="#183e9f" stroke-width="6" stroke-opacity="1" stroke-miterlimit="4"/></g></g><g clip-path="url(#3bd1f46a48)"><g clip-path="url(#c2b721bbc3)"><g clip-path="url(#bd9fa239a0)"><path fill="#5ce1e6" d="M 207.703125 168.242188 L 211.261719 168.230469 C 214.96875 168.222656 218.5625 166.671875 221.117188 163.984375 C 223.660156 161.308594 224.960938 157.820312 224.777344 154.167969 C 224.421875 147.015625 218.519531 141.433594 211.347656 141.453125 L 205.957031 141.46875 C 205.957031 141.46875 197.699219 142.242188 197.488281 137.304688 C 197.597656 141.417969 200.988281 144.722656 205.128906 144.710938 L 211.355469 144.691406 C 216.796875 144.675781 221.269531 148.90625 221.539062 154.328125 C 221.675781 157.09375 220.691406 159.726562 218.765625 161.757812 C 216.820312 163.808594 214.078125 164.988281 211.25 164.996094 L 207.691406 165.003906 C 207.632812 165.003906 207.570312 165.007812 207.511719 165.007812 C 202.570312 165.222656 203.339844 173.46875 203.339844 173.46875 L 203.335938 172.628906 C 203.332031 170.21875 205.289062 168.25 207.703125 168.242188 M 173.910156 136.378906 C 173.910156 136.378906 174.628906 144.046875 170.246094 144.785156 C 170.019531 144.804688 169.789062 144.816406 169.554688 144.816406 L 163.496094 144.835938 C 160.664062 144.84375 157.925781 146.023438 155.980469 148.074219 C 154.050781 150.101562 153.066406 152.742188 153.203125 155.5 C 153.472656 160.921875 157.945312 165.15625 163.386719 165.140625 L 169.617188 165.121094 C 173.757812 165.109375 177.148438 168.414062 177.253906 172.523438 C 177.042969 167.589844 168.785156 168.359375 168.785156 168.359375 L 163.398438 168.375 C 156.222656 168.398438 150.324219 162.8125 149.96875 155.660156 C 149.957031 155.449219 149.949219 155.238281 149.949219 155.027344 C 149.941406 151.605469 151.234375 148.367188 153.628906 145.847656 C 156.179688 143.15625 159.773438 141.609375 163.484375 141.597656 L 169.546875 141.578125 C 171.960938 141.570312 173.917969 139.605469 173.910156 137.195312 L 173.910156 136.378906 " fill-opacity="1" fill-rule="nonzero"/></g></g></g><g clip-path="url(#fd458291c1)"><g clip-path="url(#17e96480c4)"><g clip-path="url(#69f8810573)"><path fill="#183e9f" d="M 175.402344 191.675781 C 173.484375 191.683594 171.925781 190.132812 171.917969 188.21875 C 171.914062 186.304688 173.464844 184.746094 175.382812 184.738281 C 177.300781 184.734375 178.859375 186.28125 178.867188 188.199219 C 178.871094 190.113281 177.320312 191.671875 175.402344 191.675781 M 177.152344 137.183594 C 177.164062 141.148438 174.125 144.421875 170.246094 144.785156 C 174.628906 144.046875 173.910156 136.378906 173.910156 136.378906 L 173.894531 131.140625 C 173.882812 127.433594 175.410156 123.835938 178.085938 121.273438 C 180.753906 118.71875 184.234375 117.398438 187.894531 117.558594 C 195.058594 117.871094 200.683594 123.726562 200.707031 130.890625 L 200.726562 137.113281 C 200.734375 139.523438 202.703125 141.480469 205.117188 141.472656 L 205.957031 141.46875 C 205.957031 141.46875 197.699219 142.242188 197.488281 137.304688 C 197.488281 137.246094 197.484375 137.183594 197.484375 137.121094 L 197.464844 130.902344 C 197.449219 125.46875 193.183594 121.027344 187.753906 120.792969 C 184.988281 120.667969 182.351562 121.667969 180.332031 123.605469 C 178.292969 125.5625 177.125 128.304688 177.132812 131.132812 L 177.152344 137.183594 M 196.664062 208.785156 L 195.847656 208.789062 C 195.003906 208.792969 194.3125 208.15625 194.226562 207.339844 C 192.226562 206.710938 190.445312 205.457031 189.191406 203.738281 C 187.945312 202.039062 187.285156 199.992188 187.277344 197.914062 C 187.277344 197.273438 187.335938 196.621094 187.460938 195.980469 C 187.921875 193.671875 188.484375 191.582031 189.152344 189.703125 C 188.847656 189.402344 188.667969 188.984375 188.667969 188.554688 C 188.667969 188.347656 188.707031 188.136719 188.792969 187.929688 C 189.683594 185.773438 190.738281 183.917969 191.921875 182.417969 C 191.9375 182.398438 191.953125 182.378906 191.96875 182.363281 C 194.152344 179.832031 196.996094 178.257812 200.113281 177.820312 L 200.097656 172.636719 C 200.082031 168.503906 203.394531 165.117188 207.511719 165.007812 C 202.570312 165.222656 203.339844 173.46875 203.339844 173.46875 L 203.351562 177.773438 C 206.582031 178.136719 209.539062 179.710938 211.804688 182.304688 C 211.824219 182.320312 211.835938 182.339844 211.851562 182.355469 C 213.046875 183.851562 214.109375 185.699219 215.015625 187.851562 C 215.277344 188.476562 215.117188 189.175781 214.664062 189.625 C 215.34375 191.5 215.921875 193.589844 216.394531 195.894531 C 216.945312 198.59375 216.332031 201.425781 214.710938 203.660156 C 213.417969 205.449219 211.566406 206.742188 209.476562 207.359375 C 209.367188 208.144531 208.691406 208.75 207.875 208.753906 L 207.058594 208.753906 C 206.160156 208.757812 205.433594 208.035156 205.429688 207.140625 C 205.429688 206.242188 206.152344 205.515625 207.046875 205.511719 L 207.867188 205.511719 C 208.421875 205.507812 208.914062 205.785156 209.207031 206.210938 C 211.023438 205.660156 212.628906 204.527344 213.757812 202.972656 C 215.183594 201.003906 215.726562 198.507812 215.238281 196.128906 C 214.78125 193.90625 214.226562 191.894531 213.582031 190.09375 C 212.925781 190.117188 212.296875 189.742188 212.027344 189.105469 C 211.246094 187.242188 210.339844 185.660156 209.34375 184.40625 C 207.363281 182.15625 204.714844 180.921875 201.882812 180.929688 C 199.050781 180.9375 196.410156 182.191406 194.445312 184.449219 C 193.453125 185.710938 192.558594 187.300781 191.789062 189.167969 C 191.523438 189.808594 190.894531 190.1875 190.238281 190.167969 C 189.601562 191.96875 189.058594 193.984375 188.621094 196.210938 C 188.148438 198.589844 188.703125 201.082031 190.140625 203.042969 C 191.242188 204.542969 192.789062 205.644531 194.539062 206.203125 C 194.832031 205.804688 195.304688 205.546875 195.835938 205.546875 L 196.652344 205.542969 C 197.550781 205.542969 198.28125 206.265625 198.285156 207.160156 C 198.285156 208.054688 197.558594 208.785156 196.664062 208.785156 M 170.695312 188.226562 C 170.6875 185.59375 172.824219 183.449219 175.457031 183.441406 C 178.09375 183.433594 180.242188 185.566406 180.25 188.195312 C 180.257812 190.828125 178.121094 192.972656 175.484375 192.980469 C 172.851562 192.988281 170.703125 190.855469 170.695312 188.226562 M 182.496094 188.191406 C 182.488281 184.957031 180.273438 182.234375 177.285156 181.4375 L 177.261719 172.707031 C 177.261719 172.644531 177.257812 172.582031 177.257812 172.523438 C 177.042969 167.585938 168.785156 168.359375 168.785156 168.359375 L 169.625 168.355469 C 172.039062 168.347656 174.011719 170.304688 174.019531 172.714844 L 174.042969 181.34375 C 170.84375 182.003906 168.4375 184.84375 168.449219 188.230469 C 168.460938 192.101562 171.621094 195.238281 175.492188 195.226562 C 179.367188 195.214844 182.507812 192.058594 182.496094 188.191406 " fill-opacity="1" fill-rule="nonzero"/></g></g></g><g clip-path="url(#a068de13d1)"><g clip-path="url(#3959557d6d)"><g clip-path="url(#592c24fbff)"><path fill="#5ce1e6" d="M 169.757812 168.359375 C 170.175781 168.367188 170.578125 168.4375 170.960938 168.558594 C 170.949219 168.558594 170.9375 168.554688 170.925781 168.550781 L 170.921875 168.550781 C 170.5625 168.441406 170.1875 168.375 169.796875 168.363281 C 169.78125 168.359375 169.769531 168.359375 169.757812 168.359375 M 173.6875 138.589844 C 173.695312 138.546875 173.707031 138.503906 173.71875 138.460938 C 173.828125 138.101562 173.894531 137.726562 173.90625 137.335938 C 173.910156 137.324219 173.910156 137.316406 173.910156 137.304688 C 173.898438 137.753906 173.824219 138.1875 173.6875 138.589844 M 173.941406 136.886719 C 173.945312 137.015625 173.949219 137.167969 173.953125 137.332031 C 173.949219 137.167969 173.945312 137.015625 173.941406 136.886719 M 203.339844 172.527344 C 203.347656 172.089844 203.421875 171.667969 203.550781 171.269531 C 203.542969 171.289062 203.539062 171.3125 203.535156 171.332031 L 203.53125 171.335938 C 203.421875 171.695312 203.359375 172.070312 203.34375 172.460938 C 203.34375 172.480469 203.339844 172.503906 203.339844 172.527344 " fill-opacity="1" fill-rule="nonzero"/></g></g></g><g clip-path="url(#7ebf680c76)"><g clip-path="url(#9f3de40569)"><g clip-path="url(#2580a227fa)"><path fill="#5ce1e6" d="M 168.144531 144.789062 C 170.875 143.769531 172.972656 141.453125 173.6875 138.589844 C 173.824219 138.1875 173.898438 137.753906 173.910156 137.304688 C 173.925781 137.167969 173.933594 137.027344 173.941406 136.886719 C 173.945312 137.015625 173.949219 137.167969 173.953125 137.332031 C 173.953125 137.378906 173.953125 137.425781 173.953125 137.472656 C 173.960938 139.632812 173.574219 144.195312 170.246094 144.753906 C 170.019531 144.773438 169.789062 144.785156 169.554688 144.785156 L 168.144531 144.789062 M 170.628906 168.328125 C 172.949219 168.414062 176.71875 169.019531 177.222656 172.019531 C 177.234375 172.140625 177.242188 172.265625 177.25 172.386719 C 177 169.078125 173.042969 168.417969 170.628906 168.328125 M 197.492188 137.390625 C 197.726562 141.101562 202.570312 141.519531 204.824219 141.515625 C 204.996094 141.511719 205.15625 141.511719 205.292969 141.507812 C 205.332031 141.507812 205.367188 141.511719 205.40625 141.511719 C 203.65625 141.578125 198.136719 141.496094 197.519531 137.820312 C 197.507812 137.679688 197.496094 137.535156 197.492188 137.390625 M 203.296875 172.324219 C 203.296875 171.726562 203.324219 170.945312 203.4375 170.121094 C 203.746094 167.847656 204.6875 165.222656 207.371094 165.019531 C 207.476562 165.011719 207.585938 165.011719 207.695312 165.007812 L 209.105469 165.003906 C 206.355469 166.035156 204.246094 168.378906 203.550781 171.269531 C 203.421875 171.667969 203.347656 172.089844 203.339844 172.527344 C 203.324219 172.65625 203.316406 172.785156 203.3125 172.917969 C 203.304688 172.75 203.300781 172.550781 203.296875 172.324219 " fill-opacity="1" fill-rule="nonzero"/></g></g></g><g clip-path="url(#65f4564db1)"><g clip-path="url(#94beb5495d)"><g clip-path="url(#3e5e28049b)"><path fill="#5ce1e6" d="M 169.339844 168.328125 C 169.660156 168.316406 170.105469 168.308594 170.628906 168.328125 C 173.042969 168.417969 177 169.078125 177.25 172.386719 C 177.253906 172.496094 177.257812 172.601562 177.257812 172.707031 L 177.261719 174.117188 C 176.226562 171.359375 173.867188 169.25 170.960938 168.558594 C 170.578125 168.4375 170.175781 168.367188 169.757812 168.359375 C 169.617188 168.34375 169.476562 168.335938 169.339844 168.328125 M 173.941406 136.886719 C 173.941406 136.882812 173.941406 136.882812 173.941406 136.878906 C 173.945312 137.007812 173.949219 137.164062 173.953125 137.332031 C 173.949219 137.167969 173.945312 137.015625 173.941406 136.886719 M 197.488281 137.132812 L 197.484375 135.722656 C 198.519531 138.492188 200.894531 140.609375 203.820312 141.289062 C 204.179688 141.398438 204.558594 141.464844 204.949219 141.476562 C 205.0625 141.488281 205.175781 141.5 205.292969 141.507812 C 205.15625 141.511719 204.996094 141.511719 204.824219 141.515625 C 202.570312 141.519531 197.726562 141.101562 197.492188 137.390625 C 197.488281 137.304688 197.488281 137.21875 197.488281 137.132812 M 203.4375 170.121094 C 203.730469 167.949219 204.597656 165.445312 207.007812 165.042969 C 207.125 165.03125 207.246094 165.023438 207.371094 165.019531 C 204.6875 165.222656 203.746094 167.847656 203.4375 170.121094 " fill-opacity="1" fill-rule="nonzero"/></g></g></g><g clip-path="url(#4ce7fb82df)"><g clip-path="url(#1e3e2078db)"><path fill="#183e9f" d="M 175.007812 147.792969 L 199.992188 147.792969 L 199.992188 169.734375 L 175.007812 169.734375 Z M 175.007812 147.792969 " fill-opacity="1" fill-rule="nonzero"/></g></g><g mask="url(#eab40fb62f)"><g transform="matrix(1, 0, 0, 1, 176, 149)"><g clip-path="url(#ad6733c835)"><g clip-path="url(#22a3ea5397)"><g clip-path="url(#defb819dc4)"><path fill="#5ce1e6" d="M 0.253906 0.980469 L 22.746094 0.980469 L 22.746094 20.730469 L 0.253906 20.730469 Z M 0.253906 0.980469 " fill-opacity="1" fill-rule="nonzero"/></g></g></g></g></g><path fill="#183e9f" d="M 108.898438 260.832031 C 117.769531 256.199219 128.117188 255.132812 137.949219 254.890625 C 148.539062 254.617188 159.097656 255.316406 169.625 256.292969 C 180.273438 257.296875 190.894531 258.546875 201.570312 259.308594 C 206.882812 259.671875 212.21875 259.886719 217.558594 259.917969 C 222.566406 259.945312 227.636719 259.976562 232.644531 259.367188 C 237.679688 258.757812 242.71875 257.328125 246.582031 253.824219 C 249.960938 250.746094 252.402344 246.054688 251.46875 241.394531 C 251.074219 239.445312 248.058594 239.902344 248.058594 241.851562 C 248.089844 245.996094 246.488281 249.5 243.324219 252.117188 C 239.761719 255.074219 234.996094 256.109375 230.5625 256.65625 C 220.488281 257.84375 210.230469 257.449219 200.125 256.75 C 179.609375 255.285156 159.15625 251.90625 138.554688 252.636719 C 128.054688 252.972656 117.4375 254.1875 108.296875 259.792969 C 107.632812 260.191406 108.207031 261.195312 108.898438 260.832031 Z M 108.898438 260.832031 " fill-opacity="1" fill-rule="nonzero"/><path fill="#183e9f" d="M 112.882812 254.066406 C 121.871094 250.746094 131.164062 249.957031 140.664062 249.894531 C 141.179688 249.894531 141.359375 249.011719 140.785156 248.949219 C 131.285156 247.519531 121.386719 249.804688 112.671875 253.671875 C 112.488281 253.761719 112.640625 254.160156 112.882812 254.066406 Z M 112.882812 254.066406 " fill-opacity="1" fill-rule="nonzero"/><path fill="#183e9f" d="M 243.050781 259.398438 C 246.519531 258.910156 249.71875 257.234375 252.132812 254.707031 C 253.367188 253.429688 254.425781 251.964844 255.148438 250.351562 C 255.75 249.070312 256.867188 246.785156 255.960938 245.476562 C 255.539062 244.867188 254.816406 244.777344 254.273438 245.265625 C 253.246094 246.148438 253.398438 248.15625 252.976562 249.4375 C 252.492188 250.898438 251.800781 252.269531 250.925781 253.519531 C 248.964844 256.230469 246.160156 258.210938 242.960938 259.09375 C 242.75 259.125 242.839844 259.429688 243.050781 259.398438 Z M 243.050781 259.398438 " fill-opacity="1" fill-rule="nonzero"/><path stroke-linecap="butt" transform="matrix(0.75, 0, 0, 0.75, 87.432347, 223.320513)" fill="none" stroke-linejoin="miter" d="M 71.548542 30.848693 C 71.949584 30.999734 72.329792 30.999734 72.683959 30.848693 C 73.032917 30.645568 73.288126 30.343484 73.433959 29.942443 L 79.100626 13.182025 C 79.251668 12.775775 79.225626 12.348691 79.022501 11.895566 C 78.87146 11.494525 78.621459 11.218483 78.267293 11.067441 C 77.866251 10.9164 77.491251 10.942441 77.137084 11.140358 C 76.782918 11.2914 76.532918 11.593483 76.381876 12.046608 L 70.720417 28.734109 C 70.569376 29.187234 70.590209 29.614317 70.793334 30.020568 C 70.944376 30.421609 71.194376 30.697651 71.548542 30.848693 Z M 86.876668 29.942443 C 87.02771 30.343484 87.27771 30.645568 87.631877 30.848693 C 87.986043 30.999734 88.361043 30.999734 88.762085 30.848693 C 89.116252 30.697651 89.366252 30.421609 89.517294 30.020568 C 89.668335 29.614317 89.694377 29.187234 89.595419 28.734109 L 81.668335 5.932024 C 81.517293 5.478899 81.262085 5.150774 80.913126 4.947649 C 80.55896 4.796608 80.18396 4.796608 79.77771 4.947649 C 79.428751 5.098691 79.147501 5.379941 78.949585 5.780983 C 78.798543 6.234108 78.798543 6.661191 78.949585 7.062233 Z M 101.522503 30.848693 C 101.928753 30.999734 102.303753 30.999734 102.657919 30.848693 C 103.006878 30.645568 103.262086 30.343484 103.413128 29.942443 L 109.074586 13.182025 C 109.225628 12.775775 109.199586 12.348691 108.996461 11.895566 C 108.84542 11.494525 108.59542 11.218483 108.246461 11.067441 C 107.840211 10.9164 107.465211 10.942441 107.111045 11.140358 C 106.756878 11.2914 106.506878 11.593483 106.355836 12.046608 L 100.694378 28.734109 C 100.543336 29.187234 100.569378 29.614317 100.767294 30.020568 C 100.918336 30.421609 101.173544 30.697651 101.522503 30.848693 Z M 116.850629 29.942443 C 117.00167 30.343484 117.256879 30.645568 117.605837 30.848693 C 117.960004 30.999734 118.335004 30.999734 118.741254 30.848693 C 119.090212 30.697651 119.34542 30.421609 119.496462 30.020568 C 119.647504 29.614317 119.668337 29.187234 119.569379 28.734109 L 111.642295 5.932024 C 111.491253 5.478899 111.241253 5.150774 110.887087 4.947649 C 110.53292 4.796608 110.15792 4.796608 109.75167 4.947649 C 109.402712 5.098691 109.12667 5.379941 108.923545 5.780983 C 108.772503 6.234108 108.772503 6.661191 108.923545 7.062233 Z M 131.19438 29.489317 C 131.19438 29.942443 131.371463 30.343484 131.72563 30.697651 C 132.079796 31.051818 132.480838 31.228901 132.933963 31.228901 C 133.433963 31.228901 133.840213 31.051818 134.142296 30.697651 C 134.491255 30.395568 134.69438 30.020568 134.746463 29.567442 L 134.746463 20.124734 L 144.939172 20.124734 C 145.444381 20.124734 145.845422 19.973692 146.147506 19.671609 C 146.501672 19.32265 146.673547 18.895567 146.673547 18.390358 C 146.673547 17.937233 146.501672 17.536192 146.147506 17.182025 C 145.845422 16.827858 145.444381 16.655983 144.939172 16.655983 L 134.746463 16.655983 L 134.746463 8.499733 L 144.637089 8.499733 C 145.142297 8.499733 145.569381 8.322649 145.918339 7.968483 C 146.220422 7.666399 146.371464 7.265358 146.371464 6.760149 C 146.371464 6.307024 146.220422 5.905983 145.918339 5.551816 C 145.569381 5.202858 145.142297 5.025774 144.637089 5.025774 L 132.933963 5.025774 C 132.480838 5.025774 132.079796 5.202858 131.72563 5.551816 C 131.371463 5.905983 131.19438 6.307024 131.19438 6.760149 C 131.19438 6.864316 131.19438 6.963274 131.19438 7.062233 Z M 164.496465 8.348691 C 165.600632 8.348691 166.152715 7.770566 166.152715 6.609108 C 166.152715 5.551816 165.600632 4.999733 164.496465 4.947649 L 159.131881 4.947649 C 158.027715 4.999733 157.470423 5.551816 157.470423 6.609108 C 157.470423 7.770566 158.048548 8.348691 159.210006 8.348691 L 160.116257 8.348691 L 160.116257 27.676817 L 159.131881 27.676817 C 158.027715 27.728901 157.470423 28.307026 157.470423 29.416401 C 157.470423 30.520568 158.048548 31.077859 159.210006 31.077859 L 164.496465 31.077859 C 165.600632 31.077859 166.152715 30.520568 166.152715 29.416401 C 166.152715 28.307026 165.600632 27.728901 164.496465 27.676817 L 163.51209 27.676817 L 163.51209 8.348691 Z M 178.840216 30.848693 C 179.241258 30.999734 179.621466 30.999734 179.970424 30.848693 C 180.324591 30.645568 180.574591 30.343484 180.725633 29.942443 L 186.3923 13.182025 C 186.543342 12.775775 186.5173 12.348691 186.314175 11.895566 C 186.163133 11.494525 185.913133 11.218483 185.558967 11.067441 C 185.157925 10.9164 184.777716 10.942441 184.428758 11.140358 C 184.074591 11.2914 183.824591 11.593483 183.67355 12.046608 L 178.006883 28.734109 C 177.855841 29.187234 177.881883 29.614317 178.085008 30.020568 C 178.236049 30.421609 178.486049 30.697651 178.840216 30.848693 Z M 194.168342 29.942443 C 194.319384 30.343484 194.569384 30.645568 194.92355 30.848693 C 195.272509 30.999734 195.652717 30.999734 196.053759 30.848693 C 196.407926 30.697651 196.657926 30.421609 196.808967 30.020568 C 196.960009 29.614317 196.986051 29.187234 196.887092 28.734109 L 188.960008 5.932024 C 188.808967 5.478899 188.553758 5.150774 188.2048 4.947649 C 187.850633 4.796608 187.470425 4.796608 187.069383 4.947649 C 186.715217 5.098691 186.439175 5.379941 186.241258 5.780983 C 186.090217 6.234108 186.090217 6.661191 186.241258 7.062233 Z M 194.168342 29.942443 " stroke="#001650" stroke-width="1.449998" stroke-opacity="1" stroke-miterlimit="4"/><g fill="#183e9f" fill-opacity="1"><g transform="translate(138.432343, 246.570512)"><g><path d="M 2.65625 -0.109375 C 2.957031 0.00390625 3.242188 0.00390625 3.515625 -0.109375 C 3.773438 -0.265625 3.960938 -0.492188 4.078125 -0.796875 L 8.328125 -13.375 C 8.441406 -13.675781 8.421875 -13.992188 8.265625 -14.328125 C 8.148438 -14.628906 7.960938 -14.835938 7.703125 -14.953125 C 7.398438 -15.066406 7.117188 -15.046875 6.859375 -14.890625 C 6.585938 -14.785156 6.394531 -14.5625 6.28125 -14.21875 L 2.046875 -1.703125 C 1.929688 -1.359375 1.945312 -1.035156 2.09375 -0.734375 C 2.207031 -0.429688 2.394531 -0.222656 2.65625 -0.109375 Z M 14.15625 -0.796875 C 14.269531 -0.492188 14.460938 -0.265625 14.734375 -0.109375 C 14.992188 0.00390625 15.273438 0.00390625 15.578125 -0.109375 C 15.835938 -0.222656 16.023438 -0.429688 16.140625 -0.734375 C 16.253906 -1.035156 16.273438 -1.359375 16.203125 -1.703125 L 10.25 -18.8125 C 10.132812 -19.144531 9.945312 -19.390625 9.6875 -19.546875 C 9.425781 -19.660156 9.144531 -19.660156 8.84375 -19.546875 C 8.570312 -19.429688 8.363281 -19.222656 8.21875 -18.921875 C 8.101562 -18.578125 8.101562 -18.253906 8.21875 -17.953125 Z M 14.15625 -0.796875 "/></g></g></g><g fill="#183e9f" fill-opacity="1"><g transform="translate(160.913448, 246.570512)"><g><path d="M 2.65625 -0.109375 C 2.957031 0.00390625 3.242188 0.00390625 3.515625 -0.109375 C 3.773438 -0.265625 3.960938 -0.492188 4.078125 -0.796875 L 8.328125 -13.375 C 8.441406 -13.675781 8.421875 -13.992188 8.265625 -14.328125 C 8.148438 -14.628906 7.960938 -14.835938 7.703125 -14.953125 C 7.398438 -15.066406 7.117188 -15.046875 6.859375 -14.890625 C 6.585938 -14.785156 6.394531 -14.5625 6.28125 -14.21875 L 2.046875 -1.703125 C 1.929688 -1.359375 1.945312 -1.035156 2.09375 -0.734375 C 2.207031 -0.429688 2.394531 -0.222656 2.65625 -0.109375 Z M 14.15625 -0.796875 C 14.269531 -0.492188 14.460938 -0.265625 14.734375 -0.109375 C 14.992188 0.00390625 15.273438 0.00390625 15.578125 -0.109375 C 15.835938 -0.222656 16.023438 -0.429688 16.140625 -0.734375 C 16.253906 -1.035156 16.273438 -1.359375 16.203125 -1.703125 L 10.25 -18.8125 C 10.132812 -19.144531 9.945312 -19.390625 9.6875 -19.546875 C 9.425781 -19.660156 9.144531 -19.660156 8.84375 -19.546875 C 8.570312 -19.429688 8.363281 -19.222656 8.21875 -18.921875 C 8.101562 -18.578125 8.101562 -18.253906 8.21875 -17.953125 Z M 14.15625 -0.796875 "/></g></g></g><g fill="#183e9f" fill-opacity="1"><g transform="translate(183.394552, 246.570512)"><g><path d="M 2.4375 -1.140625 C 2.4375 -0.796875 2.566406 -0.492188 2.828125 -0.234375 C 3.097656 0.0351562 3.398438 0.171875 3.734375 0.171875 C 4.109375 0.171875 4.410156 0.0351562 4.640625 -0.234375 C 4.910156 -0.453125 5.0625 -0.734375 5.09375 -1.078125 L 5.09375 -8.15625 L 12.75 -8.15625 C 13.125 -8.15625 13.425781 -8.269531 13.65625 -8.5 C 13.914062 -8.757812 14.046875 -9.078125 14.046875 -9.453125 C 14.046875 -9.796875 13.914062 -10.097656 13.65625 -10.359375 C 13.425781 -10.628906 13.125 -10.765625 12.75 -10.765625 L 5.09375 -10.765625 L 5.09375 -16.875 L 12.515625 -16.875 C 12.890625 -16.875 13.210938 -17.007812 13.484375 -17.28125 C 13.703125 -17.5 13.8125 -17.800781 13.8125 -18.1875 C 13.8125 -18.519531 13.703125 -18.820312 13.484375 -19.09375 C 13.210938 -19.351562 12.890625 -19.484375 12.515625 -19.484375 L 3.734375 -19.484375 C 3.398438 -19.484375 3.097656 -19.351562 2.828125 -19.09375 C 2.566406 -18.820312 2.4375 -18.519531 2.4375 -18.1875 C 2.4375 -18.101562 2.4375 -18.023438 2.4375 -17.953125 Z M 2.4375 -1.140625 "/></g></g></g><g fill="#183e9f" fill-opacity="1"><g transform="translate(203.327516, 246.570512)"><g><path d="M 7.484375 -17 C 8.304688 -17 8.71875 -17.429688 8.71875 -18.296875 C 8.71875 -19.085938 8.304688 -19.503906 7.484375 -19.546875 L 3.453125 -19.546875 C 2.628906 -19.503906 2.21875 -19.085938 2.21875 -18.296875 C 2.21875 -17.429688 2.648438 -17 3.515625 -17 L 4.1875 -17 L 4.1875 -2.5 L 3.453125 -2.5 C 2.628906 -2.457031 2.21875 -2.019531 2.21875 -1.1875 C 2.21875 -0.351562 2.648438 0.0625 3.515625 0.0625 L 7.484375 0.0625 C 8.304688 0.0625 8.71875 -0.351562 8.71875 -1.1875 C 8.71875 -2.019531 8.304688 -2.457031 7.484375 -2.5 L 6.75 -2.5 L 6.75 -17 Z M 7.484375 -17 "/></g></g></g><g fill="#183e9f" fill-opacity="1"><g transform="translate(218.900326, 246.570512)"><g><path d="M 2.65625 -0.109375 C 2.957031 0.00390625 3.242188 0.00390625 3.515625 -0.109375 C 3.773438 -0.265625 3.960938 -0.492188 4.078125 -0.796875 L 8.328125 -13.375 C 8.441406 -13.675781 8.421875 -13.992188 8.265625 -14.328125 C 8.148438 -14.628906 7.960938 -14.835938 7.703125 -14.953125 C 7.398438 -15.066406 7.117188 -15.046875 6.859375 -14.890625 C 6.585938 -14.785156 6.394531 -14.5625 6.28125 -14.21875 L 2.046875 -1.703125 C 1.929688 -1.359375 1.945312 -1.035156 2.09375 -0.734375 C 2.207031 -0.429688 2.394531 -0.222656 2.65625 -0.109375 Z M 14.15625 -0.796875 C 14.269531 -0.492188 14.460938 -0.265625 14.734375 -0.109375 C 14.992188 0.00390625 15.273438 0.00390625 15.578125 -0.109375 C 15.835938 -0.222656 16.023438 -0.429688 16.140625 -0.734375 C 16.253906 -1.035156 16.273438 -1.359375 16.203125 -1.703125 L 10.25 -18.8125 C 10.132812 -19.144531 9.945312 -19.390625 9.6875 -19.546875 C 9.425781 -19.660156 9.144531 -19.660156 8.84375 -19.546875 C 8.570312 -19.429688 8.363281 -19.222656 8.21875 -18.921875 C 8.101562 -18.578125 8.101562 -18.253906 8.21875 -17.953125 Z M 14.15625 -0.796875 "/></g></g></g></svg>